<svg xmlns="http://www.w3.org/2000/svg" xmlns:xlink="http://www.w3.org/1999/xlink" width="0" height="0" style="position:absolute">

    <symbol id="icon-arrow-left-small" viewBox="0 0 8 15">
        <path d="M1.04 7.5L7.87.73a.42.42 0 0 0 0-.6.43.43 0 0 0-.6 0L.13 7.2a.42.42 0 0 0 0 .6l7.14 7.07a.42.42 0 0 0 .6 0 .42.42 0 0 0 0-.6L1.04 7.5"/>
    </symbol>

    <symbol id="icon-arrow_left" viewBox="0 0 22 61">
        <path d="M20.667 61L22 60.124 1.857 30.496 21.998.871 20.675 0c-.1.138-.2.268-.293.403C13.625 10.34 6.87 20.278.106 30.21c-.15.221-.136.363.009.575 6.807 10 13.608 20.006 20.41 30.01l.142.204" fill-rule="evenodd"/>
    </symbol>

    <symbol id="icon-arrow_right" viewBox="0 0 22 61">
        <path d="M1.333 61L0 60.124l20.143-29.628L.002.871 1.325 0c.1.138.2.268.293.403C8.375 10.34 15.13 20.278 21.894 30.21c.15.221.136.363-.009.575-6.807 10-13.608 20.006-20.41 30.01L1.333 61" fill-rule="evenodd"/>
    </symbol>

    <symbol id="icon-basket" viewBox="0 0 25 21">
        <path fill="none" stroke-miterlimit="50" stroke-width="2" d="M14.892 5.484H2.16l3.756 8.214h11.616L20.365.92h4.365"/><path d="M4 19a2 2 0 1 1 4 0 2 2 0 1 1-4 0zm11 0a2 2 0 1 1 4 0 2 2 0 1 1-4 0z"/>
    </symbol>

    <symbol id="icon-cart" viewBox="0 0 64 58">
        <path d="M2.368 4.676h6.787l9.668 34.527c.276 1.014 1.223 1.715 2.288 1.715h29.714c.948 0 1.776-.546 2.17-1.403l10.813-24.55a2.34 2.34 0 0 0-.197-2.222 2.358 2.358 0 0 0-1.973-1.052H28.806c-1.302 0-2.367 1.052-2.367 2.338s1.065 2.338 2.367 2.338h29.201l-8.76 19.875h-26.36L13.22 1.715C12.943.7 11.996 0 10.931 0H2.368C1.065 0 0 1.052 0 2.338s1.065 2.338 2.368 2.338zm16.517 53.029a5.251 5.251 0 0 0 5.246-5.246 5.251 5.251 0 0 0-5.246-5.246 5.251 5.251 0 0 0-5.246 5.246 5.251 5.251 0 0 0 5.246 5.246zm33.556 0h.387c1.39-.116 2.666-.732 3.593-1.811.927-1.04 1.352-2.389 1.275-3.814-.193-2.852-2.705-5.048-5.602-4.855-2.898.193-5.062 2.736-4.869 5.587.193 2.735 2.473 4.893 5.216 4.893z"/>
    </symbol>

    <symbol id="icon-check" viewBox="0 0 18 18">
        <g fill="none" fill-rule="evenodd"><circle cx="9" cy="9" r="8.5"/><path d="M7.364 11.096L5.217 8.84l-.717.75 2.864 3.01L13.5 6.153l-.714-.753-5.422 5.696"/></g>
    </symbol>

    <symbol id="icon-checked" viewBox="0 0 20 20">
        <path d="M8.137 12.911L5.035 9.778 4 10.82 8.137 15 17 6.046 15.969 5l-7.832 7.911" fill-rule="evenodd"/>
    </symbol>

    <symbol id="icon-close" viewBox="0 0 16 16">
        <path d="M.226 1.335a.795.795 0 0 1 0-1.11c.31-.3.799-.3 1.11 0l6.66 6.669L14.67.224c.3-.299.8-.299 1.1 0a.782.782 0 0 1 0 1.11l-6.664 6.66 6.664 6.672a.78.78 0 1 1-1.1 1.109L7.996 9.103l-6.66 6.672c-.311.3-.8.3-1.11 0a.794.794 0 0 1 0-1.11l6.66-6.672-6.66-6.658" fill-rule="evenodd"/>
    </symbol>

    <symbol id="icon-compare" viewBox="0 0 16 19">
        <path d="M15.933 12.767l-2.695-4.493 2.419-.672a.469.469 0 1 0-.251-.903l-3.007.835-3.93 1.092V.469a.469.469 0 0 0-.938 0v8.417l-4.17 1.159-3.018.838a.469.469 0 0 0 .251.903l1.881-.522-2.408 4.014a.469.469 0 0 0-.067.24A3.485 3.485 0 0 0 3.481 19a3.485 3.485 0 0 0 3.482-3.481.469.469 0 0 0-.067-.241L4.2 10.785l7.313-2.032-2.409 4.014a.469.469 0 0 0-.066.242 3.485 3.485 0 0 0 3.48 3.48c.93 0 1.805-.361 2.462-1.019A3.458 3.458 0 0 0 16 13.008a.468.468 0 0 0-.067-.24zM3.481 18.063a2.548 2.548 0 0 1-2.5-2.075h5a2.548 2.548 0 0 1-2.5 2.075zm2.185-3.013h-4.37l2.185-3.641 2.185 3.641zm6.853-6.152l2.185 3.642h-4.37l2.185-3.642zm0 6.654a2.548 2.548 0 0 1-2.5-2.075h5a2.548 2.548 0 0 1-2.5 2.075z"/>
    </symbol>

    <symbol id="icon-consult" viewBox="0 0 37 43">
        <g transform="translate(0 1)" fill-rule="evenodd"><g transform="translate(12.3 12)"><ellipse stroke-width=".7" cx="2.2" cy="3.6" rx="1.2" ry="1"/><path d="M.383.197A6.786 6.786 0 0 1 3.618.196.5.5 0 0 1 4 .682V.8a.384.384 0 0 1-.47.375 6.767 6.767 0 0 0-3.059 0A.385.385 0 0 1 0 .8V.683A.5.5 0 0 1 .383.197z"/></g><g transform="translate(19.3 12)"><ellipse stroke-width=".7" cx="2.2" cy="3.6" rx="1.2" ry="1"/><path d="M3.617.197A6.786 6.786 0 0 0 .382.196.5.5 0 0 0 0 .682V.8a.384.384 0 0 0 .47.375 6.767 6.767 0 0 1 3.059 0A.385.385 0 0 0 4 .8V.683a.5.5 0 0 0-.383-.486z"/></g><path d="M30.407 34.26a.516.516 0 0 0-.51-.522h-4.9a.517.517 0 0 0-.51.521v1.988c0 .288.23.523.51.523h4.9c.282 0 .51-.235.51-.523v-1.988zm6.19-.53c-.053 3.047-2.224 5.18-6.514 6.4-3.084.877-7.015 1.564-11.247 1.635v-5.917l3.471-4.695L25.717 27c.602.247 1.282.502 2 .735l1.179.352c3.775 1.104 7.7 1.689 7.7 5.643zM0 33.73c.052 3.047 2.224 5.18 6.513 6.4 3.085.877 7.016 1.564 11.247 1.635v-5.917l-3.47-4.695L10.88 27a28.63 28.63 0 0 1-2 .735l-1.18.352C3.925 29.191 0 29.776 0 33.73zm18.305-5.07c-2.312 0-4.333-.844-5.523-1.66l5.523 7.324 5.522-7.321c-1.194.813-3.212 1.657-5.522 1.657z" fill-rule="nonzero"/><path d="M26.933 10.02c.04-.495-.035-.665-.518-.617-1.208.12-2.417.217-3.623.346-1.405.15-2.774-.024-4.15-.295-1.611-.318-3.1-.915-4.525-1.684-.346-.187-.53-.15-.733.194-.304.516-.819 1.002-1.17 1.49-.188.262-.605.58-.605.295 0-.284.097-.42.291-.707.497-.732.62-1.589 1.118-2.32.269-.397.62-.353.991-.163.748.382 1.464.85 2.25 1.13 1.112.395 2.273.657 3.416.966.243.065.497.102.749.124a6.76 6.76 0 0 0 1.216.004c-2.082-.638-3.584-1.788-5.345-2.972-.133-.09-1.007-.683-.908-.812.094-.122 2.237 1.044 3.256 1.56.935.473 2.439.866 3.435 1.217.279.098.614.048.923.066l.045-.167a691.32 691.32 0 0 0-2.8-2.05c-.62-.454-1.318-.765-1.318-1.149 0-.185.96.385 2.215 1.148 1.344.817 3.219 1.777 4.067 2.442.408.32.705.415 1.194.342.43-.064.888.036 1.47.072-.184-.612-.302-1.204-.537-1.749-.775-1.802-1.927-3.316-3.725-4.285-2.298-1.237-4.76-1.47-7.317-1.097-1.138.166-2.187.548-3.189 1.111a8.386 8.386 0 0 1-2 .792c-1.384.356-1.823 1.402-1.967 2.559-.19 1.53-.2 3.079-.315 4.618a.952.952 0 0 1-.307.594c-.086.074-.377.002-.521-.087-.106-.066-.17-.263-.175-.405-.062-1.938-.041-3.873.536-5.752.332-1.08.914-1.93 2.11-2.343 1.237-.428 2.406-1.036 3.627-1.51 1.75-.68 3.587-.85 5.447-.658 1.702.176 3.344.564 4.824 1.465 2.049 1.248 3.362 3.024 4.097 5.231.15.45.294.902.433 1.354.275.898-.027 1.288-.992 1.27-.442-.008-.37.291-.371.546-.007 1.272-.096.71-.599.863 0-.363-.024-.672 0-.978zm.176 3.685l.226-.705c.189.076.392.127.564.233.911.56 1.13 1.472 1.048 2.446-.087 1.021-.46 1.929-1.389 2.501-.155.096-.266.296-.353.47a27.188 27.188 0 0 1-2.602 4.25c-.97 1.289-2.098 2.386-3.484 3.119-1.176.62-2.477.919-3.86.73-2.269-.308-3.952-1.57-5.418-3.24-1.202-1.372-2.08-2.958-2.939-4.558-.238-.444-.488-.842-.937-1.125-.86-.54-1.131-2.515-.87-3.355.205-.658.619-1.08 1.174-1.385.115-.063.324.051.49.084-.044.205-.044.564-.137.59-.56.16-.65.655-.799 1.083-.263.752.228 2.047.848 2.567.315.264.568.628.783.987.628 1.045 1.182 2.136 1.838 3.16 1.093 1.708 2.422 3.196 4.323 3.983 1.397.577 2.845.572 4.301.139 1.544-.46 2.767-1.418 3.7-2.676.94-1.269 1.676-2.693 2.523-4.034.377-.596.645-1.265 1.317-1.662.28-.165.46-.63.541-.993.105-.466.082-.965.085-1.45.002-.6-.293-.995-.973-1.159" stroke-width=".7"/><rect x="16" y="21" width="4" height="1.3" rx=".65"/></g>
    </symbol>

    <symbol id="icon-download" viewBox="0 0 18 18">
        <path d="M0 16.688h18.009v1.284H0zm14.792-8.345l-.907-.908-4.237 4.229V0H8.36v11.664l-4.238-4.23-.905.907 5.786 5.78z"/>
    </symbol>

    <symbol id="icon-drop" viewBox="0 0 13 9">
        <path fill="none" stroke-miterlimit="50" stroke-width="2" d="M1 1.22L6.791 7.4 12.387 1"/>
    </symbol>

    <symbol id="icon-facebook" viewBox="0 0 40 40">
        <path d="M25.549 9.005L22.67 9c-3.233 0-5.324 2.126-5.324 5.415v2.496h-2.894a.45.45 0 0 0-.452.448v3.618c0 .246.203.448.452.448h2.894v9.126a.45.45 0 0 0 .452.449h3.777a.452.452 0 0 0 .452-.449v-9.126h3.384c.25 0 .452-.2.452-.448l.002-3.618a.45.45 0 0 0-.453-.448h-3.385v-2.117c0-1.016.245-1.532 1.581-1.532l1.94-.002a.45.45 0 0 0 .452-.447v-3.36a.45.45 0 0 0-.451-.448" fill-rule="evenodd"/>
    </symbol>

    <symbol id="icon-favorites" viewBox="0 0 17 17">
        <path d="M11.836 1c-1.113 0-2.16.495-2.949 1.394l-.388.444-.389-.444C7.324 1.494 6.278 1 5.165 1c-1.112 0-2.158.495-2.948 1.394-1.623 1.858-1.623 4.88 0 6.736l5.824 6.654a.618.618 0 0 0 .464.216c.165 0 .33-.072.454-.216l5.822-6.654c1.625-1.856 1.625-4.878 0-6.736C13.994 1.494 12.948 1 11.836 1z" stroke-width="1.5" fill="none"/>
    </symbol>

    <symbol id="icon-favorites_fill" viewBox="0 0 17 17">
        <path d="M11.836 1c-1.113 0-2.16.495-2.949 1.394l-.388.444-.389-.444C7.324 1.494 6.278 1 5.165 1c-1.112 0-2.158.495-2.948 1.394-1.623 1.858-1.623 4.88 0 6.736l5.824 6.654a.618.618 0 0 0 .464.216c.165 0 .33-.072.454-.216l5.822-6.654c1.625-1.856 1.625-4.878 0-6.736C13.994 1.494 12.948 1 11.836 1z" stroke-width="1.5" fill-rule="evenodd"/>
    </symbol>

    <symbol id="icon-guarantee" viewBox="0 0 89.5 99">
        <path d="M44.8 93.4h-.3c-16.8-3.8-34.8-19-34.8-37v-39c0-.5.3-1 .8-1.1l34-9.6c.2-.1.4-.1.6 0l34 9.6c.5.1.8.6.8 1.1v38.9c0 18-18.1 33.2-34.8 37-.2.1-.3.1-.3.1zM11.9 18.3v38.1c0 17.7 19 31.4 32.8 34.7 13.8-3.2 32.8-17 32.8-34.7V18.3L44.8 9l-32.9 9.3zm32.9 67.1h-.3c-13-3.7-27-15.9-27-29V34.6c0-.6.5-1.1 1.1-1.1s1.1.5 1.1 1.1v21.8c0 11.9 12.9 23.1 25 26.7 12.1-3.6 25-14.7 25-26.7V24.2l-25-7.1-12.2 3.4c-.6.2-1.2-.2-1.4-.8-.2-.6.2-1.2.8-1.4l12.5-3.5c.2-.1.4-.1.6 0l26.2 7.4c.5.1.8.6.8 1.1v33.1c0 13.1-14 25.2-27 29h-.2zM18.6 28.2c-.6 0-1.1-.5-1.1-1.1v-3.7c0-.6.5-1.1 1.1-1.1s1.1.5 1.1 1.1V27c0 .7-.5 1.2-1.1 1.2z"/><path d="M30.9 43.8L44 57.1V38.5h-2.4v13.1L28.5 38.3v18.6h2.4V43.8zm15.4-1.4c0 2.3 1.7 4 4 4s4-1.7 4-4-1.7-4-4-4c-2.2-.1-4 1.7-4 4zm6.2 0c0 1.3-.9 2.3-2.2 2.3-1.3 0-2.2-1-2.2-2.3 0-1.3.9-2.3 2.2-2.3 1.3 0 2.2.9 2.2 2.3zm1.6 7.6h-7.5v-2h7.5v2zm4.6-9.5v16.4H61V38.3l-2.3 2.2z" fill-rule="evenodd" clip-rule="evenodd"/>
    </symbol>

    <symbol id="icon-ico__zoom" viewBox="0 0 55 55">
        <path fill-rule="evenodd" clip-rule="evenodd" d="M41 13.5V24h-2v-7.008l-9.277 9.7-1.446-1.383L37.66 15.5H30.5v-2H41zM14 42V31.5h2v7.008l9.277-9.7 1.446 1.383L17.34 40h7.16v2H14zm13.5 11C41.583 53 53 41.583 53 27.5S41.583 2 27.5 2 2 13.417 2 27.5 13.417 53 27.5 53zm0 2C42.688 55 55 42.688 55 27.5S42.688 0 27.5 0 0 12.312 0 27.5 12.312 55 27.5 55z"/>
    </symbol>

    <symbol id="icon-inst" viewBox="0 0 40 40">
        <path d="M19.52 15.368c-2.329 0-4.218 1.83-4.218 4.087 0 2.257 1.889 4.087 4.217 4.087 2.33 0 4.219-1.83 4.219-4.087 0-2.258-1.888-4.087-4.219-4.087zm8.106 2.512h-1.848c.175.571.269 1.177.269 1.802 0 3.494-2.922 6.326-6.528 6.326-3.604 0-6.527-2.832-6.527-6.326 0-.625.094-1.23.27-1.802h-1.928v8.872c.46 0 .835.376.835.835H26.79c0-.459.376-.835.835-.835V17.88zm-3.328-6.547c0 .52-.426.945-.946.945v2.264c.52 0 .946.425.946.945h2.373c0-.52.425-.944.945-.944v-2.265a.949.949 0 0 1-.946-.945h-2.372zM11.695 9h15.61C28.786 9 30 10.096 30 11.695v15.61C30 28.903 28.786 30 27.305 30h-15.61C10.213 30 9 28.903 9 27.305v-15.61C9 10.096 10.213 9 11.695 9z" fill-rule="evenodd"/>
    </symbol>

    <symbol id="icon-load" viewBox="0 0 18 18">
        <path d="M0 16.688h18.009v1.284H0zm14.792-8.345l-.907-.908-4.237 4.229V0H8.36v11.664l-4.238-4.23-.905.907 5.786 5.78z"/>
    </symbol>

    <symbol id="icon-mail" viewBox="0 0 20 14">
        <g><path d="M10 9.99L0 3.322V13.53h20V3.323z"/><path d="M20 1.667V0H0v1.667l10 6.656z"/></g>
    </symbol>

    <symbol id="icon-measure" viewBox="0 0 91.13 99">
        <defs><style>.cls-1{fill:#3c3c3b;fill-rule:evenodd}</style></defs><path class="cls-1" d="M77.16 92.19A1.23 1.23 0 0 1 76 91.4l-6-15.76a1.3 1.3 0 0 1-.09-.42V9.56a1.23 1.23 0 0 1 1.23-1.23h12.04a1.23 1.23 0 0 1 1.23 1.23v65.62a1.2 1.2 0 0 1-.11.51l-6 15.71a1.23 1.23 0 0 1-1.15.79zm-4.25-15.78l4.24 11.11 4.25-11.11zm-.56-2.46H82V17.43h-9.6v56.52zm0-63.16V15H82v-4.21zM35.49 92h-1.81a23.68 23.68 0 0 1-20.22-11.3c-3-4.78-3.56-9-3.56-14.29a23.81 23.81 0 0 1 23.78-23.73h16.71V13.94a1.23 1.23 0 1 1 2.46 0v28.74h4V10.79H39.72a1.23 1.23 0 0 1 0-2.46H58a1.23 1.23 0 0 1 1.23 1.23v58.7A23.81 23.81 0 0 1 35.49 92zm-1.81-46.86a21.35 21.35 0 0 0-21.32 21.32c0 5 .52 8.69 3.19 13a21.23 21.23 0 0 0 18.13 10.13h1.81a21.35 21.35 0 0 0 21.32-21.33V45.14zM34.57 79h.48a11.64 11.64 0 0 0 11.16-12.1 11.7 11.7 0 0 0-12.09-11.16 11.56 11.56 0 0 0-5 1.37 1.23 1.23 0 1 0 1.16 2.16 9.18 9.18 0 1 1-4.83 8.46 9.3 9.3 0 0 1 .13-2 1.23 1.23 0 0 0-1-1.42 1.24 1.24 0 0 0-1.43 1A11.64 11.64 0 0 0 34.57 79zm42.58-8.81A1.23 1.23 0 0 0 78.38 69V22.28a1.23 1.23 0 1 0-2.46 0V69a1.23 1.23 0 0 0 1.23 1.23zm-68.9-7.72a1.23 1.23 0 0 0 .54-2.33c-1.37-.68-1.73-2.4-.9-4.29 2.53-5.77 7.11-10.9 11.93-13.39a3.41 3.41 0 0 1 4.27.62 1.23 1.23 0 1 0 1.75-1.72 5.83 5.83 0 0 0-7.15-1.08C13.32 43.05 8.44 48.5 5.65 54.86c-1.37 3.12-.53 6.2 2.06 7.48a1.21 1.21 0 0 0 .54.13zm40-4.67a4.21 4.21 0 1 0-4.2-4.2 4.21 4.21 0 0 0 4.2 4.2zm0-6A1.75 1.75 0 1 0 50 53.59a1.75 1.75 0 0 0-1.76-1.75z"/>
    </symbol>

    <symbol id="icon-menu_burger" viewBox="0 0 18 10">
        <path d="M0 0h18v1H0zm0 4h18v1H0zm0 4h18v1H0z" fill-rule="evenodd"/>
    </symbol>

    <symbol id="icon-menu_hamburger" viewBox="0 0 28 20">
        <path d="M0 0h28v3.176H0zm0 7.941h28v3.177H0zm0 7.941h28v3.177H0z"/>
    </symbol>

    <symbol id="icon-mobile-manager" viewBox="0 0 29 27">
        <path d="M28.487 25.976h-4.135V11.524l2.864 2.982.001.001a.513.513 0 0 0 .74-.708L24.21 9.881a.46.46 0 0 0-.083-.07L14.856.158a.512.512 0 0 0-.729-.011L.56 13.468a.512.512 0 1 0 .719.73L14.475 1.241l8.853 9.217v15.519H5.47L5.44 14.79a.511.511 0 1 0-1.024.003l.028 11.183H.513a.512.512 0 1 0 0 1.024h27.974a.512.512 0 1 0 0-1.024z"/>
    </symbol>

    <symbol id="icon-personal" viewBox="0 0 16 18">
        <path d="M7.848 8.546c2.101 0 3.804-1.69 3.804-3.773C11.652 2.689 9.95 1 7.848 1S4.043 2.69 4.043 4.773c0 2.084 1.704 3.773 3.805 3.773zM8 10.379c-3.866 0-7 2.84-7 6.345 0 .093.011.184.016.276h13.968c.005-.092.016-.183.016-.276 0-3.504-3.134-6.345-7-6.345z" stroke-width="1.5" fill="none" fill-rule="evenodd"/>
    </symbol>

    <symbol id="icon-phone" viewBox="0 0 18 18">
        <path d="M5.554 1.676c.386.386.773.77 1.157 1.158.677.683.679 1.48.004 2.158-.484.487-.965.976-1.459 1.452-.13.126-.14.23-.074.388.324.778.792 1.468 1.32 2.116 1.058 1.302 2.257 2.458 3.685 3.355.306.192.645.332.964.505.164.089.276.06.407-.075.483-.5.977-.987 1.47-1.476.647-.64 1.457-.642 2.106.001.793.786 1.583 1.575 2.369 2.367.659.664.654 1.476-.01 2.145-.447.452-.92.881-1.345 1.355-.616.69-1.39.913-2.275.864-1.286-.07-2.472-.498-3.615-1.053a19.682 19.682 0 0 1-6.527-5.107C2.388 10.231 1.278 8.491.548 6.526.195 5.576-.057 4.603.02 3.573c.047-.635.286-1.176.754-1.621.503-.48.982-.983 1.477-1.47.648-.637 1.46-.636 2.11.002.4.394.795.794 1.193 1.192z"/>
    </symbol>

    <symbol id="icon-phone2" viewBox="0 0 18 18">
        <path d="M5.554 1.676c.386.386.773.77 1.157 1.158.677.683.679 1.48.004 2.158-.484.487-.965.976-1.459 1.452-.13.126-.14.23-.074.388.324.778.792 1.468 1.32 2.116 1.058 1.302 2.257 2.458 3.685 3.355.306.192.645.332.964.505.164.089.276.06.407-.075.483-.5.977-.987 1.47-1.476.647-.64 1.457-.642 2.106.001.793.786 1.583 1.575 2.369 2.367.659.664.654 1.476-.01 2.145-.447.452-.92.881-1.345 1.355-.616.69-1.39.913-2.275.864-1.286-.07-2.472-.498-3.615-1.053a19.682 19.682 0 0 1-6.527-5.107C2.388 10.231 1.278 8.491.548 6.526.195 5.576-.057 4.603.02 3.573c.047-.635.286-1.176.754-1.621.503-.48.982-.983 1.477-1.47.648-.637 1.46-.636 2.11.002.4.394.795.794 1.193 1.192z"/>
    </symbol>

    <symbol id="icon-pin" viewBox="0 0 11 15">
        <path d="M5.5 0C8.533 0 11 2.523 11 5.625c0 4.15-5.074 9.082-5.29 9.29a.3.3 0 0 1-.42 0C5.076 14.707 0 9.775 0 5.625 0 2.523 2.467 0 5.5 0zm0 8.063c1.418 0 2.567-1.176 2.567-2.626S6.917 2.813 5.5 2.813c-1.418 0-2.567 1.176-2.567 2.626S4.083 8.063 5.5 8.063z" fill-rule="evenodd"/>
    </symbol>

    <symbol id="icon-pin_unactive" viewBox="0 0 38 51">
        <g fill-rule="evenodd"><path d="M19 0C8.523 0 0 8.58 0 19.125c0 14.11 17.53 30.88 18.277 31.586a1.046 1.046 0 0 0 1.446 0C20.471 50.004 38 33.234 38 19.125 38 8.579 29.478 0 19 0z"/><ellipse cx="19" cy="18.488" rx="8.867" ry="8.925"/></g>
    </symbol>

    <symbol id="icon-pinterest" viewBox="-5 -6 35 35">
        <path d="M12.326 0C5.747.001 2.25 4.216 2.25 8.812c0 2.131 1.191 4.79 3.098 5.633.544.245.472-.054.94-1.844a.425.425 0 0 0-.102-.417c-2.726-3.153-.532-9.635 5.751-9.635 9.093 0 7.394 12.582 1.582 12.582-1.498 0-2.614-1.176-2.261-2.631.428-1.733 1.266-3.596 1.266-4.845 0-3.148-4.69-2.681-4.69 1.49 0 1.289.456 2.159.456 2.159S6.781 17.4 6.501 18.539c-.474 1.928.064 5.049.111 5.318.029.148.195.195.288.073.149-.195 1.973-2.797 2.484-4.678.186-.685.949-3.465.949-3.465.503.908 1.953 1.668 3.498 1.668 4.596 0 7.918-4.04 7.918-9.053C21.733 3.596 17.62 0 12.326 0z"/>
    </symbol>

    <symbol id="icon-print" viewBox="0 0 21 20">
        <g><path d="M18.503 5.471v3.451H2.844V5.47H.19v9.82h2.654v4.512h15.43l.019-4.512h2.62l.056-9.82h-2.466zm-2.388 12.475H4.967v-2.39h11.148v2.39z"/><path d="M16.38 5.54V.164H4.967v6.635H16.38z"/></g>
    </symbol>

    <symbol id="icon-quality" viewBox="0 0 107.7 99">
        <style>.st0,.st1{fill:#3c3c3b}.st1{fill-rule:evenodd;clip-rule:evenodd}</style><path class="st0" d="M51.1 91.6c-1.5 0-2.9-.6-4-1.6-.9-.9-1.4-2-1.6-3.1L44.4 88c-2.2 2.2-5.8 2.2-8 0-1.1-1.1-1.6-2.5-1.6-4v-.6c-1.7.3-3.5-.3-4.9-1.6-1.3-1.3-1.8-3-1.6-4.7-1.7.2-3.4-.4-4.6-1.6-1.1-1.1-1.6-2.5-1.6-4 0-.9.2-1.7.6-2.5-.1 0-.1-.1-.2-.1l-.4-.3c-1.7-1.5-1.9-1.6-2.8-2.5-2.8-2.8-4.5-5.8-5.6-8.1-.4-.8-.8-1.6-1.1-2.3-.5-1.1-1-2.1-1.5-2.9l-.5.6c-.2.2-.5.4-.8.4-.3 0-.6-.1-.8-.3l-3.4-3c-.6-.6-.6-1.4-.2-1.8.4-.5 1.1-.5 1.6-.1l2.6 2.2L27.7 30v-.1c.1-.2.3-.4.5-.5l-9-7.9c-.5-.4-.5-1.1-.1-1.6s1.1-.5 1.6-.1l9.9 8.6c.2.2.4.5.4.8v.4c2 .1 4.6-.4 7.8-1.3.3-.1.5-.1.8-.2 5-1.5 10.3-.7 14.3 2.2l.1.1s.1 0 .1-.1c4-2.9 9.3-3.7 14.3-2.2 3.5 1.1 6.4 1.6 8.5 1.5-.1-.1-.1-.3-.1-.5 0-.3.2-.6.4-.8l9.9-8.6c.5-.4 1.2-.4 1.6.1.4.5.4 1.2-.1 1.6l-9 7.9.1.1c.3.1.5.4.6.6l18 20.7 2.6-2.2c.5-.4 1.2-.4 1.6.1.4.5.4 1.2-.1 1.6l-3.4 3c-.5.4-1.2.4-1.6-.1-2 1.4-2.9 3.3-4.1 5.8-1.5 3-3.3 6.7-7.8 10.6.3.7.4 1.4.4 2.2 0 1.5-.6 2.9-1.6 4-1.9 1.9-4.7 2.1-6.8.9-.2 1.2-.7 2.4-1.6 3.3-1.3 1.3-3.1 1.8-4.9 1.6.2 1.6-.3 3.4-1.6 4.6-1.1 1.1-2.5 1.6-4 1.6s-2.9-.6-4-1.6l-1.8-1.8c-.2 1.2-.7 2.3-1.6 3.2l-2.6 2.6c-.3.3-.6.5-.9.7-1.1.4-2.2.8-3.4.8zm-2.4-8c-.1.1-.2.3-.3.4-.9 1.4-.8 3.1.3 4.3 1.1 1.1 2.9 1.3 4.2.4.2-.1.3-.2.5-.4l2.6-2.6c1.1-1.1 1.3-2.9.4-4.2-.1-.2-.2-.3-.4-.5s-.3-.3-.5-.4h-.1c-1.3-.8-3.1-.6-4.2.4l-1.3 1.3-.1.1-1.1 1.2zm-10.6 2.7c1.3 1.3 3.4 1.3 4.7 0l4.3-4.3 1.3-1.3c.6-.6.9-1.4.9-2.3 0-.9-.3-1.7-1-2.4a3.32 3.32 0 0 0-4.7 0L38 81.6c-.6.6-1 1.5-1 2.3s.5 1.8 1.1 2.4zm24.7-1.9c1.2 1.2 3.5 1.2 4.7 0 1.3-1.3 1.3-3.4 0-4.7l-4.3-4.3-4-4c-.4-.4-.4-1.2 0-1.6.4-.4 1.2-.4 1.6 0l8.4 8.4c1.2 1.2 3.5 1.2 4.7 0 .6-.6 1-1.5 1-2.3 0-.7-.2-1.3-.6-1.9l-8.6-8.7-.1-.1c-.2-.2-.2-.5-.2-.7v-.2c.1-.1.1-.2.2-.3.1-.1.3-.2.5-.3h.4c.1.1.3.1.4.3l8.3 8.3c.2.2.4.4.5.6l1.6 1.6c1.3 1.3 3.4 1.3 4.7 0 .6-.6 1-1.5 1-2.4 0-.6-.2-1.3-.5-1.8v-.1c-.1-.2-.3-.3-.4-.5l-.6-.6-.1-.1-23.6-24.2c-.8-.8-2.1-.8-2.9 0-1.9 1.8-4.5 4.3-6.2 6-1 1-1.8 1.7-1.9 1.8-1 1-2.3 1.5-3.7 1.4-1.4 0-2.7-.6-3.6-1.6l-.6-.6c-.2-.2-.3-.4-.5-.6-1.5-2-1.3-4.9.6-6.8L51.9 32l.1-.1c-3.4-2.2-7.8-2.8-11.9-1.6-.3.1-.5.2-.8.2-4.3 1.3-7.7 1.7-10.1 1.2L12.6 50.8c.7 1.1 1.3 2.4 2 3.8.3.7.7 1.5 1.1 2.3 1.1 2.2 2.7 5 5.2 7.5.8.8.9.9 2.7 2.4l.4.3.1.1.4-.4c1.1-1.1 2.5-1.6 4-1.6s2.9.6 4 1.6c.8.8 1.4 1.9 1.6 3l.5-.5c1.1-1.1 2.5-1.6 4-1.6s2.9.6 4 1.6c1 1 1.6 2.4 1.6 3.7 2-.8 4.4-.3 6 1.3 1 1 1.6 2.3 1.6 3.7 1.6-.7 3.7-.5 5.2.5 0 0 .1 0 .1.1.2.2.5.3.7.6.1.1.2.1.3.2l4.7 5zm-31.2-4.2c1.3 1.3 3.4 1.3 4.7 0l4.4-4.4c1.3-1.3 1.3-3.4 0-4.7-1.2-1.2-3.5-1.3-4.7 0l-3 3-.6.6-.7.7-.4.4c-1 1.3-.9 3.2.3 4.4zm-6.2-6.4c1.2 1.2 3 1.3 4.3.4l.3-.3 1.2-1.2c.4-.5.6-1.2.6-1.8 0-.9-.3-1.7-1-2.4-1.2-1.2-3.5-1.2-4.7 0l-.7.7c-.6.6-1 1.5-1 2.3 0 .9.4 1.7 1 2.3zM83.3 67l.7.7c4-3.5 5.6-6.8 7.1-9.7 1.2-2.5 2.4-4.8 4.7-6.5L78.5 31.7c-2.5.5-6.2 0-10.9-1.4-4.3-1.3-8.9-.6-12.3 1.9-.6.5-1.3 1-1.8 1.5L40.6 46c-1 1-1.2 2.6-.3 3.8.1.2.2.2.3.3l.6.6c.5.6 1.2.9 2 .9s1.5-.3 2.1-.8c.1-.1.9-.8 1.9-1.8 1.8-1.7 4.4-4.2 6.2-6 1.7-1.6 4.4-1.6 6.1.1L83.3 67z"/>
    </symbol>

    <symbol id="icon-search" viewBox="0 0 17 18">
        <path d="M12.47 7.291a5.485 5.485 0 0 0-10.968-.007c-.002 3.05 2.48 5.446 5.398 5.491 3.035.047 5.572-2.419 5.57-5.484m-1.398 5.67c-3.032 2.205-7.376 1.611-9.705-1.514-2.132-2.86-1.728-6.947.92-9.332a6.988 6.988 0 0 1 9.44.04c2.767 2.54 3.055 6.932.435 9.838.035.02.078.033.106.061 1.43 1.427 2.857 2.855 4.285 4.282.299.3.335.698.096 1.016a.742.742 0 0 1-1.03.158c-.057-.042-.11-.093-.162-.143-1.436-1.436-2.872-2.87-4.307-4.307-.03-.029-.052-.064-.078-.099" fill-rule="evenodd"/>
    </symbol>

    <symbol id="icon-search2" viewBox="0 0 17 18">
        <path d="M12.47 7.291a5.485 5.485 0 0 0-10.968-.007c-.002 3.05 2.48 5.446 5.398 5.491 3.035.047 5.572-2.419 5.57-5.484m-1.398 5.67c-3.032 2.205-7.376 1.611-9.705-1.514-2.132-2.86-1.728-6.947.92-9.332a6.988 6.988 0 0 1 9.44.04c2.767 2.54 3.055 6.932.435 9.838.035.02.078.033.106.061 1.43 1.427 2.857 2.855 4.285 4.282.299.3.335.698.096 1.016a.742.742 0 0 1-1.03.158c-.057-.042-.11-.093-.162-.143-1.436-1.436-2.872-2.87-4.307-4.307-.03-.029-.052-.064-.078-.099" fill-rule="evenodd"/>
    </symbol>

    <symbol id="icon-stability" viewBox="0 0 89.5 99">
        <style>.st0,.st1{fill:#3c3c3b}.st1{fill-rule:evenodd;clip-rule:evenodd}</style><path class="st0" d="M61.3 91.6H23.4c-.6 0-1.1-.5-1.1-1.1s.5-1.1 1.1-1.1H27V79c0-.6.5-1.1 1.1-1.1H31c-.4-4.7 2.8-7.1 5.2-8.9.4-.3.9-.7 1.3-1 1-.7 2.7-1.9 2.7-2.5v-6c-5-1.1-9.4-4.1-12.6-8.6-.6-.8-1.1-1.7-1.6-2.6-.5 1.2-1.5 1.9-2.3 2.2-.9.3-2 .2-3-.3-.8-.4-1.3-1-1.5-1.7-.2-.6.2-1.2.8-1.4.6-.2 1.2.2 1.4.8.1.2 1 .6 1.5.5.2-.1 1.7-.7.9-2.8-.5-1.6-2.4-2.9-4-3.9-.9-.5-1.8-1-2.7-1.6-4-2.2-8.5-4.8-9.5-10.3-.5-2.8 0-5.3 1.5-7.2.9-1.1 2.1-2 3.4-2.5 2.4-.9 5.7-.6 8.2 1 .3.2.7.4 1.1.7v-1.5c-.1-2.7-.8-4.2-2.4-5.3-2.5-1.7-2.1-4.4-2-5.2.1-.3.1-.4.1-.5.2-.5.6-.8 1.1-.8h9.7c.6 0 1.1.5 1.1 1.1s-.5 1.1-1.1 1.1h-8.7c0 .7.2 1.6 1.1 2.3 2.8 2 3.3 4.7 3.4 7.1.1 1.4 0 2.9 0 4.3v5.9c0 7.4 1.9 14.2 5.4 19.2 3.6 5.2 9.2 8.2 15.2 8.2 6.1 0 11.6-3 15.2-8.2 3.5-5 5.4-11.8 5.4-19.2v-5.9c0-1.4-.1-2.9 0-4.3v-.4H43.2c-.6 0-1.1-.5-1.1-1.1s.5-1.1 1.1-1.1h22.5c.4-1.6 1.2-3.2 3.1-4.4 1-.7 1.1-1.6 1.1-2.3H38.7c-.6 0-1.1-.5-1.1-1.1s.5-1.1 1.1-1.1h32.1c.5 0 1 .3 1.1.8 0 0 0 .1.1.2.4 1.7.1 4-2 5.4-1.7 1.1-2.3 2.6-2.4 5.3v1.5c.4-.3.8-.6 1.1-.7 2.6-1.6 5.8-1.9 8.2-1 3.8 1.5 5.7 5.2 4.9 9.7-1 5.5-5.5 8.1-9.5 10.3-1 .5-1.9 1-2.7 1.6-1.6 1-3.4 2.3-4 3.9-.7 2.1.8 2.8.9 2.8.5.2 1.3-.2 1.5-.5.2-.6.8-1 1.4-.8.6.2 1 .8.8 1.4-.2.7-.7 1.3-1.5 1.7-1 .5-2.1.6-3 .3-.9-.3-1.8-1.1-2.3-2.2-.5.9-1 1.8-1.6 2.6-3.1 4.5-7.6 7.5-12.6 8.6v6c0 .5 1.8 1.8 2.7 2.5.4.3.9.6 1.3 1 2.4 1.8 5.6 4.2 5.2 8.9h2.8c.6 0 1.2.5 1.2 1.1v10.3H66c.6 0 1.2.5 1.2 1.1s-.5 1.1-1.2 1.1l-4.7.1zm-31.9-2.3h30.8v-9.2H29.4v9.2zm3.9-11.5h22.9v-.1c.4-3.2-1.5-4.9-4.2-6.9-.4-.3-.9-.6-1.3-.9-2-1.4-3.7-2.6-3.7-4.3V60h-2.3c-.8 0-1.5 0-2.2-.1v5.6c0 1.7-1.7 2.9-3.7 4.3-.4.3-.9.6-1.3.9-2.7 2-4.6 3.7-4.2 7v.1zm34.3-53v5.5c0 3.8-.5 7.4-1.4 10.8.7-.5 1.4-1 2.1-1.4.9-.6 1.9-1.1 2.8-1.6 3.9-2.2 7.6-4.2 8.4-8.7.6-3.4-.7-6.1-3.5-7.2-1.8-.7-4.3-.4-6.2.8-.5.3-1.6 1.2-2.2 1.8zm-52.1-3c-.7 0-1.5.1-2.1.4-1 .4-1.9 1-2.5 1.8-1.1 1.4-1.4 3.2-1 5.4.8 4.5 4.5 6.5 8.4 8.7.9.5 1.9 1.1 2.8 1.6.7.4 1.4.9 2.1 1.4-.9-3.4-1.4-7-1.4-10.8v-5.5c-.5-.6-1.6-1.5-2.2-1.8-1.2-.8-2.7-1.2-4.1-1.2z"/>
    </symbol>

    <symbol id="icon-systems_1" viewBox="0 0 80 142">
        <g fill-rule="evenodd"><path d="M0 5h2v136H0zm78 0h2v136h-2zM5.958 7.307v131.43L71 141.87V.86z"/><path d="M0 5h5v2H0zm72 0h7v2h-7z"/></g>
    </symbol>

    <symbol id="icon-systems_10" viewBox="0 0 80 141">
        <path d="M80 0H0v140h6V6h74z"/><path d="M80 141H45V8h35v133zm-33-2h31V10H47v129zM8 8h35v133H8z"/><path d="M76 137H49V12h27v125zm-25-2h23V14H51v121z"/>
    </symbol>

    <symbol id="icon-systems_11" viewBox="0 0 80 139">
        <g fill-rule="evenodd"><path d="M0 0h80v6H0z"/><path d="M74 5h6v134h-6zm-60 5h45v129H14z"/></g>
    </symbol>

    <symbol id="icon-systems_12" viewBox="0 0 80 125">
        <path d="M57 119H22V10h35v109zm-29-6h23V16H28v97z"/><path d="M58 120H21V9h37v111zm-36-1h35V10H22v109z"/><path d="M75 0H0v125h6V6h68v119h6V0z"/><path d="M44 122H9V10h35v112zm-29-6h23V16H15v100z"/><path d="M45 123H8V9h37v114zm-36-1h35V10H9v112z"/><path d="M38 116H15V16h23v100zm-22-1h21V17H16v98z"/>
    </symbol>

    <symbol id="icon-systems_13" viewBox="0 0 111 140">
        <g><path d="M104.009 140l-.076-133.806H7.07L6.997 140H0V0h111v140z"/><path d="M61.757 12.629h17.527v120.882H61.757zm-1.635-.397v-1.524H9.686v125.973h50.437v-2.767h-1.794v-.794h1.794V13.027h-1.794v-.795h1.793zM27.309 133.909h-.794v-2.3h.794v2.3zm0-4.689h-.794v-2.387h.794v2.387zm0-4.777h-.794v-2.387h.794v2.387zm0-4.773h-.794v-2.387h.794v2.387zm0-4.775h-.794v-2.387h.794v2.387zm0-4.776h-.794v-2.387h.794v2.387zm0-4.774h-.794v-2.386h.794v2.386zm0-4.776h-.794v-2.388h.794v2.388zm0-4.776h-.794v-2.387h.794v2.387zm0-4.773h-.794v-2.387h.794v2.387zm0-4.776h-.794v-2.387h.794v2.387zm0-4.776h-.794v-2.384h.794v2.384zm0-4.774h-.794v-2.387h.794v2.387zm0-4.776h-.794v-2.387h.794v2.387zm0-4.774h-.794v-2.387h.794v2.387zm0-4.775h-.794v-2.387h.794v2.387zm0-4.775h-.794v-2.386h.794v2.386zm0-4.776h-.794v-2.387h.794v2.387zm0-4.774h-.794v-2.387h.794v2.387zm0-4.774h-.794v-2.387h.794v2.387zm0-4.777h-.794v-2.386h.794v2.386zm0-4.774h-.794v-2.387h.794v2.387zm0-4.775h-.794v-2.387h.794v2.387zm0-4.776h-.794v-2.386h.794v2.386zm0-4.774h-.794v-2.387h.794v2.387zm0-4.775h-.794v-2.387h.794v2.387zm4.771 119.295h-2.385v-.794h2.385v.794zm0-120.887h-2.385v-.795h2.385v.795zm4.772 120.887h-2.385v-.794h2.385v.794zm0-120.887h-2.385v-.795h2.385v.795zm4.771 120.887h-2.384v-.794h2.384v.794zm0-120.887h-2.384v-.795h2.384v.795zm4.773 120.887h-2.385v-.794h2.385v.794zm0-120.887h-2.385v-.795h2.385v.795zm4.772 120.887h-2.385v-.794h2.385v.794zm0-120.887h-2.385v-.795h2.385v.795zm4.771 120.887h-2.385v-.794h2.385v.794zm0-120.887h-2.385v-.795h2.385v.795z"/></g>
    </symbol>

    <symbol id="icon-systems_14" viewBox="0 0 111 140">
        <g><path d="M104.009 140l-.075-133.806H7.07L6.997 140H0V0h111v140z"/><path d="M9.423 32.375h29.142V140H9.423zm0-22.875h91.952v19.875H9.423zM40.89 32.375h29.141V140H40.89zm31.343 0h29.142V140H72.233z"/></g>
    </symbol>

    <symbol id="icon-systems_2" viewBox="0 0 80 140">
        <g fill-rule="evenodd"><path d="M0 0h2v140H0zm78 0h2v140h-2z"/><path d="M1 0h77v2H1zm4.225 3.37l-.877 136.013 59.82-9.027L65 7.836z"/></g>
    </symbol>

    <symbol id="icon-systems_3" viewBox="0 0 80 143">
        <path d="M71 0H0v140h9V8h62v132h9V0z"/><path d="M11 138.234V10.475l47.293-6.6.744 137.866z"/><path d="M59.54 142.279l-49.04-3.58V10.04l48.29-6.739.75 138.978zM11.5 137.77l47.034 3.434-.738-136.755L11.5 10.91v126.86z"/>
    </symbol>

    <symbol id="icon-systems_4" viewBox="0 0 80 141">
        <path d="M0 0h6v140H0zm74 0h6v140h-6zM6 0h68v6H6zm2.362 9.488v130.614l56.044-8.12V14.834z" fill-rule="evenodd"/>
    </symbol>

    <symbol id="icon-systems_5" viewBox="0 0 79 140">
        <path d="M20 11h26v127H20zm-8-1H9V9h3v1zm-4 0H5V9h3v1zm-4 0H1V9h3v1zM1 140H0v-3h1v3zm0-4H0v-3h1v3zm0-4H0v-3h1v3zm0-4H0v-3h1v3zm0-4H0v-3h1v3zm0-4H0v-3h1v3zm0-4H0v-3h1v3zm0-4H0v-3h1v3zm0-4H0v-3h1v3zm0-4H0v-3h1v3zm0-4H0v-3h1v3zm0-4H0v-3h1v3zm0-4H0v-3h1v3zm0-4H0v-3h1v3zm0-4H0v-3h1v3zm0-4H0v-3h1v3zm0-4H0v-3h1v3zm0-4H0v-3h1v3zm0-4H0v-3h1v3zm0-4H0v-3h1v3zm0-4H0v-3h1v3zm0-4H0v-3h1v3zm0-4H0v-3h1v3zm0-4H0v-3h1v3zm0-4H0v-3h1v3zm0-4H0v-3h1v3zm0-4H0v-3h1v3zm0-4H0v-3h1v3zm0-4H0v-3h1v3zm0-4H0v-3h1v3zm0-4H0v-3h1v3zm0-4H0v-3h1v3zm0-4H0V9h1v3z"/><path d="M13.042 140h-1L12 139h1.042v1zM11 140H8v-1h3v1zm-4 0H4v-1h3v1zm-4 0H0v-1h3v1z"/><path d="M73 0H12v140h6V8h55v132h6V0z"/>
    </symbol>

    <symbol id="icon-systems_6" viewBox="0 0 80 145">
        <path d="M74 0H0v139h6V8h68v131h6V0z"/><path d="M9 140.499V8.204l34.457-3.338.543 139z"/><path d="M44.502 144.417L8.5 140.953V7.75l35.455-3.435.547 140.102zM9.5 140.045l33.998 3.271-.539-137.899L9.5 8.658v131.387z"/><path d="M57 140.633V8.338L43.217 5 43 144z"/><path d="M42.499 144.635l.219-140.27L57.5 7.944v133.082l-15.001 3.609zm1.217-139l-.215 137.73 12.999-3.126V8.731L43.716 5.635z"/>
    </symbol>

    <symbol id="icon-systems_7" viewBox="0 0 80 140">
        <g fill-rule="evenodd"><path d="M0 0h9v140H0z"/><path d="M8 0h63v8H8zm63 0h9v140h-9z"/></g>
    </symbol>

    <symbol id="icon-systems_8" viewBox="0 0 80 140">
        <path d="M0 0v6h74v134h6V0z"/><path d="M60 140H18V8h42v132zm-36-6h30V14H24v120z"/>
    </symbol>

    <symbol id="icon-systems_9" viewBox="0 0 80 139">
        <path d="M74 0H0v139h6V6h68v133h6V0z"/><path d="M72 29H8V8h64v21zM9 28h62V9H9v19zm-1 3h64v108H8z"/>
    </symbol>

    <symbol id="icon-vk" viewBox="0 0 40 40">
        <path d="M29.56 21.431c.869.849 1.787 1.648 2.567 2.583.344.415.67.843.92 1.325.354.685.033 1.439-.581 1.48l-3.818-.002c-.986.082-1.771-.315-2.432-.988-.528-.539-1.018-1.112-1.526-1.668a3.603 3.603 0 0 0-.688-.611c-.521-.339-.973-.235-1.271.309-.303.553-.373 1.165-.403 1.782-.04.898-.312 1.135-1.215 1.176-1.931.091-3.763-.201-5.464-1.175-1.501-.858-2.664-2.07-3.677-3.442-1.972-2.672-3.482-5.607-4.84-8.625-.305-.68-.081-1.045.67-1.058 1.245-.024 2.49-.022 3.738-.002.506.008.84.298 1.037.777.674 1.657 1.498 3.233 2.534 4.695.275.389.557.778.957 1.052.443.303.779.203.988-.291.132-.313.19-.649.22-.984.098-1.153.11-2.304-.061-3.452-.107-.717-.511-1.181-1.226-1.316-.365-.069-.311-.205-.133-.414.306-.359.595-.582 1.17-.582h4.316c.68.133.83.439.923 1.122l.004 4.794c-.008.265.132 1.05.609 1.226.382.124.633-.182.862-.423 1.033-1.097 1.77-2.393 2.43-3.735.292-.591.543-1.203.787-1.815.18-.455.464-.678.975-.669l4.154.004c.123 0 .248.002.367.022.7.12.892.421.676 1.104-.341 1.073-1.004 1.966-1.652 2.864-.692.959-1.433 1.884-2.12 2.848-.631.881-.581 1.325.203 2.089" fill-rule="evenodd"/>
    </symbol>

    <symbol id="icon-youtube" viewBox="0 0 21.94 21.94">
        <path d="M11 0a11 11 0 1 0 11 11A11 11 0 0 0 11 0z" fill="none"/><path d="M16.88 16.85a1.55 1.55 0 0 1-1.32 1.2 41.12 41.12 0 0 1-4.58.17 41.12 41.12 0 0 1-4.58-.17 1.55 1.55 0 0 1-1.32-1.2A13.1 13.1 0 0 1 4.85 14a13.11 13.11 0 0 1 .22-2.89 1.55 1.55 0 0 1 1.32-1.2A41.12 41.12 0 0 1 11 9.69a41.12 41.12 0 0 1 4.58.17 1.55 1.55 0 0 1 1.32 1.2 13.14 13.14 0 0 1 .19 2.94 13.1 13.1 0 0 1-.21 2.85zM5.76 11.78h.87v4.71h.82v-4.71h.89V11H5.76zm4.07 3.75c-.16.23-.32.35-.47.35s-.16-.06-.17-.17a2.28 2.28 0 0 1 0-.29v-3h-.74v3.23a2.08 2.08 0 0 0 .07.61.45.45 0 0 0 .48.3 1.19 1.19 0 0 0 .85-.5v.45h.74v-4.1h-.75zm2.88-3.17a1 1 0 0 0-.76.44V11h-.74v5.48H12v-.4a1 1 0 0 0 .76.45.59.59 0 0 0 .59-.46 3.25 3.25 0 0 0 .07-.82v-1.61a3.14 3.14 0 0 0-.07-.82.59.59 0 0 0-.63-.46zm2.36 0a1.05 1.05 0 0 0-.89.42 1.59 1.59 0 0 0-.23 1v1.43a1.58 1.58 0 0 0 .24 1 1.06 1.06 0 0 0 .9.42 1 1 0 0 0 .91-.53 1.05 1.05 0 0 0 .17-.44v-.59h-.75a4.85 4.85 0 0 1 0 .5.32.32 0 0 1-.33.3c-.25 0-.38-.19-.38-.57v-.72h1.48v-.85a1.6 1.6 0 0 0-.23-1 1 1 0 0 0-.88-.37zm.37 1.64h-.74v-.38q0-.57.37-.57c.24 0 .37.19.37.57z"/><path d="M12.65 15.32c0 .37-.11.55-.32.55a.53.53 0 0 1-.37-.18V13.2a.53.53 0 0 1 .37-.18c.21 0 .32.19.32.56zm-.46-10.19h.75v3a1.76 1.76 0 0 0 0 .29c0 .12.08.18.18.18s.31-.12.47-.35V5.13h.75v4.13h-.75v-.45a1.2 1.2 0 0 1-.85.51.46.46 0 0 1-.48-.32 2.08 2.08 0 0 1-.07-.61zM9.37 6.48a1.6 1.6 0 0 1 .23-1 1.11 1.11 0 0 1 1.74 0 1.62 1.62 0 0 1 .23 1v1.44a1.61 1.61 0 0 1-.23 1 1.11 1.11 0 0 1-1.74 0 1.6 1.6 0 0 1-.23-1zm1.1 2.16c.24 0 .36-.19.36-.57V6.33c0-.38-.12-.57-.36-.57s-.36.19-.36.57v1.73c.01.38.12.58.36.58zm-3.1-4.92L8 5.9l.57-2.17h.84L8.36 7v2.26h-.82V7A13.64 13.64 0 0 0 7 5.26l-.5-1.54z"/>
    </symbol>

</svg>