<?xml version="1.0" standalone="no"?>
<!DOCTYPE svg PUBLIC "-//W3C//DTD SVG 1.1//EN" "http://www.w3.org/Graphics/SVG/1.1/DTD/svg11.dtd" >
<svg>
<metadata>
Created by FontForge 20090622 at Tue Apr 24 14:50:33 2018
 By deploy user
Copyright (c) 2016 Swiss Typefaces S&#195;&#160;rl. All rights reserved.
</metadata>
<defs>
<font id="EuclidFlex-Light" horiz-adv-x="620" >
  <font-face 
    font-family="Euclid Flex Light"
    font-weight="300"
    font-stretch="normal"
    units-per-em="1000"
    panose-1="2 11 3 4 0 0 0 0 0 0"
    ascent="806"
    descent="-194"
    x-height="500"
    cap-height="710"
    bbox="-358 -1029.75 1607 928"
    underline-thickness="50"
    underline-position="-40"
    unicode-range="U+000D-U+FB02"
  />
<missing-glyph horiz-adv-x="500" 
d="M0 710h500v-710h-500v710zM34 691l216 -321l216 321h-432zM19 682v-654l220 327zM481 28v654l-221 -327zM34 19h432l-216 320z" />
    <glyph glyph-name="uni04070407" unicode="&#x407;&#x407;" horiz-adv-x="548" 
d="M-25 843q0 22 15 37t37 15t37 -15t15 -37t-15 -37t-37 -15t-37 15t-15 37zM223 842q0 22 15 37t37 15t37 -15t15 -37t-15 -37t-37 -15t-37 15t-15 37zM469 842q0 22 15 37t37 15t37 -15t15 -37t-15 -37t-37 -15t-37 15t-15 37zM106 710h62v-710h-62v710zM380 710h62v-710
h-62v710z" />
    <glyph glyph-name="uni04570457" unicode="&#x457;&#x457;" horiz-adv-x="478" 
d="M29 684q22 0 37 -15t15 -37t-15 -37t-37 -15t-37 15t-15 37t15 37t37 15zM239 684q22 0 37 -15t15 -37t-15 -37t-37 -15t-37 15t-15 37t15 37t37 15zM449 684q22 0 37 -15t15 -37t-15 -37t-37 -15t-37 15t-15 37t15 37t37 15zM91 500h57v-500h-57v500zM330 500h57v-500
h-57v500z" />
    <glyph glyph-name="f_t" unicode="ft" horiz-adv-x="617" 
d="M23 500h91q-40 34 -40 90q0 53 41 86.5t108 33.5h101v-54h-104q-38 0 -63 -19t-25 -55q0 -38 22 -59t54 -23h158v122l57 28v-150h149l-13 -55h-136v-311q0 -42 18 -60.5t63 -18.5h61v-55h-62q-69 0 -103 31t-34 101v313h-188v-445h-57v445h-98v55z" />
    <glyph glyph-name="t_f" unicode="tf" horiz-adv-x="611" 
d="M5 500h100v122l57 28v-150h208q-39 34 -39 90q0 53 41 86.5t108 33.5h101v-54h-104q-38 0 -63 -19t-25 -55q0 -38 22 -59t54 -23h116v-55h-146v-445h-57v445h-216v-311q0 -42 18 -60.5t63 -18.5h61v-55h-62q-69 0 -103 31t-34 101v313h-87z" />
    <glyph glyph-name="t_t" unicode="tt" horiz-adv-x="628" 
d="M5 500h100v122l57 28v-150h215v122l57 28v-150h149l-13 -55h-136v-311q0 -42 18 -60.5t63 -18.5h61v-55h-62q-69 0 -103 31t-34 101v313h-215v-311q0 -42 18 -60.5t63 -18.5h61v-55h-62q-69 0 -103 31t-34 101v313h-87z" />
    <glyph glyph-name=".notdef" horiz-adv-x="500" 
d="M0 710h500v-710h-500v710zM34 691l216 -321l216 321h-432zM19 682v-654l220 327zM481 28v654l-221 -327zM34 19h432l-216 320z" />
    <glyph glyph-name=".null" horiz-adv-x="0" 
 />
    <glyph glyph-name="nonmarkingreturn" horiz-adv-x="333" 
 />
    <glyph glyph-name="CR" unicode="&#xd;" horiz-adv-x="0" 
 />
    <glyph glyph-name="space" unicode=" " horiz-adv-x="255" 
 />
    <glyph glyph-name="exclam" unicode="!" horiz-adv-x="233" 
d="M89 415v295h57v-295l-11 -211h-36zM59 56q0 35 30 50h56q13 -7 21 -23.5t8 -32.5q0 -24 -17 -40.5t-41 -16.5q-23 0 -40 19.5t-17 43.5z" />
    <glyph glyph-name="quotedbl" unicode="&#x22;" horiz-adv-x="413" 
d="M77 710h57v-225h-57v225zM279 710h57v-225h-57v225z" />
    <glyph glyph-name="numbersign" unicode="#" horiz-adv-x="793" 
d="M450 209h-202l-65 -209h-58l65 209h-130v55h147l61 193h-135v55h152l62 198h58l-62 -198h202l62 198h57l-62 -198h131v-55h-148l-61 -193h137v-55h-154l-65 -209h-57zM265 264h202l61 193h-202z" />
    <glyph glyph-name="dollar" unicode="$" horiz-adv-x="522" 
d="M229 -7q-63 4 -116.5 32.5t-84.5 65.5l44 37q28 -35 75 -59t101 -24q76 0 121.5 36t45.5 92q0 53 -32.5 84.5t-102.5 67.5l-75 37q-81 41 -116 83.5t-35 105.5q0 66 51.5 111.5t123.5 53.5v82h52v-81q106 -10 173 -89l-42 -37q-61 74 -159 74q-60 0 -101.5 -32.5
t-41.5 -82.5q0 -45 27 -75t89 -61l75 -38q42 -21 67 -36.5t52.5 -39t40 -52.5t12.5 -66q0 -77 -51 -128.5t-141 -59.5v-82h-52v81z" />
    <glyph glyph-name="percent" unicode="%" horiz-adv-x="472" 
d="M90 576q0 60 42.5 101t102.5 41q62 0 104.5 -41t42.5 -101t-42.5 -100.5t-104.5 -40.5q-60 0 -102.5 40.5t-42.5 100.5zM323 576q0 38 -24.5 63.5t-63.5 25.5q-38 0 -61.5 -25.5t-23.5 -63.5t23.5 -63.5t61.5 -25.5q39 0 63.5 25.5t24.5 63.5zM101 380h280v-55h-280v55z
M90 134q0 60 42 100.5t103 40.5q62 0 104.5 -40.5t42.5 -100.5t-42.5 -101t-104.5 -41q-60 0 -102.5 41t-42.5 101zM323 134q0 38 -24.5 63.5t-63.5 25.5q-38 0 -61.5 -25.5t-23.5 -63.5t23.5 -63.5t61.5 -25.5q39 0 63.5 25.5t24.5 63.5z" />
    <glyph glyph-name="ampersand" unicode="&#x26;" horiz-adv-x="612" 
d="M31 213q0 93 63 157t161 64q33 0 71 -12l-152 288h341v-55h-252l349 -655h-62l-83 155q-19 -73 -75.5 -118t-136.5 -45q-98 0 -161 63.5t-63 157.5zM419 213q0 75 -46 122t-118 47t-118.5 -47t-46.5 -122t46.5 -121.5t118.5 -46.5t118 46.5t46 121.5z" />
    <glyph glyph-name="quotesingle" unicode="'" horiz-adv-x="211" 
d="M77 710h57v-225h-57v225z" />
    <glyph glyph-name="parenleft" unicode="(" horiz-adv-x="233" 
d="M61 300q0 126 25 220.5t83 215.5l50 -21q-54 -109 -78 -205.5t-24 -209.5t24 -209.5t78 -205.5l-50 -21q-58 121 -83 215.5t-25 220.5z" />
    <glyph glyph-name="parenright" unicode=")" horiz-adv-x="233" 
d="M172 300q0 126 -25 220.5t-83 215.5l-50 -21q54 -109 78 -205.5t24 -209.5t-24 -209.5t-78 -205.5l50 -21q58 121 83 215.5t25 220.5z" />
    <glyph glyph-name="asterisk" unicode="*" horiz-adv-x="443" 
d="M106 441l73 101l-119 40l14 49l121 -40v119h50v-119l122 39l16 -48l-121 -39l74 -102l-40 -29l-76 101l-73 -101z" />
    <glyph glyph-name="plus" unicode="+" horiz-adv-x="664" 
d="M112 298h191v183h58v-183h191v-55h-191v-189h-58v189h-191v55z" />
    <glyph glyph-name="comma" unicode="," horiz-adv-x="237" 
d="M113 0h-42v103h96v-104l-54 -137h-44z" />
    <glyph glyph-name="hyphen" unicode="-" horiz-adv-x="329" 
d="M51 303h227v-65h-227v65z" />
    <glyph glyph-name="period" unicode="." horiz-adv-x="244" 
d="M63 51q0 25 17 43t42 18t42 -18t17 -43q0 -24 -17.5 -41.5t-41.5 -17.5t-41.5 17.5t-17.5 41.5z" />
    <glyph glyph-name="slash" unicode="/" horiz-adv-x="406" 
d="M349 710h57l-349 -710h-57z" />
    <glyph glyph-name="zero" unicode="0" horiz-adv-x="818" 
d="M46 355q0 154 105 258.5t258 104.5t258 -104.5t105 -258.5t-105 -258.5t-258 -104.5t-258 104.5t-105 258.5zM713 355q0 132 -86.5 220.5t-217.5 88.5t-216.5 -88t-85.5 -221t85.5 -221t216.5 -88t217.5 88.5t86.5 220.5z" />
    <glyph glyph-name="one" unicode="1" horiz-adv-x="261" 
d="M102 661l57 57v-718h-57v661z" />
    <glyph glyph-name="two" unicode="2" horiz-adv-x="538" 
d="M337 320q-32 -13 -67 -13q-86 0 -146 59t-60 146t60 146.5t146 59.5q85 0 145.5 -60t60.5 -146q0 -69 -32.5 -130t-112.5 -145l-173 -182h319v-55h-446zM418 512q0 66 -42.5 109.5t-105.5 43.5q-64 0 -106 -43.5t-42 -109.5t42 -109.5t106 -43.5q63 0 105.5 43.5
t42.5 109.5z" />
    <glyph glyph-name="three" unicode="3" horiz-adv-x="523" 
d="M38 107l49 31q19 -40 60.5 -66.5t91.5 -26.5q74 0 124 49t50 125q0 80 -50 130.5t-129 50.5h-59l159 255h-268v55h362l-161 -259q94 -12 149.5 -78t55.5 -154q0 -93 -66 -160t-168 -67q-61 0 -116 32t-84 83z" />
    <glyph glyph-name="four" unicode="4" horiz-adv-x="589" 
d="M417 210h-419l476 508v-453h103v-55h-103v-210h-57v210zM417 265v315l-295 -315h295z" />
    <glyph glyph-name="five" unicode="5" horiz-adv-x="544" 
d="M58 107l49 31q20 -40 61.5 -66.5t90.5 -26.5q74 0 124 49.5t50 125.5q0 79 -49.5 129.5t-129.5 50.5q-61 0 -119 -53l-43 19v344h345v-55h-288v-231q51 29 105 29q108 0 173.5 -68.5t65.5 -164.5q0 -93 -66.5 -160.5t-168.5 -67.5q-61 0 -116 32t-84 83z" />
    <glyph glyph-name="six" unicode="6" horiz-adv-x="561" 
d="M51 222q0 65 39 129l220 359h64l-167 -270q37 13 74 13q96 0 163.5 -68t67.5 -163t-67.5 -162.5t-163.5 -67.5t-163 67.5t-67 162.5zM453 222q0 74 -49 126t-123 52q-73 0 -122 -52t-49 -126t48.5 -125.5t122.5 -51.5t123 51.5t49 125.5z" />
    <glyph glyph-name="seven" unicode="7" horiz-adv-x="504" 
d="M398 655h-367v55h454l-349 -710h-60z" />
    <glyph glyph-name="eight" unicode="8" horiz-adv-x="563" 
d="M512 222q0 69 -37 125.5t-98 83.5q64 48 64 128q0 68 -46.5 113.5t-113.5 45.5t-113 -45.5t-46 -113.5q0 -80 63 -128q-60 -27 -97 -83.5t-37 -125.5q0 -95 67 -162.5t163 -67.5t163.5 67.5t67.5 162.5zM276 452q-43 1 -69 31.5t-26 75.5q0 46 27 76t73 30t73.5 -30
t27.5 -76q0 -45 -26.5 -75.5t-70.5 -31.5h-9zM110 222q0 74 49 126.5t122 52.5t122.5 -52.5t49.5 -126.5t-49 -125.5t-123 -51.5t-122.5 51.5t-48.5 125.5z" />
    <glyph glyph-name="nine" unicode="9" horiz-adv-x="561" 
d="M354 270q-37 -13 -74 -13q-96 0 -163.5 68t-67.5 163t67.5 162.5t163.5 67.5q95 0 162.5 -67.5t67.5 -162.5q0 -65 -39 -129l-221 -359h-63zM451 488q0 74 -48.5 125.5t-122.5 51.5t-123 -51.5t-49 -125.5t49 -126t123 -52q73 0 122 52t49 126z" />
    <glyph glyph-name="colon" unicode=":" horiz-adv-x="244" 
d="M63 447q0 25 17 43t42 18t42 -18t17 -43q0 -24 -17.5 -41.5t-41.5 -17.5t-41.5 17.5t-17.5 41.5zM63 51q0 25 17 43t42 18t42 -18t17 -43q0 -24 -17.5 -41.5t-41.5 -17.5t-41.5 17.5t-17.5 41.5z" />
    <glyph glyph-name="semicolon" unicode=";" horiz-adv-x="244" 
d="M63 447q0 25 17 43t42 18t42 -18t17 -43q0 -24 -17.5 -41.5t-41.5 -17.5t-41.5 17.5t-17.5 41.5zM116 0h-42v103h96v-104l-54 -137h-44z" />
    <glyph glyph-name="less" unicode="&#x3c;" horiz-adv-x="481" 
d="M70 262l289 271l36 -39l-248 -232l248 -232l-36 -38z" />
    <glyph glyph-name="equal" unicode="=" horiz-adv-x="673" 
d="M112 408h449v-54h-449v54zM112 187h449v-54h-449v54z" />
    <glyph glyph-name="greater" unicode="&#x3e;" horiz-adv-x="481" 
d="M86 30l249 232l-249 232l36 39l289 -271l-289 -270z" />
    <glyph glyph-name="question" unicode="?" horiz-adv-x="456" 
d="M163 361h55q70 0 114 42.5t44 108.5t-42.5 109.5t-105.5 43.5q-64 0 -106 -43.5t-42 -109.5h-59q0 87 60 146.5t146 59.5q85 0 145.5 -60t60.5 -146q0 -87 -62 -146.5t-155 -59.5h-53v55zM279 51q0 37 -32 54h-54q-32 -17 -32 -54q0 -24 17.5 -41.5t41.5 -17.5t41.5 17.5
t17.5 41.5z" />
    <glyph glyph-name="at" unicode="@" horiz-adv-x="811" 
d="M207 337q0 91 63.5 154.5t156.5 63.5q63 0 109 -39l7 30h54l-52 -252q-16 -79 51 -79q51 0 85.5 51t34.5 142q0 116 -80 188.5t-205 72.5q-139 0 -237 -92t-98 -240q0 -130 78 -211.5t216 -81.5q110 0 188 42l21 -50q-97 -44 -209 -44q-158 0 -253.5 98.5t-95.5 246.5
q0 110 55.5 198.5t144.5 135.5t191 47q145 0 241.5 -86t96.5 -226q0 -120 -55.5 -181.5t-125.5 -61.5q-31 0 -56.5 13.5t-36.5 35.5q-51 -48 -126 -48q-69 0 -116 50t-47 123zM482 262l42 194q-30 48 -101 48q-67 0 -114 -45t-47 -119q0 -58 31.5 -91.5t87.5 -33.5
q65 0 101 47z" />
    <glyph glyph-name="A" unicode="A" horiz-adv-x="705" 
d="M352 718l343 -718h-65l-104 217h-348l-103 -217h-65zM206 276h292l-146 307z" />
    <glyph glyph-name="B" unicode="B" horiz-adv-x="613" 
d="M102 710h217q99 0 155.5 -52t56.5 -125q0 -110 -86 -156q59 -17 96 -63t37 -119q0 -95 -70.5 -145t-192.5 -50h-213v710zM328 396q66 0 103.5 36t37.5 92q0 55 -38 92t-103 37h-164v-257h164zM342 57q85 0 129.5 38.5t44.5 102.5t-44 103.5t-129 39.5h-179v-284h178z" />
    <glyph glyph-name="C" unicode="C" horiz-adv-x="667" 
d="M41 355q0 154 105 258.5t258 104.5q131 0 225 -77l-34 -50q-81 68 -191 68q-128 0 -213.5 -87.5t-85.5 -216.5t85.5 -216.5t213.5 -87.5q109 0 192 68l33 -50q-94 -77 -225 -77q-153 0 -258 104.5t-105 258.5z" />
    <glyph glyph-name="D" unicode="D" horiz-adv-x="725" 
d="M102 710h197q169 0 277 -100t108 -255t-108 -255t-277 -100h-197v710zM299 59q144 0 232.5 83t88.5 213t-88.5 213t-232.5 83h-135v-592h135z" />
    <glyph glyph-name="E" unicode="E" horiz-adv-x="555" 
d="M102 710h398v-59h-336v-255h276v-60h-276v-277h336v-59h-398v710z" />
    <glyph glyph-name="F" unicode="F" horiz-adv-x="494" 
d="M102 710h384v-59h-322v-255h252v-60h-252v-336h-62v710z" />
    <glyph glyph-name="G" unicode="G" horiz-adv-x="729" 
d="M41 355q0 154 105 258.5t258 104.5q135 0 235 -76l-35 -50q-83 67 -200 67q-128 0 -213.5 -87.5t-85.5 -216.5t85.5 -216.5t213.5 -87.5q105 0 182 43v242h-206l27 60h241v-335q-106 -69 -244 -69q-153 0 -258 104.5t-105 258.5z" />
    <glyph glyph-name="H" unicode="H" horiz-adv-x="765" 
d="M102 710h62v-314h437v314h62v-710h-62v336h-437v-336h-62v710z" />
    <glyph glyph-name="I" unicode="I" horiz-adv-x="266" 
d="M102 710h62v-710h-62v710z" />
    <glyph glyph-name="J" unicode="J" horiz-adv-x="494" 
d="M10 187h62q0 -66 37.5 -100t95.5 -36q62 0 98.5 34.5t36.5 101.5v523h62v-533q0 -88 -55 -136.5t-141 -48.5q-85 0 -140.5 53t-55.5 142z" />
    <glyph glyph-name="K" unicode="K" horiz-adv-x="636" 
d="M102 710h62v-355l352 355h80l-358 -362l385 -348h-87l-372 338v-338h-62v710z" />
    <glyph glyph-name="L" unicode="L" horiz-adv-x="501" 
d="M102 710h62v-651h327v-59h-389v710z" />
    <glyph glyph-name="M" unicode="M" horiz-adv-x="888" 
d="M102 718l342 -391l342 391v-718h-62v560l-280 -322l-280 322v-560h-62v718z" />
    <glyph glyph-name="N" unicode="N" horiz-adv-x="795" 
d="M164 565v-565h-62v718l529 -573v565h62v-718z" />
    <glyph glyph-name="O" unicode="O" horiz-adv-x="808" 
d="M41 355q0 154 105 258.5t258 104.5t258 -104.5t105 -258.5t-105 -258.5t-258 -104.5t-258 104.5t-105 258.5zM703 355q0 129 -85.5 216.5t-213.5 87.5t-213.5 -87.5t-85.5 -216.5t85.5 -216.5t213.5 -87.5t213.5 87.5t85.5 216.5z" />
    <glyph glyph-name="P" unicode="P" horiz-adv-x="554" 
d="M102 710h186q116 0 181 -54t65 -153q0 -97 -65.5 -152t-180.5 -55h-124v-296h-62v710zM288 353q181 0 181 150q0 73 -45.5 112t-135.5 39h-124v-301h124z" />
    <glyph glyph-name="Q" unicode="Q" horiz-adv-x="808" 
d="M641 77q-101 -85 -237 -85q-153 0 -258 104.5t-105 258.5t105 258.5t258 104.5t258 -104.5t105 -258.5q0 -136 -84 -236l86 -85l-42 -42zM598 120l-88 89l42 42l87 -88q64 83 64 192q0 129 -85.5 216.5t-213.5 87.5t-213.5 -87.5t-85.5 -216.5t85.5 -216.5t213.5 -87.5
q112 0 194 69z" />
    <glyph glyph-name="R" unicode="R" horiz-adv-x="628" 
d="M256 321h-92v-321h-62v710h188q109 0 170 -51.5t61 -143.5q0 -82 -51 -133t-142 -60l269 -322h-77zM288 378q84 0 126 35.5t42 101.5q0 137 -168 137h-124v-274h124z" />
    <glyph glyph-name="S" unicode="S" horiz-adv-x="524" 
d="M28 91l47 43q68 -83 173 -83q73 0 117.5 33.5t44.5 88.5q0 56 -31.5 89t-98.5 63l-75 32q-80 34 -115.5 81t-35.5 113q0 73 61 120t141 47q122 0 198 -90l-46 -43q-62 74 -155 74q-58 0 -97.5 -30.5t-39.5 -81.5q0 -45 25 -76.5t85 -56.5l75 -32q81 -35 126.5 -82
t45.5 -118q0 -84 -60.5 -137t-164.5 -53q-68 0 -127 29.5t-93 69.5z" />
    <glyph glyph-name="T" unicode="T" horiz-adv-x="505" 
d="M221 651h-201v59h465v-59h-202v-651h-62v651z" />
    <glyph glyph-name="U" unicode="U" horiz-adv-x="743" 
d="M93 263v447h62v-450q0 -102 58 -155.5t158 -53.5t158.5 53.5t58.5 155.5v450h62v-447q0 -127 -76.5 -199t-202.5 -72q-125 0 -201.5 72t-76.5 199z" />
    <glyph glyph-name="V" unicode="V" horiz-adv-x="675" 
d="M15 710h65l257 -579l257 579h65l-322 -718z" />
    <glyph glyph-name="W" unicode="W" horiz-adv-x="916" 
d="M22 710h64l178 -549l194 557l194 -557l178 549h64l-241 -718l-195 565l-195 -565z" />
    <glyph glyph-name="X" unicode="X" horiz-adv-x="670" 
d="M300 365l-255 345h70l220 -298l221 298h70l-255 -345l269 -365h-72l-233 317l-232 -317h-72z" />
    <glyph glyph-name="Y" unicode="Y" 
d="M279 302l-259 408h71l220 -350l219 350h70l-259 -408v-302h-62v302z" />
    <glyph glyph-name="Z" unicode="Z" horiz-adv-x="605" 
d="M456 651h-381v59h488l-425 -651h435v-59h-542z" />
    <glyph glyph-name="bracketleft" unicode="[" horiz-adv-x="280" 
d="M83 733h167v-55h-110v-756h110v-55h-167v866z" />
    <glyph glyph-name="backslash" unicode="\" horiz-adv-x="406" 
d="M0 710h57l349 -710h-57z" />
    <glyph glyph-name="bracketright" unicode="]" horiz-adv-x="280" 
d="M197 733h-167v-55h110v-756h-110v-55h167v866z" />
    <glyph glyph-name="asciicircum" unicode="^" horiz-adv-x="634" 
d="M317 711l269 -387h-63l-206 294l-206 -294h-63z" />
    <glyph glyph-name="underscore" unicode="_" horiz-adv-x="419" 
d="M0 0h419v-55h-419v55z" />
    <glyph glyph-name="grave" unicode="`" horiz-adv-x="213" 
d="M30 710h81l91 -165h-54z" />
    <glyph glyph-name="a" unicode="a" horiz-adv-x="638" 
d="M489 68q-72 -76 -184 -76q-110 0 -182 75t-72 183t72 183t182 75q113 0 184 -77v69h57v-500h-57v68zM489 145v211q-26 44 -73.5 71.5t-110.5 27.5q-85 0 -140 -59.5t-55 -145.5t55 -145.5t140 -59.5q64 0 111.5 27.5t72.5 72.5z" />
    <glyph glyph-name="b" unicode="b" horiz-adv-x="639" 
d="M92 710h57v-280q72 78 185 78q110 0 182 -75t72 -183t-72 -183t-182 -75q-114 0 -185 77v-69h-57v710zM149 354v-209q25 -44 73 -72t112 -28q85 0 140 59.5t55 145.5t-55 145.5t-140 59.5q-64 0 -112 -28t-73 -73z" />
    <glyph glyph-name="c" unicode="c" horiz-adv-x="537" 
d="M51 250q0 108 72.5 183t181.5 75q113 0 191 -74l-36 -41q-66 62 -155 62q-84 0 -139.5 -60t-55.5 -145t55.5 -145t139.5 -60q89 0 155 62l36 -41q-78 -74 -191 -74q-109 0 -181.5 75t-72.5 183z" />
    <glyph glyph-name="d" unicode="d" horiz-adv-x="638" 
d="M489 68q-72 -76 -184 -76q-110 0 -182 75t-72 183t72 183t182 75q113 0 184 -77v279h57v-710h-57v68zM489 145v211q-26 44 -73.5 71.5t-110.5 27.5q-85 0 -140 -59.5t-55 -145.5t55 -145.5t140 -59.5q64 0 111.5 27.5t72.5 72.5z" />
    <glyph glyph-name="e" unicode="e" horiz-adv-x="578" 
d="M51 250q0 107 71.5 182.5t172.5 75.5q103 0 168.5 -66t68.5 -193h-422q0 -85 55.5 -144.5t139.5 -59.5q92 0 156 61l36 -40q-80 -74 -192 -74q-110 0 -182 75t-72 183zM114 300h355q-8 74 -57 114.5t-119 40.5q-65 0 -115.5 -43t-63.5 -112z" />
    <glyph glyph-name="f" unicode="f" horiz-adv-x="354" 
d="M23 500h91q-40 34 -40 90q0 53 41 86.5t108 33.5h101v-54h-104q-38 0 -63 -19t-25 -55q0 -39 24.5 -60.5t57.5 -21.5h110v-55h-146v-445h-57v445h-98v55z" />
    <glyph glyph-name="g" unicode="g" horiz-adv-x="626" 
d="M85 -134l30 48q33 -24 84 -39.5t103 -15.5q80 0 135.5 36.5t55.5 111.5q0 49 -15 78q-70 -76 -181 -76q-109 0 -177.5 72t-68.5 177q0 106 68.5 178t177.5 72q108 0 180 -75v67h57v-397q18 -50 18 -97q0 -52 -22 -92t-59.5 -63t-81.5 -34t-94 -11q-122 0 -210 60z
M477 159v199q-24 44 -70.5 70.5t-109.5 26.5q-84 0 -135.5 -56t-51.5 -141q0 -83 51.5 -139.5t135.5 -56.5q63 0 109.5 27t70.5 70z" />
    <glyph glyph-name="h" unicode="h" horiz-adv-x="585" 
d="M92 710h57v-282q53 80 172 80q80 0 131.5 -52t51.5 -140v-316h-57v308q0 70 -38.5 108.5t-102.5 38.5q-62 0 -102 -33.5t-55 -89.5v-332h-57v710z" />
    <glyph glyph-name="i" unicode="i" horiz-adv-x="239" 
d="M70 668q0 20 15 35t35 15t35 -15t15 -35q0 -26 -22 -41h-56q-22 15 -22 41zM91 500h57v-500h-57v500z" />
    <glyph glyph-name="j" unicode="j" horiz-adv-x="239" 
d="M70 668q0 20 15 35t35 15t35 -15t15 -35q0 -26 -22 -41h-56q-22 15 -22 41zM-15 -129h34q40 0 56 19t16 62v548h57v-541q0 -74 -29.5 -108.5t-100.5 -34.5h-33v55z" />
    <glyph glyph-name="k" unicode="k" horiz-adv-x="505" 
d="M92 710h57v-438l249 228h75l-258 -237l281 -263h-79l-268 250v-250h-57v710z" />
    <glyph glyph-name="l" unicode="l" horiz-adv-x="241" 
d="M92 710h57v-710h-57v710z" />
    <glyph glyph-name="m" unicode="m" horiz-adv-x="881" 
d="M743 308q0 69 -35.5 108t-93.5 39q-54 0 -90 -32.5t-50 -88.5q1 -6 1 -18v-316h-57v308q0 69 -36 108t-94 39q-51 0 -87.5 -29.5t-51.5 -78.5v-347h-57v500h57v-65q54 73 154 73q48 0 87.5 -24t61.5 -68q57 92 170 92q80 0 129 -51.5t49 -140.5v-316h-57v308z" />
    <glyph glyph-name="n" unicode="n" horiz-adv-x="585" 
d="M92 500h57v-72q53 80 172 80q80 0 131.5 -52t51.5 -140v-316h-57v308q0 70 -38.5 108.5t-102.5 38.5q-62 0 -102 -33.5t-55 -89.5v-332h-57v500z" />
    <glyph glyph-name="o" unicode="o" 
d="M51 250q0 108 73.5 183t185.5 75t185.5 -75t73.5 -183t-73.5 -183t-185.5 -75t-185.5 75t-73.5 183zM510 250q0 86 -55.5 145.5t-144.5 59.5q-88 0 -144 -59.5t-56 -145.5t56 -145.5t144 -59.5q89 0 144.5 59.5t55.5 145.5z" />
    <glyph glyph-name="p" unicode="p" horiz-adv-x="639" 
d="M92 500h57v-70q72 78 185 78q110 0 182 -75t72 -183t-72 -183t-182 -75q-114 0 -185 77v-253h-57v684zM149 354v-209q25 -44 73 -72t112 -28q85 0 140 59.5t55 145.5t-55 145.5t-140 59.5q-64 0 -112 -28t-73 -73z" />
    <glyph glyph-name="q" unicode="q" horiz-adv-x="638" 
d="M489 68q-72 -76 -184 -76q-110 0 -182 75t-72 183t72 183t182 75q113 0 184 -77v69h57v-684h-57v252zM489 145v211q-26 44 -73.5 71.5t-110.5 27.5q-85 0 -140 -59.5t-55 -145.5t55 -145.5t140 -59.5q64 0 111.5 27.5t72.5 72.5z" />
    <glyph glyph-name="r" unicode="r" horiz-adv-x="356" 
d="M92 500h57v-76q53 79 150 79q17 0 33 -3v-59q-22 5 -39 5q-49 0 -88.5 -28t-55.5 -76v-342h-57v500z" />
    <glyph glyph-name="s" unicode="s" horiz-adv-x="425" 
d="M38 90l49 30q42 -75 122 -75q48 0 80 22.5t32 59.5t-22.5 59t-76.5 41l-46 16q-115 41 -115 142q0 52 42.5 87.5t108.5 35.5q48 0 85.5 -24t56.5 -68l-49 -21q-25 60 -95 60q-38 0 -64 -19t-26 -52q0 -32 17.5 -54.5t65.5 -39.5l49 -17q127 -45 127 -145q0 -56 -47 -96
t-126 -40q-55 0 -100.5 26t-67.5 72z" />
    <glyph glyph-name="t" unicode="t" horiz-adv-x="356" 
d="M5 500h100v122l57 28v-150h149l-13 -55h-136v-311q0 -42 18 -60.5t63 -18.5h61v-55h-62q-69 0 -103 31t-34 101v313h-87z" />
    <glyph glyph-name="u" unicode="u" horiz-adv-x="567" 
d="M418 70q-55 -78 -171 -78q-81 0 -132.5 52t-51.5 140v316h57v-308q0 -70 39 -108.5t103 -38.5q61 0 101.5 33.5t54.5 88.5v333h57v-500h-57v70z" />
    <glyph glyph-name="v" unicode="v" horiz-adv-x="527" 
d="M10 500h64l190 -388l189 388h64l-253 -508z" />
    <glyph glyph-name="w" unicode="w" horiz-adv-x="721" 
d="M30 500h59l126 -400l146 408l145 -408l126 400h59l-159 -500h-41l-130 359l-128 -359h-43z" />
    <glyph glyph-name="x" unicode="x" horiz-adv-x="539" 
d="M236 255l-191 245h67l158 -201l158 201h67l-191 -245l201 -255h-67l-168 213l-168 -213h-67z" />
    <glyph glyph-name="y" unicode="y" horiz-adv-x="509" 
d="M224 55l-214 445h64l180 -389l181 389h64l-329 -684h-61z" />
    <glyph glyph-name="z" unicode="z" horiz-adv-x="505" 
d="M355 445h-290v55h393l-321 -445h315v-55h-417z" />
    <glyph glyph-name="braceleft" unicode="{" horiz-adv-x="283" 
d="M98 10v183q0 44 -11.5 61.5t-48.5 17.5h-18v55h18q37 0 48.5 17.5t11.5 61.5v184q0 76 25.5 109.5t95.5 33.5h33v-55h-33q-39 0 -51 -18t-12 -63v-182q0 -50 -9.5 -74.5t-40.5 -40.5q31 -17 40.5 -41.5t9.5 -74.5v-181q0 -45 12 -63t51 -18h33v-55h-33q-70 0 -95.5 33.5
t-25.5 109.5z" />
    <glyph glyph-name="bar" unicode="|" horiz-adv-x="222" 
d="M83 710h57v-894h-57v894z" />
    <glyph glyph-name="braceright" unicode="}" horiz-adv-x="283" 
d="M185 10v183q0 44 11.5 61.5t48.5 17.5h18v55h-18q-37 0 -48.5 17.5t-11.5 61.5v184q0 76 -25.5 109.5t-95.5 33.5h-33v-55h33q39 0 51 -18t12 -63v-182q0 -50 9.5 -74.5t40.5 -40.5q-31 -17 -40.5 -41.5t-9.5 -74.5v-181q0 -45 -12 -63t-51 -18h-33v-55h33
q70 0 95.5 33.5t25.5 109.5z" />
    <glyph glyph-name="asciitilde" unicode="~" horiz-adv-x="643" 
d="M112 267l108 73l198 -76l113 74v-60l-109 -76l-198 76l-112 -76v65z" />
    <glyph glyph-name="uni00A0" unicode="&#xa0;" horiz-adv-x="255" 
 />
    <glyph glyph-name="exclamdown" unicode="&#xa1;" horiz-adv-x="233" 
d="M59 451q0 24 17 40.5t41 16.5q23 0 40 -19.5t17 -43.5q0 -35 -30 -50h-56q-13 7 -21 23.5t-8 32.5zM87 86l11 211h36l10 -211v-270h-57v270z" />
    <glyph glyph-name="cent" unicode="&#xa2;" horiz-adv-x="537" 
d="M283 -7q-101 8 -166.5 81.5t-65.5 175.5t65.5 175.5t166.5 81.5v81h42v-81q101 -7 171 -73l-36 -41q-66 62 -155 62q-84 0 -139.5 -60t-55.5 -145t55.5 -145t139.5 -60q89 0 155 62l36 -41q-70 -66 -171 -73v-81h-42v81z" />
    <glyph glyph-name="sterling" unicode="&#xa3;" horiz-adv-x="611" 
d="M82 365h105q-69 61 -69 153q0 86 57 143t147 57t148 -59.5t58 -145.5h-59q0 64 -40.5 108t-106.5 44q-65 0 -106 -42t-41 -105q0 -64 41 -108.5t106 -44.5h84v-54h-166v-256h324v-55h-482v55h100v256h-100v54z" />
    <glyph glyph-name="currency" unicode="&#xa4;" horiz-adv-x="602" 
d="M40 135l69 70q-47 61 -47 141t46 143l-68 69l43 42l68 -67q65 52 147 52q86 0 151 -54l70 69l43 -42l-70 -72q45 -63 45 -140t-46 -139l71 -72l-43 -43l-71 70q-65 -52 -150 -52q-81 0 -146 50l-69 -68zM480 346q0 80 -51.5 134t-131.5 54q-76 0 -125.5 -54t-49.5 -134
q0 -78 49.5 -130.5t125.5 -52.5q80 0 131.5 52.5t51.5 130.5z" />
    <glyph glyph-name="yen" unicode="&#xa5;" 
d="M130 318h141l-249 392h66l222 -350l221 350h66l-249 -392h142v-55h-152v-75h152v-55h-152v-133h-57v133h-151v55h151v75h-151v55z" />
    <glyph glyph-name="brokenbar" unicode="&#xa6;" horiz-adv-x="222" 
d="M83 710h57v-383h-57v383zM83 200h57v-384h-57v384z" />
    <glyph glyph-name="section" unicode="&#xa7;" horiz-adv-x="568" 
d="M89 -88l49 29q43 -82 123 -82q47 0 79.5 27t32.5 68q0 73 -91 106l-29 8q-80 20 -124 72t-44 130q0 59 34.5 110t88.5 70l-14 9q-63 45 -63 124q0 57 42.5 96t108.5 39q48 0 85.5 -26.5t56.5 -73.5l-48 -18q-27 65 -96 65q-38 0 -64 -23t-26 -60q0 -63 53 -95
q24 -12 48 -16q192 -34 192 -201q0 -63 -33 -112.5t-92 -74.5l15 -10q58 -44 58 -118q0 -61 -47 -105t-126 -44q-111 0 -169 106zM424 270q0 63 -39 104t-101 41q-61 0 -101 -41t-40 -104q0 -65 40 -109.5t101 -44.5t100.5 44.5t39.5 109.5z" />
    <glyph glyph-name="dieresis" unicode="&#xa8;" horiz-adv-x="341" 
d="M9 632q0 22 15 37t37 15t37 -15t15 -37t-15 -37t-37 -15t-37 15t-15 37zM229 632q0 22 15 37t37 15t37 -15t15 -37t-15 -37t-37 -15t-37 15t-15 37z" />
    <glyph glyph-name="copyright" unicode="&#xa9;" horiz-adv-x="808" 
d="M41 355q0 150 107 256.5t256 106.5q150 0 256.5 -106.5t106.5 -256.5t-106.5 -256.5t-256.5 -106.5q-149 0 -256 106.5t-107 256.5zM710 355q0 127 -90 217t-217 90q-126 0 -216 -90t-90 -217q0 -126 90 -216t216 -90q127 0 217 90t90 216zM207 355q0 90 60.5 151.5
t153.5 61.5q97 0 159 -73l-38 -33q-45 57 -121 57q-69 0 -114.5 -47.5t-45.5 -116.5q0 -68 45.5 -114.5t114.5 -46.5q73 0 118 53l37 -36q-64 -67 -155 -67q-93 0 -153.5 61.5t-60.5 149.5z" />
    <glyph glyph-name="ordfeminine" unicode="&#xaa;" horiz-adv-x="375" 
d="M279 442q-42 -37 -99 -37q-66 0 -109.5 44.5t-43.5 110.5t43.5 110.5t109.5 44.5q57 0 99 -37v32h47v-300h-47v32zM279 500v120q-32 51 -98 51q-46 0 -75.5 -32t-29.5 -79t29.5 -79t75.5 -32q66 0 98 51z" />
    <glyph glyph-name="guillemotleft" unicode="&#xab;" horiz-adv-x="466" 
d="M31 250l147 213l46 -30l-126 -183l126 -183l-46 -30zM221 250l147 213l46 -30l-126 -183l126 -183l-46 -30z" />
    <glyph glyph-name="logicalnot" unicode="&#xac;" horiz-adv-x="664" 
d="M495 243h-383v55h440v-244h-57v189z" />
    <glyph glyph-name="uni00AD" unicode="&#xad;" horiz-adv-x="329" 
d="M51 303h227v-65h-227v65z" />
    <glyph glyph-name="registered" unicode="&#xae;" horiz-adv-x="808" 
d="M41 355q0 150 107 256.5t256 106.5q150 0 256.5 -106.5t106.5 -256.5t-106.5 -256.5t-256.5 -106.5q-149 0 -256 106.5t-107 256.5zM710 355q0 127 -90 217t-217 90q-126 0 -216 -90t-90 -217q0 -126 90 -216t216 -90q127 0 217 90t90 216zM398 328h-64v-181h-55v418h151
q59 0 95 -33.5t36 -84.5q0 -45 -27.5 -77t-74.5 -40l134 -183h-65zM427 381q37 0 56.5 18t19.5 46t-19.5 46t-56.5 18h-93v-128h93z" />
    <glyph glyph-name="macron" unicode="&#xaf;" horiz-adv-x="322" 
d="M22 680h278v-51h-278v51z" />
    <glyph glyph-name="degree" unicode="&#xb0;" horiz-adv-x="388" 
d="M72 592q0 50 36 86t86 36t86 -36t36 -86t-36 -86t-86 -36t-86 36t-36 86zM267 592q0 30 -21.5 51.5t-51.5 21.5t-51.5 -21.5t-21.5 -51.5t21.5 -51.5t51.5 -21.5t51.5 21.5t21.5 51.5z" />
    <glyph glyph-name="plusminus" unicode="&#xb1;" horiz-adv-x="664" 
d="M112 347h191v153h58v-153h191v-55h-191v-159h-58v159h-191v55zM112 55h440v-55h-440v55z" />
    <glyph glyph-name="uni00B2" unicode="&#xb2;" horiz-adv-x="327" 
d="M186 592q-14 -3 -26 -3q-53 1 -88 37.5t-35 87.5q0 53 37 90t90 37q54 0 91 -37t37 -90q0 -38 -17.5 -71.5t-59.5 -79.5l-100 -109h178v-44h-277zM246 714q0 36 -23.5 60t-58.5 24t-57.5 -24t-22.5 -60t22.5 -59.5t57.5 -23.5t58.5 23.5t23.5 59.5z" />
    <glyph glyph-name="uni00B3" unicode="&#xb3;" horiz-adv-x="312" 
d="M20 472l37 27q11 -22 34 -36.5t50 -14.5q42 0 69 27t27 69q0 43 -27 70.5t-72 27.5h-37l89 150h-153v44h226l-91 -155q52 -9 82.5 -47t30.5 -90q0 -58 -40 -98.5t-103 -40.5q-37 0 -70.5 18.5t-51.5 48.5z" />
    <glyph glyph-name="acute" unicode="&#xb4;" horiz-adv-x="213" 
d="M102 710h81l-118 -165h-54z" />
    <glyph glyph-name="uni00B5" unicode="&#xb5;" horiz-adv-x="596" 
d="M447 70q-55 -78 -171 -78q-78 0 -127 46v-222h-57v684h57v-308q0 -70 39 -108.5t103 -38.5q61 0 101.5 33.5t54.5 88.5v333h57v-500h-57v70z" />
    <glyph glyph-name="paragraph" unicode="&#xb6;" horiz-adv-x="634" 
d="M290 260q-93 0 -159 66t-66 159t66 159t159 66h232v-894h-57v839h-118v-839h-57v444z" />
    <glyph glyph-name="periodcentered" unicode="&#xb7;" horiz-adv-x="244" 
d="M63 266q0 25 17 43t42 18t42 -18t17 -43q0 -24 -17.5 -41.5t-41.5 -17.5t-41.5 17.5t-17.5 41.5z" />
    <glyph glyph-name="cedilla" unicode="&#xb8;" horiz-adv-x="126" 
d="M61 0h40l-52 -137h-74z" />
    <glyph glyph-name="uni00B9" unicode="&#xb9;" horiz-adv-x="176" 
d="M65 798l47 52v-440h-47v388z" />
    <glyph glyph-name="ordmasculine" unicode="&#xba;" horiz-adv-x="365" 
d="M27 560q0 65 44.5 110t111.5 45t111 -45t44 -110t-44 -110t-111 -45t-111.5 45t-44.5 110zM290 560q0 47 -30 79t-77 32t-77 -32t-30 -79t30 -79t77 -32t77 32t30 79z" />
    <glyph glyph-name="guillemotright" unicode="&#xbb;" horiz-adv-x="466" 
d="M243 250l-147 213l-46 -30l126 -183l-126 -183l46 -30zM433 250l-147 213l-46 -30l126 -183l-126 -183l46 -30z" />
    <glyph glyph-name="onequarter" unicode="&#xbc;" horiz-adv-x="734" 
d="M78 677l47 47v-440h-47v393zM88 0l500 710h-50l-500 -710h50zM621 120h-243l290 320v-277h57v-43h-57v-120h-47v120zM621 163v161l-146 -161h146z" />
    <glyph glyph-name="onehalf" unicode="&#xbd;" horiz-adv-x="760" 
d="M78 677l47 47v-440h-47v393zM88 0l500 710h-50l-500 -710h50zM599 182q-13 -3 -26 -3q-53 1 -88 37.5t-35 87.5q0 53 37 90t90 37q54 0 91 -37t37 -90q0 -38 -17.5 -71.5t-59.5 -79.5l-100 -109h178v-44h-277zM659 304q0 36 -23.5 60t-58.5 24t-57.5 -24t-22.5 -60
t22.5 -59.5t57.5 -23.5t58.5 23.5t23.5 59.5z" />
    <glyph glyph-name="threequarters" unicode="&#xbe;" horiz-adv-x="839" 
d="M40 346l37 27q11 -22 34 -36.5t50 -14.5q42 0 69 27t27 69q0 43 -27 70.5t-72 27.5h-37l89 150h-153v44h226l-91 -155q52 -9 82.5 -47t30.5 -90q0 -58 -40 -98.5t-103 -40.5q-37 0 -70.5 18.5t-51.5 48.5zM193 0l500 710h-50l-500 -710h50zM726 120h-243l290 320v-277h57
v-43h-57v-120h-47v120zM726 163v161l-146 -161h146z" />
    <glyph glyph-name="questiondown" unicode="&#xbf;" horiz-adv-x="456" 
d="M263 395q32 17 32 54q0 24 -17.5 41.5t-41.5 17.5t-41.5 -17.5t-17.5 -41.5q0 -37 32 -54h54zM23 12q0 87 62 146.5t155 59.5h53v-55h-55q-70 0 -114 -42.5t-44 -108.5t42.5 -109.5t105.5 -43.5q64 0 106 43.5t42 109.5h59q0 -87 -60 -146.5t-146 -59.5q-85 0 -145.5 60
t-60.5 146z" />
    <glyph glyph-name="Agrave" unicode="&#xc0;" horiz-adv-x="705" 
d="M216 913h82l82 -145h-56zM352 718l343 -718h-65l-104 217h-348l-103 -217h-65zM206 276h292l-146 307z" />
    <glyph glyph-name="Aacute" unicode="&#xc1;" horiz-adv-x="705" 
d="M408 913h82l-109 -145h-55zM352 718l343 -718h-65l-104 217h-348l-103 -217h-65zM206 276h292l-146 307z" />
    <glyph glyph-name="Acircumflex" unicode="&#xc2;" horiz-adv-x="705" 
d="M180 816l172 112l173 -111l-32 -44l-141 93l-141 -93zM352 718l343 -718h-65l-104 217h-348l-103 -217h-65zM206 276h292l-146 307z" />
    <glyph glyph-name="Atilde" unicode="&#xc3;" horiz-adv-x="705" 
d="M287 837q-37 0 -48 -46h-55l3 14q9 40 37.5 63.5t62.5 23.5q30 0 71 -23.5t57 -23.5q39 0 50 45h55l-3 -14q-8 -39 -35.5 -63t-63.5 -24q-30 0 -72.5 24t-58.5 24zM352 718l343 -718h-65l-104 217h-348l-103 -217h-65zM206 276h292l-146 307z" />
    <glyph glyph-name="Adieresis" unicode="&#xc4;" horiz-adv-x="705" 
d="M190 843q0 22 15 37t37 15t37 -15t15 -37t-15 -37t-37 -15t-37 15t-15 37zM410 843q0 22 15 37t37 15t37 -15t15 -37t-15 -37t-37 -15t-37 15t-15 37zM352 718l343 -718h-65l-104 217h-348l-103 -217h-65zM206 276h292l-146 307z" />
    <glyph glyph-name="Aring" unicode="&#xc5;" horiz-adv-x="705" 
d="M262 836q0 37 26 61t63 24q38 0 64.5 -24t26.5 -61t-26 -61t-65 -24q-37 0 -63 24.5t-26 60.5zM401 836q0 21 -14.5 35t-35.5 14q-20 0 -34.5 -14t-14.5 -35t14.5 -34.5t34.5 -13.5q21 0 35.5 13.5t14.5 34.5zM352 718l343 -718h-65l-104 217h-348l-103 -217h-65z
M206 276h292l-146 307z" />
    <glyph glyph-name="AE" unicode="&#xc6;" horiz-adv-x="1041" 
d="M320 650l-29 60h401l28 -59h-336l122 -255h297l29 -60h-298l133 -277h336l28 -59h-401l-104 217h-348l-103 -217h-65zM206 276h292l-146 307z" />
    <glyph glyph-name="Ccedilla" unicode="&#xc7;" horiz-adv-x="667" 
d="M365 -6q-140 14 -232 115.5t-92 245.5q0 154 105 258.5t258 104.5q131 0 225 -77l-34 -50q-81 68 -191 68q-128 0 -213.5 -87.5t-85.5 -216.5t85.5 -216.5t213.5 -87.5q109 0 192 68l33 -50q-88 -72 -212 -77l-37 -129h-83z" />
    <glyph glyph-name="Egrave" unicode="&#xc8;" horiz-adv-x="555" 
d="M192 913h82l82 -145h-56zM102 710h398v-59h-336v-255h276v-60h-276v-277h336v-59h-398v710z" />
    <glyph glyph-name="Eacute" unicode="&#xc9;" horiz-adv-x="555" 
d="M329 913h82l-109 -145h-55zM102 710h398v-59h-336v-255h276v-60h-276v-277h336v-59h-398v710z" />
    <glyph glyph-name="Ecircumflex" unicode="&#xca;" horiz-adv-x="555" 
d="M129 816l172 112l173 -111l-32 -44l-141 93l-141 -93zM102 710h398v-59h-336v-255h276v-60h-276v-277h336v-59h-398v710z" />
    <glyph glyph-name="Edieresis" unicode="&#xcb;" horiz-adv-x="555" 
d="M139 843q0 22 15 37t37 15t37 -15t15 -37t-15 -37t-37 -15t-37 15t-15 37zM359 843q0 22 15 37t37 15t37 -15t15 -37t-15 -37t-37 -15t-37 15t-15 37zM102 710h398v-59h-336v-255h276v-60h-276v-277h336v-59h-398v710z" />
    <glyph glyph-name="Igrave" unicode="&#xcc;" horiz-adv-x="266" 
d="M26 913h82l82 -145h-56zM102 710h62v-710h-62v710z" />
    <glyph glyph-name="Iacute" unicode="&#xcd;" horiz-adv-x="266" 
d="M158 913h82l-109 -145h-55zM102 710h62v-710h-62v710z" />
    <glyph glyph-name="Icircumflex" unicode="&#xce;" horiz-adv-x="266" 
d="M-39 816l172 112l173 -111l-32 -44l-141 93l-141 -93zM102 710h62v-710h-62v710z" />
    <glyph glyph-name="Idieresis" unicode="&#xcf;" horiz-adv-x="266" 
d="M-29 843q0 22 15 37t37 15t37 -15t15 -37t-15 -37t-37 -15t-37 15t-15 37zM191 843q0 22 15 37t37 15t37 -15t15 -37t-15 -37t-37 -15t-37 15t-15 37zM102 710h62v-710h-62v710z" />
    <glyph glyph-name="Eth" unicode="&#xd0;" horiz-adv-x="740" 
d="M13 400h104v310h197q169 0 277 -100t108 -255t-108 -255t-277 -100h-197v342h-104v58zM314 59q144 0 232.5 83t88.5 213t-88.5 213t-232.5 83h-135v-251h140v-58h-140v-283h135z" />
    <glyph glyph-name="Ntilde" unicode="&#xd1;" horiz-adv-x="795" 
d="M332 837q-37 0 -48 -46h-55l3 14q9 40 37.5 63.5t62.5 23.5q30 0 71 -23.5t57 -23.5q39 0 50 45h55l-3 -14q-8 -39 -35.5 -63t-63.5 -24q-30 0 -72.5 24t-58.5 24zM164 565v-565h-62v718l529 -573v565h62v-718z" />
    <glyph glyph-name="Ograve" unicode="&#xd2;" horiz-adv-x="808" 
d="M295 913h82l82 -145h-56zM41 355q0 154 105 258.5t258 104.5t258 -104.5t105 -258.5t-105 -258.5t-258 -104.5t-258 104.5t-105 258.5zM703 355q0 129 -85.5 216.5t-213.5 87.5t-213.5 -87.5t-85.5 -216.5t85.5 -216.5t213.5 -87.5t213.5 87.5t85.5 216.5z" />
    <glyph glyph-name="Oacute" unicode="&#xd3;" horiz-adv-x="808" 
d="M429 913h82l-109 -145h-55zM41 355q0 154 105 258.5t258 104.5t258 -104.5t105 -258.5t-105 -258.5t-258 -104.5t-258 104.5t-105 258.5zM703 355q0 129 -85.5 216.5t-213.5 87.5t-213.5 -87.5t-85.5 -216.5t85.5 -216.5t213.5 -87.5t213.5 87.5t85.5 216.5z" />
    <glyph glyph-name="Ocircumflex" unicode="&#xd4;" horiz-adv-x="808" 
d="M232 816l172 112l173 -111l-32 -44l-141 93l-141 -93zM41 355q0 154 105 258.5t258 104.5t258 -104.5t105 -258.5t-105 -258.5t-258 -104.5t-258 104.5t-105 258.5zM703 355q0 129 -85.5 216.5t-213.5 87.5t-213.5 -87.5t-85.5 -216.5t85.5 -216.5t213.5 -87.5
t213.5 87.5t85.5 216.5z" />
    <glyph glyph-name="Otilde" unicode="&#xd5;" horiz-adv-x="808" 
d="M339 837q-37 0 -48 -46h-55l3 14q9 40 37.5 63.5t62.5 23.5q30 0 71 -23.5t57 -23.5q39 0 50 45h55l-3 -14q-8 -39 -35.5 -63t-63.5 -24q-30 0 -72.5 24t-58.5 24zM41 355q0 154 105 258.5t258 104.5t258 -104.5t105 -258.5t-105 -258.5t-258 -104.5t-258 104.5
t-105 258.5zM703 355q0 129 -85.5 216.5t-213.5 87.5t-213.5 -87.5t-85.5 -216.5t85.5 -216.5t213.5 -87.5t213.5 87.5t85.5 216.5z" />
    <glyph glyph-name="Odieresis" unicode="&#xd6;" horiz-adv-x="808" 
d="M242 843q0 22 15 37t37 15t37 -15t15 -37t-15 -37t-37 -15t-37 15t-15 37zM462 843q0 22 15 37t37 15t37 -15t15 -37t-15 -37t-37 -15t-37 15t-15 37zM41 355q0 154 105 258.5t258 104.5t258 -104.5t105 -258.5t-105 -258.5t-258 -104.5t-258 104.5t-105 258.5zM703 355
q0 129 -85.5 216.5t-213.5 87.5t-213.5 -87.5t-85.5 -216.5t85.5 -216.5t213.5 -87.5t213.5 87.5t85.5 216.5z" />
    <glyph glyph-name="multiply" unicode="&#xd7;" horiz-adv-x="591" 
d="M112 124l146 146l-146 146l37 37l146 -146l146 146l37 -37l-146 -146l147 -146l-38 -38l-146 146l-146 -146z" />
    <glyph glyph-name="Oslash" unicode="&#xd8;" horiz-adv-x="808" 
d="M87 20l62 73q-108 105 -108 262q0 154 105 258.5t258 104.5q120 0 216 -69l69 81l38 -34l-68 -80q108 -105 108 -261q0 -154 -105 -258.5t-258 -104.5q-121 0 -216 68l-63 -74zM189 140l392 463q-78 56 -177 56q-128 0 -213.5 -87.5t-85.5 -216.5q0 -128 84 -215z
M703 355q0 127 -84 214l-392 -462q76 -56 177 -56q128 0 213.5 87.5t85.5 216.5z" />
    <glyph glyph-name="Ugrave" unicode="&#xd9;" horiz-adv-x="743" 
d="M262 913h82l82 -145h-56zM93 263v447h62v-450q0 -102 58 -155.5t158 -53.5t158.5 53.5t58.5 155.5v450h62v-447q0 -127 -76.5 -199t-202.5 -72q-125 0 -201.5 72t-76.5 199z" />
    <glyph glyph-name="Uacute" unicode="&#xda;" horiz-adv-x="743" 
d="M399 913h82l-109 -145h-55zM93 263v447h62v-450q0 -102 58 -155.5t158 -53.5t158.5 53.5t58.5 155.5v450h62v-447q0 -127 -76.5 -199t-202.5 -72q-125 0 -201.5 72t-76.5 199z" />
    <glyph glyph-name="Ucircumflex" unicode="&#xdb;" horiz-adv-x="743" 
d="M199 816l172 112l173 -111l-32 -44l-141 93l-141 -93zM93 263v447h62v-450q0 -102 58 -155.5t158 -53.5t158.5 53.5t58.5 155.5v450h62v-447q0 -127 -76.5 -199t-202.5 -72q-125 0 -201.5 72t-76.5 199z" />
    <glyph glyph-name="Udieresis" unicode="&#xdc;" horiz-adv-x="743" 
d="M209 843q0 22 15 37t37 15t37 -15t15 -37t-15 -37t-37 -15t-37 15t-15 37zM429 843q0 22 15 37t37 15t37 -15t15 -37t-15 -37t-37 -15t-37 15t-15 37zM93 263v447h62v-450q0 -102 58 -155.5t158 -53.5t158.5 53.5t58.5 155.5v450h62v-447q0 -127 -76.5 -199t-202.5 -72
q-125 0 -201.5 72t-76.5 199z" />
    <glyph glyph-name="Yacute" unicode="&#xdd;" 
d="M358 913h82l-109 -145h-55zM279 302l-259 408h71l220 -350l219 350h70l-259 -408v-302h-62v302z" />
    <glyph glyph-name="Thorn" unicode="&#xde;" horiz-adv-x="554" 
d="M102 710h62v-146h116q119 0 186.5 -55t67.5 -152t-67.5 -151.5t-186.5 -54.5h-116v-151h-62v710zM280 207q93 0 141 38.5t48 111.5t-48 112t-141 39h-116v-301h116z" />
    <glyph glyph-name="germandbls" unicode="&#xdf;" horiz-adv-x="524" 
d="M83 578q0 70 34 101t103 31h27v-55h-26q-45 0 -63 -18.5t-18 -60.5v-76h315l-161 -259q99 -9 152 -66.5t53 -146.5q0 -91 -67 -151.5t-170 -60.5h-31v53h32q76 0 126.5 42.5t50.5 116.5q0 78 -48.5 120t-130.5 42h-59l159 255h-221v-445h-57v578z" />
    <glyph glyph-name="agrave" unicode="&#xe0;" horiz-adv-x="638" 
d="M184 710h81l91 -165h-54zM489 68q-72 -76 -184 -76q-110 0 -182 75t-72 183t72 183t182 75q113 0 184 -77v69h57v-500h-57v68zM489 145v211q-26 44 -73.5 71.5t-110.5 27.5q-85 0 -140 -59.5t-55 -145.5t55 -145.5t140 -59.5q64 0 111.5 27.5t72.5 72.5z" />
    <glyph glyph-name="aacute" unicode="&#xe1;" horiz-adv-x="638" 
d="M369 710h81l-118 -165h-54zM489 68q-72 -76 -184 -76q-110 0 -182 75t-72 183t72 183t182 75q113 0 184 -77v69h57v-500h-57v68zM489 145v211q-26 44 -73.5 71.5t-110.5 27.5q-85 0 -140 -59.5t-55 -145.5t55 -145.5t140 -59.5q64 0 111.5 27.5t72.5 72.5z" />
    <glyph glyph-name="acircumflex" unicode="&#xe2;" horiz-adv-x="638" 
d="M152 606l167 112l166 -111l-27 -44l-139 95l-140 -95zM489 68q-72 -76 -184 -76q-110 0 -182 75t-72 183t72 183t182 75q113 0 184 -77v69h57v-500h-57v68zM489 145v211q-26 44 -73.5 71.5t-110.5 27.5q-85 0 -140 -59.5t-55 -145.5t55 -145.5t140 -59.5q64 0 111.5 27.5
t72.5 72.5z" />
    <glyph glyph-name="atilde" unicode="&#xe3;" horiz-adv-x="638" 
d="M156 585q9 41 36 63.5t61 22.5q30 0 71 -23.5t57 -23.5q39 0 50 47h52l-3 -14q-8 -38 -34 -61.5t-62 -23.5q-30 0 -72.5 23.5t-58.5 23.5q-37 0 -48 -47h-52zM489 68q-72 -76 -184 -76q-110 0 -182 75t-72 183t72 183t182 75q113 0 184 -77v69h57v-500h-57v68zM489 145
v211q-26 44 -73.5 71.5t-110.5 27.5q-85 0 -140 -59.5t-55 -145.5t55 -145.5t140 -59.5q64 0 111.5 27.5t72.5 72.5z" />
    <glyph glyph-name="adieresis" unicode="&#xe4;" horiz-adv-x="638" 
d="M162 632q0 22 15 37t37 15t37 -15t15 -37t-15 -37t-37 -15t-37 15t-15 37zM382 632q0 22 15 37t37 15t37 -15t15 -37t-15 -37t-37 -15t-37 15t-15 37zM489 68q-72 -76 -184 -76q-110 0 -182 75t-72 183t72 183t182 75q113 0 184 -77v69h57v-500h-57v68zM489 145v211
q-26 44 -73.5 71.5t-110.5 27.5q-85 0 -140 -59.5t-55 -145.5t55 -145.5t140 -59.5q64 0 111.5 27.5t72.5 72.5z" />
    <glyph glyph-name="aring" unicode="&#xe5;" horiz-adv-x="638" 
d="M213 664q0 38 27 64.5t65 26.5t65 -27t27 -64t-27 -64t-65 -27t-65 26.5t-27 64.5zM358 664q0 22 -15.5 38t-37.5 16t-38 -16t-16 -38t16 -38t38 -16t37.5 16t15.5 38zM489 68q-72 -76 -184 -76q-110 0 -182 75t-72 183t72 183t182 75q113 0 184 -77v69h57v-500h-57v68z
M489 145v211q-26 44 -73.5 71.5t-110.5 27.5q-85 0 -140 -59.5t-55 -145.5t55 -145.5t140 -59.5q64 0 111.5 27.5t72.5 72.5z" />
    <glyph glyph-name="ae" unicode="&#xe6;" horiz-adv-x="943" 
d="M458 104q-88 -112 -223 -112q-92 0 -143 45.5t-51 120.5q0 72 55.5 118.5t148.5 46.5q97 0 170 -41v35q0 138 -150 138q-92 0 -156 -61l-36 40q76 74 192 74q67 0 120 -28t74 -84q34 52 86.5 82t114.5 30q103 0 168.5 -66t68.5 -193h-422q0 -85 55.5 -144.5t139.5 -59.5
q92 0 156 61l36 -40q-80 -74 -192 -74q-68 0 -123 30t-89 82zM479 300h355q-8 74 -57 114.5t-119 40.5q-65 0 -115.5 -43t-63.5 -112zM415 141v78q-68 52 -168 52q-63 0 -105 -30t-42 -83t39 -83t97 -30q63 0 108.5 26t70.5 70z" />
    <glyph glyph-name="ccedilla" unicode="&#xe7;" horiz-adv-x="537" 
d="M285 -7q-102 7 -168 80.5t-66 176.5q0 108 72.5 183t181.5 75q113 0 191 -74l-36 -41q-66 62 -155 62q-84 0 -139.5 -60t-55.5 -145t55.5 -145t139.5 -60q89 0 155 62l36 -41q-67 -65 -169 -73l-49 -130h-74z" />
    <glyph glyph-name="egrave" unicode="&#xe8;" horiz-adv-x="578" 
d="M177 710h81l91 -165h-54zM51 250q0 107 71.5 182.5t172.5 75.5q103 0 168.5 -66t68.5 -193h-422q0 -85 55.5 -144.5t139.5 -59.5q92 0 156 61l36 -40q-80 -74 -192 -74q-110 0 -182 75t-72 183zM114 300h355q-8 74 -57 114.5t-119 40.5q-65 0 -115.5 -43t-63.5 -112z" />
    <glyph glyph-name="eacute" unicode="&#xe9;" horiz-adv-x="578" 
d="M339 710h81l-118 -165h-54zM51 250q0 107 71.5 182.5t172.5 75.5q103 0 168.5 -66t68.5 -193h-422q0 -85 55.5 -144.5t139.5 -59.5q92 0 156 61l36 -40q-80 -74 -192 -74q-110 0 -182 75t-72 183zM114 300h355q-8 74 -57 114.5t-119 40.5q-65 0 -115.5 -43t-63.5 -112z
" />
    <glyph glyph-name="ecircumflex" unicode="&#xea;" horiz-adv-x="578" 
d="M129 606l167 112l166 -111l-27 -44l-139 95l-140 -95zM51 250q0 107 71.5 182.5t172.5 75.5q103 0 168.5 -66t68.5 -193h-422q0 -85 55.5 -144.5t139.5 -59.5q92 0 156 61l36 -40q-80 -74 -192 -74q-110 0 -182 75t-72 183zM114 300h355q-8 74 -57 114.5t-119 40.5
q-65 0 -115.5 -43t-63.5 -112z" />
    <glyph glyph-name="edieresis" unicode="&#xeb;" horiz-adv-x="578" 
d="M134 632q0 22 15 37t37 15t37 -15t15 -37t-15 -37t-37 -15t-37 15t-15 37zM354 632q0 22 15 37t37 15t37 -15t15 -37t-15 -37t-37 -15t-37 15t-15 37zM51 250q0 107 71.5 182.5t172.5 75.5q103 0 168.5 -66t68.5 -193h-422q0 -85 55.5 -144.5t139.5 -59.5q92 0 156 61
l36 -40q-80 -74 -192 -74q-110 0 -182 75t-72 183zM114 300h355q-8 74 -57 114.5t-119 40.5q-65 0 -115.5 -43t-63.5 -112z" />
    <glyph glyph-name="igrave" unicode="&#xec;" horiz-adv-x="239" 
d="M5 710h81l91 -165h-54zM91 500h57v-500h-57v500z" />
    <glyph glyph-name="iacute" unicode="&#xed;" horiz-adv-x="239" 
d="M152 710h81l-118 -165h-54zM91 500h57v-500h-57v500z" />
    <glyph glyph-name="icircumflex" unicode="&#xee;" horiz-adv-x="239" 
d="M-49 606l167 112l166 -111l-27 -44l-139 95l-140 -95zM91 500h57v-500h-57v500z" />
    <glyph glyph-name="idieresis" unicode="&#xef;" horiz-adv-x="239" 
d="M-42 632q0 22 15 37t37 15t37 -15t15 -37t-15 -37t-37 -15t-37 15t-15 37zM178 632q0 22 15 37t37 15t37 -15t15 -37t-15 -37t-37 -15t-37 15t-15 37zM91 500h57v-500h-57v500z" />
    <glyph glyph-name="eth" unicode="&#xf0;" 
d="M209 627h91l-58 83h62l58 -83h135v-55h-96l113 -159q55 -77 55 -163q0 -108 -73.5 -183t-185.5 -75t-185.5 75t-73.5 183t73.5 183t185.5 75q44 0 84 -14l-55 78h-130v55zM510 250q0 86 -55.5 145.5t-144.5 59.5q-87 0 -143 -59.5t-56 -145.5t56 -145.5t143 -59.5
q89 0 144.5 59.5t55.5 145.5z" />
    <glyph glyph-name="ntilde" unicode="&#xf1;" horiz-adv-x="585" 
d="M136 585q9 41 36 63.5t61 22.5q30 0 71 -23.5t57 -23.5q39 0 50 47h52l-3 -14q-8 -38 -34 -61.5t-62 -23.5q-30 0 -72.5 23.5t-58.5 23.5q-37 0 -48 -47h-52zM92 500h57v-72q53 80 172 80q80 0 131.5 -52t51.5 -140v-316h-57v308q0 70 -38.5 108.5t-102.5 38.5
q-62 0 -102 -33.5t-55 -89.5v-332h-57v500z" />
    <glyph glyph-name="ograve" unicode="&#xf2;" 
d="M186 710h81l91 -165h-54zM51 250q0 108 73.5 183t185.5 75t185.5 -75t73.5 -183t-73.5 -183t-185.5 -75t-185.5 75t-73.5 183zM510 250q0 86 -55.5 145.5t-144.5 59.5q-88 0 -144 -59.5t-56 -145.5t56 -145.5t144 -59.5q89 0 144.5 59.5t55.5 145.5z" />
    <glyph glyph-name="oacute" unicode="&#xf3;" 
d="M363 710h81l-118 -165h-54zM51 250q0 108 73.5 183t185.5 75t185.5 -75t73.5 -183t-73.5 -183t-185.5 -75t-185.5 75t-73.5 183zM510 250q0 86 -55.5 145.5t-144.5 59.5q-88 0 -144 -59.5t-56 -145.5t56 -145.5t144 -59.5q89 0 144.5 59.5t55.5 145.5z" />
    <glyph glyph-name="ocircumflex" unicode="&#xf4;" 
d="M143 606l167 112l166 -111l-27 -44l-139 95l-140 -95zM51 250q0 108 73.5 183t185.5 75t185.5 -75t73.5 -183t-73.5 -183t-185.5 -75t-185.5 75t-73.5 183zM510 250q0 86 -55.5 145.5t-144.5 59.5q-88 0 -144 -59.5t-56 -145.5t56 -145.5t144 -59.5q89 0 144.5 59.5
t55.5 145.5z" />
    <glyph glyph-name="otilde" unicode="&#xf5;" 
d="M148 585q9 41 36 63.5t61 22.5q30 0 71 -23.5t57 -23.5q39 0 50 47h52l-3 -14q-8 -38 -34 -61.5t-62 -23.5q-30 0 -72.5 23.5t-58.5 23.5q-37 0 -48 -47h-52zM51 250q0 108 73.5 183t185.5 75t185.5 -75t73.5 -183t-73.5 -183t-185.5 -75t-185.5 75t-73.5 183zM510 250
q0 86 -55.5 145.5t-144.5 59.5q-88 0 -144 -59.5t-56 -145.5t56 -145.5t144 -59.5q89 0 144.5 59.5t55.5 145.5z" />
    <glyph glyph-name="odieresis" unicode="&#xf6;" 
d="M148 632q0 22 15 37t37 15t37 -15t15 -37t-15 -37t-37 -15t-37 15t-15 37zM368 632q0 22 15 37t37 15t37 -15t15 -37t-15 -37t-37 -15t-37 15t-15 37zM51 250q0 108 73.5 183t185.5 75t185.5 -75t73.5 -183t-73.5 -183t-185.5 -75t-185.5 75t-73.5 183zM510 250
q0 86 -55.5 145.5t-144.5 59.5q-88 0 -144 -59.5t-56 -145.5t56 -145.5t144 -59.5q89 0 144.5 59.5t55.5 145.5z" />
    <glyph glyph-name="divide" unicode="&#xf7;" horiz-adv-x="664" 
d="M391 410q0 25 -17.5 42.5t-41.5 17.5q-25 0 -42.5 -17.5t-17.5 -42.5t17.5 -42.5t42.5 -17.5q24 0 41.5 17.5t17.5 42.5zM112 298h440v-55h-440v55zM391 131q0 25 -17.5 42.5t-41.5 17.5q-25 0 -42.5 -17.5t-17.5 -42.5t17.5 -42.5t42.5 -17.5q24 0 41.5 17.5t17.5 42.5z
" />
    <glyph glyph-name="oslash" unicode="&#xf8;" 
d="M51 23l58 60q-58 71 -58 167q0 108 73.5 183t185.5 75q91 0 160 -53l56 57l37 -35l-56 -58q62 -72 62 -169q0 -108 -73.5 -183t-185.5 -75q-95 0 -163 55l-58 -60zM149 124l283 291q-53 40 -122 40q-88 0 -144 -59.5t-56 -145.5q0 -71 39 -126zM510 250q0 73 -42 129
l-283 -292q53 -42 125 -42q89 0 144.5 59.5t55.5 145.5z" />
    <glyph glyph-name="ugrave" unicode="&#xf9;" horiz-adv-x="567" 
d="M145 710h81l91 -165h-54zM418 70q-55 -78 -171 -78q-81 0 -132.5 52t-51.5 140v316h57v-308q0 -70 39 -108.5t103 -38.5q61 0 101.5 33.5t54.5 88.5v333h57v-500h-57v70z" />
    <glyph glyph-name="uacute" unicode="&#xfa;" horiz-adv-x="567" 
d="M312 710h81l-118 -165h-54zM418 70q-55 -78 -171 -78q-81 0 -132.5 52t-51.5 140v316h57v-308q0 -70 39 -108.5t103 -38.5q61 0 101.5 33.5t54.5 88.5v333h57v-500h-57v70z" />
    <glyph glyph-name="ucircumflex" unicode="&#xfb;" horiz-adv-x="567" 
d="M102 606l167 112l166 -111l-27 -44l-139 95l-140 -95zM418 70q-55 -78 -171 -78q-81 0 -132.5 52t-51.5 140v316h57v-308q0 -70 39 -108.5t103 -38.5q61 0 101.5 33.5t54.5 88.5v333h57v-500h-57v70z" />
    <glyph glyph-name="udieresis" unicode="&#xfc;" horiz-adv-x="567" 
d="M107 632q0 22 15 37t37 15t37 -15t15 -37t-15 -37t-37 -15t-37 15t-15 37zM327 632q0 22 15 37t37 15t37 -15t15 -37t-15 -37t-37 -15t-37 15t-15 37zM418 70q-55 -78 -171 -78q-81 0 -132.5 52t-51.5 140v316h57v-308q0 -70 39 -108.5t103 -38.5q61 0 101.5 33.5
t54.5 88.5v333h57v-500h-57v70z" />
    <glyph glyph-name="yacute" unicode="&#xfd;" horiz-adv-x="509" 
d="M318 710h81l-118 -165h-54zM224 55l-214 445h64l180 -389l181 389h64l-329 -684h-61z" />
    <glyph glyph-name="thorn" unicode="&#xfe;" horiz-adv-x="639" 
d="M92 710h57v-280q72 78 185 78q110 0 182 -75t72 -183t-72 -183t-182 -75q-114 0 -185 77v-253h-57v894zM149 354v-209q25 -44 73 -72t112 -28q85 0 140 59.5t55 145.5t-55 145.5t-140 59.5q-64 0 -112 -28t-73 -73z" />
    <glyph glyph-name="ydieresis" unicode="&#xff;" horiz-adv-x="509" 
d="M92 632q0 22 15 37t37 15t37 -15t15 -37t-15 -37t-37 -15t-37 15t-15 37zM312 632q0 22 15 37t37 15t37 -15t15 -37t-15 -37t-37 -15t-37 15t-15 37zM224 55l-214 445h64l180 -389l181 389h64l-329 -684h-61z" />
    <glyph glyph-name="Amacron" unicode="&#x100;" horiz-adv-x="705" 
d="M213 859h278v-50h-278v50zM352 718l343 -718h-65l-104 217h-348l-103 -217h-65zM206 276h292l-146 307z" />
    <glyph glyph-name="amacron" unicode="&#x101;" horiz-adv-x="638" 
d="M183 680h278v-51h-278v51zM489 68q-72 -76 -184 -76q-110 0 -182 75t-72 183t72 183t182 75q113 0 184 -77v69h57v-500h-57v68zM489 145v211q-26 44 -73.5 71.5t-110.5 27.5q-85 0 -140 -59.5t-55 -145.5t55 -145.5t140 -59.5q64 0 111.5 27.5t72.5 72.5z" />
    <glyph glyph-name="Abreve" unicode="&#x102;" horiz-adv-x="705" 
d="M206 900h53q4 -31 28 -52.5t65 -21.5q42 0 66.5 21.5t28.5 52.5h53q-6 -52 -44 -85.5t-105 -33.5q-63 0 -101.5 34t-43.5 85zM352 718l343 -718h-65l-104 217h-348l-103 -217h-65zM206 276h292l-146 307z" />
    <glyph glyph-name="abreve" unicode="&#x103;" horiz-adv-x="638" 
d="M159 710h53q4 -31 28 -52.5t65 -21.5q42 0 66.5 21.5t28.5 52.5h53q-6 -52 -44 -85.5t-105 -33.5q-64 0 -102 33.5t-43 85.5zM489 68q-72 -76 -184 -76q-110 0 -182 75t-72 183t72 183t182 75q113 0 184 -77v69h57v-500h-57v68zM489 145v211q-26 44 -73.5 71.5
t-110.5 27.5q-85 0 -140 -59.5t-55 -145.5t55 -145.5t140 -59.5q64 0 111.5 27.5t72.5 72.5z" />
    <glyph glyph-name="Aogonek" unicode="&#x104;" horiz-adv-x="705" 
d="M536 -104q0 33 28.5 62.5t66.5 41.5h-1l-104 217h-348l-103 -217h-65l342 718l343 -718h-2q-43 -19 -67 -44t-24 -48q0 -19 14.5 -32.5t42.5 -13.5q21 0 36 5v-49q-24 -7 -54 -7q-43 0 -74 22.5t-31 62.5zM206 276h292l-146 307z" />
    <glyph glyph-name="aogonek" unicode="&#x105;" horiz-adv-x="645" 
d="M394 -94q0 32 27.5 57t67.5 37v68q-72 -76 -184 -76q-110 0 -182 75t-72 183t72 183t182 75q113 0 184 -77v69h57v-500q-86 -38 -86 -82q0 -18 14.5 -29.5t42.5 -11.5q21 0 36 5v-49q-24 -7 -54 -7q-44 0 -74.5 20t-30.5 60zM489 145v211q-26 44 -73.5 71.5t-110.5 27.5
q-85 0 -140 -59.5t-55 -145.5t55 -145.5t140 -59.5q64 0 111.5 27.5t72.5 72.5z" />
    <glyph glyph-name="Cacute" unicode="&#x106;" horiz-adv-x="667" 
d="M433 913h82l-109 -145h-55zM41 355q0 154 105 258.5t258 104.5q131 0 225 -77l-34 -50q-81 68 -191 68q-128 0 -213.5 -87.5t-85.5 -216.5t85.5 -216.5t213.5 -87.5q109 0 192 68l33 -50q-94 -77 -225 -77q-153 0 -258 104.5t-105 258.5z" />
    <glyph glyph-name="cacute" unicode="&#x107;" horiz-adv-x="537" 
d="M342 710h81l-118 -165h-54zM51 250q0 108 72.5 183t181.5 75q113 0 191 -74l-36 -41q-66 62 -155 62q-84 0 -139.5 -60t-55.5 -145t55.5 -145t139.5 -60q89 0 155 62l36 -41q-78 -74 -191 -74q-109 0 -181.5 75t-72.5 183z" />
    <glyph glyph-name="Ccircumflex" unicode="&#x108;" horiz-adv-x="667" 
d="M233 816l172 112l173 -111l-32 -44l-141 93l-141 -93zM41 355q0 154 105 258.5t258 104.5q131 0 225 -77l-34 -50q-81 68 -191 68q-128 0 -213.5 -87.5t-85.5 -216.5t85.5 -216.5t213.5 -87.5q109 0 192 68l33 -50q-94 -77 -225 -77q-153 0 -258 104.5t-105 258.5z" />
    <glyph glyph-name="ccircumflex" unicode="&#x109;" horiz-adv-x="537" 
d="M137 606l167 112l166 -111l-27 -44l-139 95l-140 -95zM51 250q0 108 72.5 183t181.5 75q113 0 191 -74l-36 -41q-66 62 -155 62q-84 0 -139.5 -60t-55.5 -145t55.5 -145t139.5 -60q89 0 155 62l36 -41q-78 -74 -191 -74q-109 0 -181.5 75t-72.5 183z" />
    <glyph glyph-name="Cdotaccent" unicode="&#x10a;" horiz-adv-x="667" 
d="M352 843q0 22 15 37t37 15t37 -15t15 -37t-15 -37t-37 -15t-37 15t-15 37zM41 355q0 154 105 258.5t258 104.5q131 0 225 -77l-34 -50q-81 68 -191 68q-128 0 -213.5 -87.5t-85.5 -216.5t85.5 -216.5t213.5 -87.5q109 0 192 68l33 -50q-94 -77 -225 -77
q-153 0 -258 104.5t-105 258.5z" />
    <glyph glyph-name="cdotaccent" unicode="&#x10b;" horiz-adv-x="537" 
d="M253 632q0 22 15 37t37 15t37 -15t15 -37t-15 -37t-37 -15t-37 15t-15 37zM51 250q0 108 72.5 183t181.5 75q113 0 191 -74l-36 -41q-66 62 -155 62q-84 0 -139.5 -60t-55.5 -145t55.5 -145t139.5 -60q89 0 155 62l36 -41q-78 -74 -191 -74q-109 0 -181.5 75t-72.5 183z
" />
    <glyph glyph-name="Ccaron" unicode="&#x10c;" horiz-adv-x="667" 
d="M233 883l31 43l141 -93l141 93l32 -44l-173 -111zM41 355q0 154 105 258.5t258 104.5q131 0 225 -77l-34 -50q-81 68 -191 68q-128 0 -213.5 -87.5t-85.5 -216.5t85.5 -216.5t213.5 -87.5q109 0 192 68l33 -50q-94 -77 -225 -77q-153 0 -258 104.5t-105 258.5z" />
    <glyph glyph-name="ccaron" unicode="&#x10d;" horiz-adv-x="537" 
d="M471 696l-27 44l-139 -95l-140 95l-27 -43l167 -112zM51 250q0 108 72.5 183t181.5 75q113 0 191 -74l-36 -41q-66 62 -155 62q-84 0 -139.5 -60t-55.5 -145t55.5 -145t139.5 -60q89 0 155 62l36 -41q-78 -74 -191 -74q-109 0 -181.5 75t-72.5 183z" />
    <glyph glyph-name="Dcaron" unicode="&#x10e;" horiz-adv-x="725" 
d="M161 883l31 43l141 -93l141 93l32 -44l-173 -111zM102 710h197q169 0 277 -100t108 -255t-108 -255t-277 -100h-197v710zM299 59q144 0 232.5 83t88.5 213t-88.5 213t-232.5 83h-135v-592h135z" />
    <glyph glyph-name="dcaron" unicode="&#x10f;" horiz-adv-x="638" 
d="M489 68q-72 -76 -184 -76q-110 0 -182 75t-72 183t72 183t182 75q113 0 184 -77v279h57v-710h-57v68zM641 710h58l-42 -167h-41zM489 145v211q-26 44 -73.5 71.5t-110.5 27.5q-85 0 -140 -59.5t-55 -145.5t55 -145.5t140 -59.5q64 0 111.5 27.5t72.5 72.5z" />
    <glyph glyph-name="Dcroat" unicode="&#x110;" horiz-adv-x="740" 
d="M13 400h104v310h197q169 0 277 -100t108 -255t-108 -255t-277 -100h-197v342h-104v58zM314 59q144 0 232.5 83t88.5 213t-88.5 213t-232.5 83h-135v-251h140v-58h-140v-283h135z" />
    <glyph glyph-name="dcroat" unicode="&#x111;" horiz-adv-x="638" 
d="M313 638h176v72h57v-72h73v-54h-73v-584h-57v68q-72 -76 -184 -76q-110 0 -182 75t-72 183t72 183t182 75q113 0 184 -77v153h-176v54zM489 145v211q-26 44 -73.5 71.5t-110.5 27.5q-85 0 -140 -59.5t-55 -145.5t55 -145.5t140 -59.5q64 0 111.5 27.5t72.5 72.5z" />
    <glyph glyph-name="Emacron" unicode="&#x112;" horiz-adv-x="555" 
d="M162 859h278v-50h-278v50zM102 710h398v-59h-336v-255h276v-60h-276v-277h336v-59h-398v710z" />
    <glyph glyph-name="emacron" unicode="&#x113;" horiz-adv-x="578" 
d="M156 680h278v-51h-278v51zM51 250q0 107 71.5 182.5t172.5 75.5q103 0 168.5 -66t68.5 -193h-422q0 -85 55.5 -144.5t139.5 -59.5q92 0 156 61l36 -40q-80 -74 -192 -74q-110 0 -182 75t-72 183zM114 300h355q-8 74 -57 114.5t-119 40.5q-65 0 -115.5 -43t-63.5 -112z
" />
    <glyph glyph-name="Ebreve" unicode="&#x114;" horiz-adv-x="555" 
d="M154 900h53q4 -31 28 -52.5t65 -21.5q42 0 66.5 21.5t28.5 52.5h53q-6 -52 -44 -85.5t-105 -33.5q-63 0 -101.5 34t-43.5 85zM102 710h398v-59h-336v-255h276v-60h-276v-277h336v-59h-398v710z" />
    <glyph glyph-name="ebreve" unicode="&#x115;" horiz-adv-x="578" 
d="M151 710h53q4 -31 28 -52.5t65 -21.5q42 0 66.5 21.5t28.5 52.5h53q-6 -52 -44 -85.5t-105 -33.5q-64 0 -102 33.5t-43 85.5zM51 250q0 107 71.5 182.5t172.5 75.5q103 0 168.5 -66t68.5 -193h-422q0 -85 55.5 -144.5t139.5 -59.5q92 0 156 61l36 -40q-80 -74 -192 -74
q-110 0 -182 75t-72 183zM114 300h355q-8 74 -57 114.5t-119 40.5q-65 0 -115.5 -43t-63.5 -112z" />
    <glyph glyph-name="Edotaccent" unicode="&#x116;" horiz-adv-x="555" 
d="M250 844q0 22 15 37t37 15t37 -15t15 -37t-15 -37t-37 -15t-37 15t-15 37zM102 710h398v-59h-336v-255h276v-60h-276v-277h336v-59h-398v710z" />
    <glyph glyph-name="edotaccent" unicode="&#x117;" horiz-adv-x="578" 
d="M246 632q0 22 15 37t37 15t37 -15t15 -37t-15 -37t-37 -15t-37 15t-15 37zM51 250q0 107 71.5 182.5t172.5 75.5q103 0 168.5 -66t68.5 -193h-422q0 -85 55.5 -144.5t139.5 -59.5q92 0 156 61l36 -40q-80 -74 -192 -74q-110 0 -182 75t-72 183zM114 300h355
q-8 74 -57 114.5t-119 40.5q-65 0 -115.5 -43t-63.5 -112z" />
    <glyph glyph-name="Eogonek" unicode="&#x118;" horiz-adv-x="557" 
d="M102 710h398v-59h-336v-255h276v-60h-276v-277h336v-59q-43 -19 -67 -44t-24 -48q0 -19 14.5 -32.5t42.5 -13.5q21 0 36 5v-49q-24 -7 -54 -7q-43 0 -74 22.5t-31 62.5q0 33 28.5 62.5t66.5 41.5h-336v710z" />
    <glyph glyph-name="eogonek" unicode="&#x119;" horiz-adv-x="578" 
d="M212 -94q0 54 75 87q-103 6 -169.5 80t-66.5 177q0 107 71.5 182.5t172.5 75.5q103 0 168.5 -66t68.5 -193h-422q0 -85 55.5 -144.5t139.5 -59.5q92 0 156 61l36 -40q-59 -53 -133 -68q-86 -38 -86 -80q0 -18 14.5 -29.5t42.5 -11.5q21 0 36 5v-49q-24 -7 -54 -7
q-44 0 -74.5 20t-30.5 60zM114 300h355q-8 74 -57 114.5t-119 40.5q-65 0 -115.5 -43t-63.5 -112z" />
    <glyph glyph-name="Ecaron" unicode="&#x11a;" horiz-adv-x="555" 
d="M129 883l31 43l141 -93l141 93l32 -44l-173 -111zM102 710h398v-59h-336v-255h276v-60h-276v-277h336v-59h-398v710z" />
    <glyph glyph-name="ecaron" unicode="&#x11b;" horiz-adv-x="578" 
d="M462 696l-27 44l-139 -95l-140 95l-27 -43l167 -112zM51 250q0 107 71.5 182.5t172.5 75.5q103 0 168.5 -66t68.5 -193h-422q0 -85 55.5 -144.5t139.5 -59.5q92 0 156 61l36 -40q-80 -74 -192 -74q-110 0 -182 75t-72 183zM114 300h355q-8 74 -57 114.5t-119 40.5
q-65 0 -115.5 -43t-63.5 -112z" />
    <glyph glyph-name="Gcircumflex" unicode="&#x11c;" horiz-adv-x="729" 
d="M232 816l172 112l173 -111l-32 -44l-141 93l-141 -93zM41 355q0 154 105 258.5t258 104.5q135 0 235 -76l-35 -50q-83 67 -200 67q-128 0 -213.5 -87.5t-85.5 -216.5t85.5 -216.5t213.5 -87.5q105 0 182 43v242h-206l27 60h241v-335q-106 -69 -244 -69q-153 0 -258 104.5
t-105 258.5z" />
    <glyph glyph-name="gcircumflex" unicode="&#x11d;" horiz-adv-x="626" 
d="M131 606l167 112l166 -111l-27 -44l-139 95l-140 -95zM85 -134l30 48q33 -24 84 -39.5t103 -15.5q80 0 135.5 36.5t55.5 111.5q0 49 -15 78q-70 -76 -181 -76q-109 0 -177.5 72t-68.5 177q0 106 68.5 178t177.5 72q108 0 180 -75v67h57v-397q18 -50 18 -97q0 -52 -22 -92
t-59.5 -63t-81.5 -34t-94 -11q-122 0 -210 60zM477 159v199q-24 44 -70.5 70.5t-109.5 26.5q-84 0 -135.5 -56t-51.5 -141q0 -83 51.5 -139.5t135.5 -56.5q63 0 109.5 27t70.5 70z" />
    <glyph glyph-name="Gbreve" unicode="&#x11e;" horiz-adv-x="729" 
d="M257 900h53q4 -31 28 -52.5t65 -21.5q42 0 66.5 21.5t28.5 52.5h53q-6 -52 -44 -85.5t-105 -33.5q-63 0 -101.5 34t-43.5 85zM41 355q0 154 105 258.5t258 104.5q135 0 235 -76l-35 -50q-83 67 -200 67q-128 0 -213.5 -87.5t-85.5 -216.5t85.5 -216.5t213.5 -87.5
q105 0 182 43v242h-206l27 60h241v-335q-106 -69 -244 -69q-153 0 -258 104.5t-105 258.5z" />
    <glyph glyph-name="gbreve" unicode="&#x11f;" horiz-adv-x="626" 
d="M153 710h53q4 -31 28 -52.5t65 -21.5q42 0 66.5 21.5t28.5 52.5h53q-6 -52 -44 -85.5t-105 -33.5q-64 0 -102 33.5t-43 85.5zM85 -134l30 48q33 -24 84 -39.5t103 -15.5q80 0 135.5 36.5t55.5 111.5q0 49 -15 78q-70 -76 -181 -76q-109 0 -177.5 72t-68.5 177
q0 106 68.5 178t177.5 72q108 0 180 -75v67h57v-397q18 -50 18 -97q0 -52 -22 -92t-59.5 -63t-81.5 -34t-94 -11q-122 0 -210 60zM477 159v199q-24 44 -70.5 70.5t-109.5 26.5q-84 0 -135.5 -56t-51.5 -141q0 -83 51.5 -139.5t135.5 -56.5q63 0 109.5 27t70.5 70z" />
    <glyph glyph-name="Gdotaccent" unicode="&#x120;" horiz-adv-x="729" 
d="M353 843q0 22 15 37t37 15t37 -15t15 -37t-15 -37t-37 -15t-37 15t-15 37zM41 355q0 154 105 258.5t258 104.5q135 0 235 -76l-35 -50q-83 67 -200 67q-128 0 -213.5 -87.5t-85.5 -216.5t85.5 -216.5t213.5 -87.5q105 0 182 43v242h-206l27 60h241v-335
q-106 -69 -244 -69q-153 0 -258 104.5t-105 258.5z" />
    <glyph glyph-name="gdotaccent" unicode="&#x121;" horiz-adv-x="626" 
d="M246 632q0 22 15 37t37 15t37 -15t15 -37t-15 -37t-37 -15t-37 15t-15 37zM85 -134l30 48q33 -24 84 -39.5t103 -15.5q80 0 135.5 36.5t55.5 111.5q0 49 -15 78q-70 -76 -181 -76q-109 0 -177.5 72t-68.5 177q0 106 68.5 178t177.5 72q108 0 180 -75v67h57v-397
q18 -50 18 -97q0 -52 -22 -92t-59.5 -63t-81.5 -34t-94 -11q-122 0 -210 60zM477 159v199q-24 44 -70.5 70.5t-109.5 26.5q-84 0 -135.5 -56t-51.5 -141q0 -83 51.5 -139.5t135.5 -56.5q63 0 109.5 27t70.5 70z" />
    <glyph glyph-name="Gcommaaccent" unicode="&#x122;" horiz-adv-x="729" 
d="M41 355q0 154 105 258.5t258 104.5q135 0 235 -76l-35 -50q-83 67 -200 67q-128 0 -213.5 -87.5t-85.5 -216.5t85.5 -216.5t213.5 -87.5q105 0 182 43v242h-206l27 60h241v-335q-106 -69 -244 -69q-153 0 -258 104.5t-105 258.5zM364 -50h81l-118 -165h-54z" />
    <glyph glyph-name="gcommaaccent" unicode="&#x123;" horiz-adv-x="626" 
d="M339 585h-81l118 165h54zM85 -134l30 48q33 -24 84 -39.5t103 -15.5q80 0 135.5 36.5t55.5 111.5q0 49 -15 78q-70 -76 -181 -76q-109 0 -177.5 72t-68.5 177q0 106 68.5 178t177.5 72q108 0 180 -75v67h57v-397q18 -50 18 -97q0 -52 -22 -92t-59.5 -63t-81.5 -34
t-94 -11q-122 0 -210 60zM477 159v199q-24 44 -70.5 70.5t-109.5 26.5q-84 0 -135.5 -56t-51.5 -141q0 -83 51.5 -139.5t135.5 -56.5q63 0 109.5 27t70.5 70z" />
    <glyph glyph-name="Hcircumflex" unicode="&#x124;" horiz-adv-x="765" 
d="M210 816l172 112l173 -111l-32 -44l-141 93l-141 -93zM102 710h62v-314h437v314h62v-710h-62v336h-437v-336h-62v710z" />
    <glyph glyph-name="hcircumflex" unicode="&#x125;" horiz-adv-x="585" 
d="M126 816l172 112l173 -111l-32 -44l-141 93l-141 -93zM92 710h57v-282q53 80 172 80q80 0 131.5 -52t51.5 -140v-316h-57v308q0 70 -38.5 108.5t-102.5 38.5q-62 0 -102 -33.5t-55 -89.5v-332h-57v710z" />
    <glyph glyph-name="Hbar" unicode="&#x126;" horiz-adv-x="765" 
d="M39 581h63v129h62v-129h437v129h62v-129h63v-58h-63v-523h-62v336h-437v-336h-62v523h-63v58zM601 396v127h-437v-127h437z" />
    <glyph glyph-name="hbar" unicode="&#x127;" horiz-adv-x="585" 
d="M10 638h82v72h57v-72h167v-54h-167v-156q53 80 172 80q80 0 131.5 -52t51.5 -140v-316h-57v308q0 70 -38.5 108.5t-102.5 38.5q-62 0 -102 -33.5t-55 -89.5v-332h-57v584h-82v54z" />
    <glyph glyph-name="Itilde" unicode="&#x128;" horiz-adv-x="266" 
d="M68 837q-37 0 -48 -46h-55l3 14q9 40 37.5 63.5t62.5 23.5q30 0 71 -23.5t57 -23.5q39 0 50 45h55l-3 -14q-8 -39 -35.5 -63t-63.5 -24q-30 0 -72.5 24t-58.5 24zM102 710h62v-710h-62v710z" />
    <glyph glyph-name="itilde" unicode="&#x129;" horiz-adv-x="239" 
d="M-42 585q9 41 36 63.5t61 22.5q30 0 71 -23.5t57 -23.5q39 0 50 47h52l-3 -14q-8 -38 -34 -61.5t-62 -23.5q-30 0 -72.5 23.5t-58.5 23.5q-37 0 -48 -47h-52zM91 500h57v-500h-57v500z" />
    <glyph glyph-name="Imacron" unicode="&#x12a;" horiz-adv-x="266" 
d="M-6 859h278v-50h-278v50zM102 710h62v-710h-62v710z" />
    <glyph glyph-name="imacron" unicode="&#x12b;" horiz-adv-x="239" 
d="M-20 680h278v-51h-278v51zM91 500h57v-500h-57v500z" />
    <glyph glyph-name="Ibreve" unicode="&#x12c;" horiz-adv-x="266" 
d="M-14 900h53q4 -31 28 -52.5t65 -21.5q42 0 66.5 21.5t28.5 52.5h53q-6 -52 -44 -85.5t-105 -33.5q-63 0 -101.5 34t-43.5 85zM102 710h62v-710h-62v710z" />
    <glyph glyph-name="ibreve" unicode="&#x12d;" horiz-adv-x="239" 
d="M-28 710h53q4 -31 28 -52.5t65 -21.5q42 0 66.5 21.5t28.5 52.5h53q-6 -52 -44 -85.5t-105 -33.5q-64 0 -102 33.5t-43 85.5zM91 500h57v-500h-57v500z" />
    <glyph glyph-name="Iogonek" unicode="&#x12e;" horiz-adv-x="266" 
d="M102 710h62v-710q-43 -19 -67 -44t-24 -48q0 -19 14.5 -32.5t42.5 -13.5q21 0 36 5v-49q-24 -7 -54 -7q-43 0 -74 22.5t-31 62.5q0 33 28.5 62.5t66.5 41.5v710z" />
    <glyph glyph-name="iogonek" unicode="&#x12f;" horiz-adv-x="239" 
d="M70 668q0 20 15 35t35 15t35 -15t15 -35q0 -26 -22 -41h-56q-22 15 -22 41zM-4 -94q0 32 27.5 57t67.5 37v500h57v-500q-86 -38 -86 -82q0 -18 14.5 -29.5t42.5 -11.5q21 0 36 5v-49q-24 -7 -54 -7q-44 0 -74.5 20t-30.5 60z" />
    <glyph glyph-name="Idotaccent" unicode="&#x130;" horiz-adv-x="266" 
d="M80 843q0 22 15 37t37 15t37 -15t15 -37t-15 -37t-37 -15t-37 15t-15 37zM102 710h62v-710h-62v710z" />
    <glyph glyph-name="dotlessi" unicode="&#x131;" horiz-adv-x="239" 
d="M91 500h57v-500h-57v500z" />
    <glyph glyph-name="Jcircumflex" unicode="&#x134;" horiz-adv-x="493" 
d="M199 816l172 112l173 -111l-32 -44l-141 93l-141 -93zM10 187h62q0 -66 37.5 -100t95.5 -36q62 0 98.5 34.5t36.5 101.5v523h62v-533q0 -88 -55 -136.5t-141 -48.5q-85 0 -140.5 53t-55.5 142z" />
    <glyph glyph-name="jcircumflex" unicode="&#x135;" horiz-adv-x="239" 
d="M-48 606l167 112l166 -111l-27 -44l-139 95l-140 -95zM-15 -129h34q40 0 56 19t16 62v548h57v-541q0 -74 -29.5 -108.5t-100.5 -34.5h-33v55z" />
    <glyph glyph-name="Kcommaaccent" unicode="&#x136;" horiz-adv-x="636" 
d="M102 710h62v-355l352 355h80l-358 -362l385 -348h-87l-372 338v-338h-62v710zM293 -50h81l-118 -165h-54z" />
    <glyph glyph-name="kcommaaccent" unicode="&#x137;" horiz-adv-x="505" 
d="M92 710h57v-438l249 228h75l-258 -237l281 -263h-79l-268 250v-250h-57v710zM233 -50h81l-118 -165h-54z" />
    <glyph glyph-name="Lacute" unicode="&#x139;" horiz-adv-x="501" 
d="M188 913h82l-109 -145h-55zM102 710h62v-651h327v-59h-389v710z" />
    <glyph glyph-name="lacute" unicode="&#x13a;" horiz-adv-x="241" 
d="M175 913h82l-109 -145h-55zM92 710h57v-710h-57v710z" />
    <glyph glyph-name="Lcommaaccent" unicode="&#x13b;" horiz-adv-x="501" 
d="M102 710h62v-651h327v-59h-389v710zM247 -50h81l-118 -165h-54z" />
    <glyph glyph-name="lcommaaccent" unicode="&#x13c;" horiz-adv-x="241" 
d="M92 710h57v-710h-57v710zM81 -50h81l-118 -165h-54z" />
    <glyph glyph-name="Lcaron" unicode="&#x13d;" horiz-adv-x="501" 
d="M102 710h62v-651h327v-59h-389v710zM310 710h58l-42 -167h-41z" />
    <glyph glyph-name="lcaron" unicode="&#x13e;" horiz-adv-x="241" 
d="M92 710h57v-710h-57v710zM244 710h58l-42 -167h-41z" />
    <glyph glyph-name="Ldot" unicode="&#x13f;" horiz-adv-x="501" 
d="M102 710h62v-651h327v-59h-389v710zM331 378q0 22 15 37t37 15t37 -15t15 -37t-15 -37t-37 -15t-37 15t-15 37z" />
    <glyph glyph-name="ldot" unicode="&#x140;" horiz-adv-x="281" 
d="M92 710h57v-710h-57v710zM209 355q0 22 15 37t37 15t37 -15t15 -37t-15 -37t-37 -15t-37 15t-15 37z" />
    <glyph glyph-name="Lslash" unicode="&#x141;" horiz-adv-x="501" 
d="M-5 256l107 73v381h62v-338l203 140l32 -52l-235 -161v-240h327v-59h-389v256l-75 -51z" />
    <glyph glyph-name="lslash" unicode="&#x142;" horiz-adv-x="290" 
d="M0 314l117 80v316h57v-277l87 60l29 -48l-116 -80v-365h-57v326l-87 -59z" />
    <glyph glyph-name="Nacute" unicode="&#x143;" horiz-adv-x="795" 
d="M425 913h82l-109 -145h-55zM164 565v-565h-62v718l529 -573v565h62v-718z" />
    <glyph glyph-name="nacute" unicode="&#x144;" horiz-adv-x="585" 
d="M332 710h81l-118 -165h-54zM92 500h57v-72q53 80 172 80q80 0 131.5 -52t51.5 -140v-316h-57v308q0 70 -38.5 108.5t-102.5 38.5q-62 0 -102 -33.5t-55 -89.5v-332h-57v500z" />
    <glyph glyph-name="Ncommaaccent" unicode="&#x145;" horiz-adv-x="795" 
d="M164 565v-565h-62v718l529 -573v565h62v-718zM373 -50h81l-118 -165h-54z" />
    <glyph glyph-name="ncommaaccent" unicode="&#x146;" horiz-adv-x="585" 
d="M92 500h57v-72q53 80 172 80q80 0 131.5 -52t51.5 -140v-316h-57v308q0 70 -38.5 108.5t-102.5 38.5q-62 0 -102 -33.5t-55 -89.5v-332h-57v500zM256 -50h81l-118 -165h-54z" />
    <glyph glyph-name="Ncaron" unicode="&#x147;" horiz-adv-x="795" 
d="M225 883l31 43l141 -93l141 93l32 -44l-173 -111zM164 565v-565h-62v718l529 -573v565h62v-718z" />
    <glyph glyph-name="ncaron" unicode="&#x148;" horiz-adv-x="585" 
d="M463 696l-27 44l-139 -95l-140 95l-27 -43l167 -112zM92 500h57v-72q53 80 172 80q80 0 131.5 -52t51.5 -140v-316h-57v308q0 70 -38.5 108.5t-102.5 38.5q-62 0 -102 -33.5t-55 -89.5v-332h-57v500z" />
    <glyph glyph-name="Eng" unicode="&#x14a;" horiz-adv-x="795" 
d="M551 -184h-26v55h28q78 0 78 79v109l-467 506v-565h-62v718l529 -573v565h62v-752q0 -74 -34.5 -108t-107.5 -34z" />
    <glyph glyph-name="eng" unicode="&#x14b;" horiz-adv-x="585" 
d="M92 500h57v-72q53 80 172 80q80 0 131.5 -52t51.5 -140v-357q0 -74 -35 -108.5t-109 -34.5h-19v55h24q82 0 82 82v355q0 70 -38.5 108.5t-102.5 38.5q-62 0 -102 -33.5t-55 -89.5v-332h-57v500z" />
    <glyph glyph-name="Omacron" unicode="&#x14c;" horiz-adv-x="808" 
d="M265 859h278v-50h-278v50zM41 355q0 154 105 258.5t258 104.5t258 -104.5t105 -258.5t-105 -258.5t-258 -104.5t-258 104.5t-105 258.5zM703 355q0 129 -85.5 216.5t-213.5 87.5t-213.5 -87.5t-85.5 -216.5t85.5 -216.5t213.5 -87.5t213.5 87.5t85.5 216.5z" />
    <glyph glyph-name="omacron" unicode="&#x14d;" 
d="M171 680h278v-51h-278v51zM51 250q0 108 73.5 183t185.5 75t185.5 -75t73.5 -183t-73.5 -183t-185.5 -75t-185.5 75t-73.5 183zM510 250q0 86 -55.5 145.5t-144.5 59.5q-88 0 -144 -59.5t-56 -145.5t56 -145.5t144 -59.5q89 0 144.5 59.5t55.5 145.5z" />
    <glyph glyph-name="Obreve" unicode="&#x14e;" horiz-adv-x="808" 
d="M258 900h53q4 -31 28 -52.5t65 -21.5q42 0 66.5 21.5t28.5 52.5h53q-6 -52 -44 -85.5t-105 -33.5q-63 0 -101.5 34t-43.5 85zM41 355q0 154 105 258.5t258 104.5t258 -104.5t105 -258.5t-105 -258.5t-258 -104.5t-258 104.5t-105 258.5zM703 355q0 129 -85.5 216.5
t-213.5 87.5t-213.5 -87.5t-85.5 -216.5t85.5 -216.5t213.5 -87.5t213.5 87.5t85.5 216.5z" />
    <glyph glyph-name="obreve" unicode="&#x14f;" 
d="M164 710h53q4 -31 28 -52.5t65 -21.5q42 0 66.5 21.5t28.5 52.5h53q-6 -52 -44 -85.5t-105 -33.5q-64 0 -102 33.5t-43 85.5zM51 250q0 108 73.5 183t185.5 75t185.5 -75t73.5 -183t-73.5 -183t-185.5 -75t-185.5 75t-73.5 183zM510 250q0 86 -55.5 145.5t-144.5 59.5
q-88 0 -144 -59.5t-56 -145.5t56 -145.5t144 -59.5q89 0 144.5 59.5t55.5 145.5z" />
    <glyph glyph-name="Ohungarumlaut" unicode="&#x150;" horiz-adv-x="808" 
d="M344 913h82l-108 -145h-56zM544 913h82l-108 -145h-56zM41 355q0 154 105 258.5t258 104.5t258 -104.5t105 -258.5t-105 -258.5t-258 -104.5t-258 104.5t-105 258.5zM703 355q0 129 -85.5 216.5t-213.5 87.5t-213.5 -87.5t-85.5 -216.5t85.5 -216.5t213.5 -87.5
t213.5 87.5t85.5 216.5z" />
    <glyph glyph-name="ohungarumlaut" unicode="&#x151;" 
d="M285 710h81l-118 -165h-54zM445 710h81l-118 -165h-54zM51 250q0 108 73.5 183t185.5 75t185.5 -75t73.5 -183t-73.5 -183t-185.5 -75t-185.5 75t-73.5 183zM510 250q0 86 -55.5 145.5t-144.5 59.5q-88 0 -144 -59.5t-56 -145.5t56 -145.5t144 -59.5q89 0 144.5 59.5
t55.5 145.5z" />
    <glyph glyph-name="OE" unicode="&#x152;" horiz-adv-x="1096" 
d="M41 355q0 154 105 258.5t258 104.5q136 0 239 -87v79h398v-59h-336v-89q50 -75 60 -166h216v-60h-215q-4 -105 -61 -188v-89h336v-59h-398v79q-101 -87 -239 -87q-153 0 -258 104.5t-105 258.5zM703 355q0 129 -85.5 216.5t-213.5 87.5t-213.5 -87.5t-85.5 -216.5
t85.5 -216.5t213.5 -87.5t213.5 87.5t85.5 216.5z" />
    <glyph glyph-name="oe" unicode="&#x153;" horiz-adv-x="1037" 
d="M51 250q0 108 73.5 183t185.5 75q76 0 136.5 -36.5t92.5 -98.5q32 62 89 98.5t126 36.5q103 0 168.5 -66t68.5 -193h-423q1 -85 56.5 -144.5t139.5 -59.5q92 0 156 61l36 -40q-80 -74 -192 -74q-75 0 -134 36.5t-91 98.5q-32 -62 -92.5 -98.5t-136.5 -36.5
q-112 0 -185.5 75t-73.5 183zM511 250q0 86 -56 145.5t-145 59.5q-88 0 -144 -59.5t-56 -145.5t56 -145.5t144 -59.5q89 0 145 59.5t56 145.5zM928 300q-8 74 -57 114.5t-119 40.5q-65 0 -116 -43t-64 -112h356z" />
    <glyph glyph-name="Racute" unicode="&#x154;" horiz-adv-x="628" 
d="M327 913h82l-109 -145h-55zM256 321h-92v-321h-62v710h188q109 0 170 -51.5t61 -143.5q0 -82 -51 -133t-142 -60l269 -322h-77zM288 378q84 0 126 35.5t42 101.5q0 137 -168 137h-124v-274h124z" />
    <glyph glyph-name="racute" unicode="&#x155;" horiz-adv-x="356" 
d="M246 710h81l-118 -165h-54zM92 500h57v-76q53 79 150 79q17 0 33 -3v-59q-22 5 -39 5q-49 0 -88.5 -28t-55.5 -76v-342h-57v500z" />
    <glyph glyph-name="Rcommaaccent" unicode="&#x156;" horiz-adv-x="628" 
d="M256 321h-92v-321h-62v710h188q109 0 170 -51.5t61 -143.5q0 -82 -51 -133t-142 -60l269 -322h-77zM288 378q84 0 126 35.5t42 101.5q0 137 -168 137h-124v-274h124zM283 -50h81l-118 -165h-54z" />
    <glyph glyph-name="rcommaaccent" unicode="&#x157;" horiz-adv-x="356" 
d="M92 500h57v-76q53 79 150 79q17 0 33 -3v-59q-22 5 -39 5q-49 0 -88.5 -28t-55.5 -76v-342h-57v500zM92 -50h81l-118 -165h-54z" />
    <glyph glyph-name="Rcaron" unicode="&#x158;" horiz-adv-x="628" 
d="M112 883l31 43l141 -93l141 93l32 -44l-173 -111zM256 321h-92v-321h-62v710h188q109 0 170 -51.5t61 -143.5q0 -82 -51 -133t-142 -60l269 -322h-77zM288 378q84 0 126 35.5t42 101.5q0 137 -168 137h-124v-274h124z" />
    <glyph glyph-name="rcaron" unicode="&#x159;" horiz-adv-x="356" 
d="M379 696l-27 44l-139 -95l-140 95l-27 -43l167 -112zM92 500h57v-76q53 79 150 79q17 0 33 -3v-59q-22 5 -39 5q-49 0 -88.5 -28t-55.5 -76v-342h-57v500z" />
    <glyph glyph-name="Sacute" unicode="&#x15a;" horiz-adv-x="524" 
d="M298 913h82l-109 -145h-55zM28 91l47 43q68 -83 173 -83q73 0 117.5 33.5t44.5 88.5q0 56 -31.5 89t-98.5 63l-75 32q-80 34 -115.5 81t-35.5 113q0 73 61 120t141 47q122 0 198 -90l-46 -43q-62 74 -155 74q-58 0 -97.5 -30.5t-39.5 -81.5q0 -45 25 -76.5t85 -56.5
l75 -32q81 -35 126.5 -82t45.5 -118q0 -84 -60.5 -137t-164.5 -53q-68 0 -127 29.5t-93 69.5z" />
    <glyph glyph-name="sacute" unicode="&#x15b;" horiz-adv-x="425" 
d="M276 710h81l-118 -165h-54zM38 90l49 30q42 -75 122 -75q48 0 80 22.5t32 59.5t-22.5 59t-76.5 41l-46 16q-115 41 -115 142q0 52 42.5 87.5t108.5 35.5q48 0 85.5 -24t56.5 -68l-49 -21q-25 60 -95 60q-38 0 -64 -19t-26 -52q0 -32 17.5 -54.5t65.5 -39.5l49 -17
q127 -45 127 -145q0 -56 -47 -96t-126 -40q-55 0 -100.5 26t-67.5 72z" />
    <glyph glyph-name="Scircumflex" unicode="&#x15c;" horiz-adv-x="524" 
d="M86 816l172 112l173 -111l-32 -44l-141 93l-141 -93zM28 91l47 43q68 -83 173 -83q73 0 117.5 33.5t44.5 88.5q0 56 -31.5 89t-98.5 63l-75 32q-80 34 -115.5 81t-35.5 113q0 73 61 120t141 47q122 0 198 -90l-46 -43q-62 74 -155 74q-58 0 -97.5 -30.5t-39.5 -81.5
q0 -45 25 -76.5t85 -56.5l75 -32q81 -35 126.5 -82t45.5 -118q0 -84 -60.5 -137t-164.5 -53q-68 0 -127 29.5t-93 69.5z" />
    <glyph glyph-name="scircumflex" unicode="&#x15d;" horiz-adv-x="425" 
d="M45 606l167 112l166 -111l-27 -44l-139 95l-140 -95zM38 90l49 30q42 -75 122 -75q48 0 80 22.5t32 59.5t-22.5 59t-76.5 41l-46 16q-115 41 -115 142q0 52 42.5 87.5t108.5 35.5q48 0 85.5 -24t56.5 -68l-49 -21q-25 60 -95 60q-38 0 -64 -19t-26 -52q0 -32 17.5 -54.5
t65.5 -39.5l49 -17q127 -45 127 -145q0 -56 -47 -96t-126 -40q-55 0 -100.5 26t-67.5 72z" />
    <glyph glyph-name="Scedilla" unicode="&#x15e;" horiz-adv-x="524" 
d="M229 -7q-63 4 -116.5 32.5t-84.5 65.5l47 43q68 -83 173 -83q73 0 117.5 33.5t44.5 88.5q0 56 -31.5 89t-98.5 63l-75 32q-80 34 -115.5 81t-35.5 113q0 73 61 120t141 47q122 0 198 -90l-46 -43q-62 74 -155 74q-58 0 -97.5 -30.5t-39.5 -81.5q0 -45 25 -76.5t85 -56.5
l75 -32q81 -35 126.5 -82t45.5 -118q0 -76 -50.5 -127.5t-139.5 -60.5l-38 -131h-83z" />
    <glyph glyph-name="scedilla" unicode="&#x15f;" horiz-adv-x="425" 
d="M193 -7q-51 3 -92.5 28.5t-62.5 68.5l49 30q42 -75 122 -75q48 0 80 22.5t32 59.5t-22.5 59t-76.5 41l-46 16q-115 41 -115 142q0 52 42.5 87.5t108.5 35.5q48 0 85.5 -24t56.5 -68l-49 -21q-25 60 -95 60q-38 0 -64 -19t-26 -52q0 -32 17.5 -54.5t65.5 -39.5l49 -17
q127 -45 127 -145q0 -51 -38.5 -89t-105.5 -45l-49 -131h-74z" />
    <glyph glyph-name="Scaron" unicode="&#x160;" horiz-adv-x="524" 
d="M86 883l31 43l141 -93l141 93l32 -44l-173 -111zM28 91l47 43q68 -83 173 -83q73 0 117.5 33.5t44.5 88.5q0 56 -31.5 89t-98.5 63l-75 32q-80 34 -115.5 81t-35.5 113q0 73 61 120t141 47q122 0 198 -90l-46 -43q-62 74 -155 74q-58 0 -97.5 -30.5t-39.5 -81.5
q0 -45 25 -76.5t85 -56.5l75 -32q81 -35 126.5 -82t45.5 -118q0 -84 -60.5 -137t-164.5 -53q-68 0 -127 29.5t-93 69.5z" />
    <glyph glyph-name="scaron" unicode="&#x161;" horiz-adv-x="425" 
d="M378 696l-27 44l-139 -95l-140 95l-27 -43l167 -112zM38 90l49 30q42 -75 122 -75q48 0 80 22.5t32 59.5t-22.5 59t-76.5 41l-46 16q-115 41 -115 142q0 52 42.5 87.5t108.5 35.5q48 0 85.5 -24t56.5 -68l-49 -21q-25 60 -95 60q-38 0 -64 -19t-26 -52q0 -32 17.5 -54.5
t65.5 -39.5l49 -17q127 -45 127 -145q0 -56 -47 -96t-126 -40q-55 0 -100.5 26t-67.5 72z" />
    <glyph glyph-name="uni0162" unicode="&#x162;" horiz-adv-x="505" 
d="M221 651h-201v59h465v-59h-202v-651h-62v651zM215 -50h81l-118 -165h-54z" />
    <glyph glyph-name="uni0163" unicode="&#x163;" horiz-adv-x="356" 
d="M5 500h100v122l57 28v-150h149l-13 -55h-136v-311q0 -42 18 -60.5t63 -18.5h61v-55h-62q-69 0 -103 31t-34 101v313h-87zM181 -50h81l-118 -165h-54z" />
    <glyph glyph-name="Tcaron" unicode="&#x164;" horiz-adv-x="505" 
d="M80 883l31 43l141 -93l141 93l32 -44l-173 -111zM221 651h-201v59h465v-59h-202v-651h-62v651z" />
    <glyph glyph-name="tcaron" unicode="&#x165;" horiz-adv-x="356" 
d="M267 710h58l-42 -167h-41zM5 500h100v122l57 28v-150h149l-13 -55h-136v-311q0 -42 18 -60.5t63 -18.5h61v-55h-62q-69 0 -103 31t-34 101v313h-87z" />
    <glyph glyph-name="Tbar" unicode="&#x166;" horiz-adv-x="505" 
d="M51 400h170v251h-201v59h465v-59h-202v-251h170v-53h-170v-347h-62v347h-170v53z" />
    <glyph glyph-name="tbar" unicode="&#x167;" horiz-adv-x="356" 
d="M5 500h100v122l57 28v-150h149l-13 -55h-136v-86h144v-55h-144v-170q0 -42 18 -60.5t63 -18.5h61v-55h-62q-69 0 -103 31t-34 101v172h-95v55h95v86h-87z" />
    <glyph glyph-name="Utilde" unicode="&#x168;" horiz-adv-x="743" 
d="M306 837q-37 0 -48 -46h-55l3 14q9 40 37.5 63.5t62.5 23.5q30 0 71 -23.5t57 -23.5q40 0 50 45h55l-3 -14q-8 -39 -35.5 -63t-63.5 -24q-30 0 -72.5 24t-58.5 24zM93 263v447h62v-450q0 -102 58 -155.5t158 -53.5t158.5 53.5t58.5 155.5v450h62v-447q0 -127 -76.5 -199
t-202.5 -72q-125 0 -201.5 72t-76.5 199z" />
    <glyph glyph-name="utilde" unicode="&#x169;" horiz-adv-x="567" 
d="M107 585q9 41 36 63.5t61 22.5q30 0 71 -23.5t57 -23.5q39 0 50 47h52l-3 -14q-8 -38 -34 -61.5t-62 -23.5q-30 0 -72.5 23.5t-58.5 23.5q-37 0 -48 -47h-52zM418 70q-55 -78 -171 -78q-81 0 -132.5 52t-51.5 140v316h57v-308q0 -70 39 -108.5t103 -38.5q61 0 101.5 33.5
t54.5 88.5v333h57v-500h-57v70z" />
    <glyph glyph-name="Umacron" unicode="&#x16a;" horiz-adv-x="743" 
d="M232 859h278v-50h-278v50zM93 263v447h62v-450q0 -102 58 -155.5t158 -53.5t158.5 53.5t58.5 155.5v450h62v-447q0 -127 -76.5 -199t-202.5 -72q-125 0 -201.5 72t-76.5 199z" />
    <glyph glyph-name="umacron" unicode="&#x16b;" horiz-adv-x="567" 
d="M130 680h278v-51h-278v51zM418 70q-55 -78 -171 -78q-81 0 -132.5 52t-51.5 140v316h57v-308q0 -70 39 -108.5t103 -38.5q61 0 101.5 33.5t54.5 88.5v333h57v-500h-57v70z" />
    <glyph glyph-name="Ubreve" unicode="&#x16c;" horiz-adv-x="743" 
d="M224 900h53q4 -31 28 -52.5t65 -21.5q42 0 66.5 21.5t28.5 52.5h53q-6 -52 -44 -85.5t-105 -33.5q-63 0 -101.5 34t-43.5 85zM93 263v447h62v-450q0 -102 58 -155.5t158 -53.5t158.5 53.5t58.5 155.5v450h62v-447q0 -127 -76.5 -199t-202.5 -72q-125 0 -201.5 72
t-76.5 199z" />
    <glyph glyph-name="ubreve" unicode="&#x16d;" horiz-adv-x="567" 
d="M123 710h53q4 -31 28 -52.5t65 -21.5q42 0 66.5 21.5t28.5 52.5h53q-6 -52 -44 -85.5t-105 -33.5q-64 0 -102 33.5t-43 85.5zM418 70q-55 -78 -171 -78q-81 0 -132.5 52t-51.5 140v316h57v-308q0 -70 39 -108.5t103 -38.5q61 0 101.5 33.5t54.5 88.5v333h57v-500h-57v70z
" />
    <glyph glyph-name="Uring" unicode="&#x16e;" horiz-adv-x="743" 
d="M282 836q0 37 26 61t63 24q38 0 64.5 -24t26.5 -61t-26 -61t-65 -24q-37 0 -63 24.5t-26 60.5zM421 836q0 21 -14.5 35t-35.5 14q-20 0 -34.5 -14t-14.5 -35t14.5 -34.5t34.5 -13.5q21 0 35.5 13.5t14.5 34.5zM93 263v447h62v-450q0 -102 58 -155.5t158 -53.5t158.5 53.5
t58.5 155.5v450h62v-447q0 -127 -76.5 -199t-202.5 -72q-125 0 -201.5 72t-76.5 199z" />
    <glyph glyph-name="uring" unicode="&#x16f;" horiz-adv-x="567" 
d="M178 664q0 38 27 64.5t65 26.5t65 -27t27 -64t-27 -64t-65 -27t-65 26.5t-27 64.5zM323 664q0 22 -15.5 38t-37.5 16t-38 -16t-16 -38t16 -38t38 -16t37.5 16t15.5 38zM418 70q-55 -78 -171 -78q-81 0 -132.5 52t-51.5 140v316h57v-308q0 -70 39 -108.5t103 -38.5
q61 0 101.5 33.5t54.5 88.5v333h57v-500h-57v70z" />
    <glyph glyph-name="Uhungarumlaut" unicode="&#x170;" horiz-adv-x="743" 
d="M311 913h82l-108 -145h-56zM511 913h82l-108 -145h-56zM93 263v447h62v-450q0 -102 58 -155.5t158 -53.5t158.5 53.5t58.5 155.5v450h62v-447q0 -127 -76.5 -199t-202.5 -72q-125 0 -201.5 72t-76.5 199z" />
    <glyph glyph-name="uhungarumlaut" unicode="&#x171;" horiz-adv-x="567" 
d="M244 710h81l-118 -165h-54zM404 710h81l-118 -165h-54zM418 70q-55 -78 -171 -78q-81 0 -132.5 52t-51.5 140v316h57v-308q0 -70 39 -108.5t103 -38.5q61 0 101.5 33.5t54.5 88.5v333h57v-500h-57v70z" />
    <glyph glyph-name="Uogonek" unicode="&#x172;" horiz-adv-x="743" 
d="M291 -104q0 28 21.5 54.5t52.5 41.5q-123 2 -197.5 73.5t-74.5 197.5v447h62v-450q0 -102 58 -155.5t158 -53.5t158.5 53.5t58.5 155.5v450h62v-447q0 -107 -54 -175t-148 -88q-43 -19 -67 -44t-24 -48q0 -19 14.5 -32.5t42.5 -13.5q21 0 36 5v-49q-24 -7 -54 -7
q-43 0 -74 22.5t-31 62.5z" />
    <glyph glyph-name="uogonek" unicode="&#x173;" horiz-adv-x="571" 
d="M320 -94q0 31 29 56t69 38v70q-55 -78 -171 -78q-81 0 -132.5 52t-51.5 140v316h57v-308q0 -70 39 -108.5t103 -38.5q61 0 101.5 33.5t54.5 88.5v333h57v-500q-89 -39 -89 -82q0 -18 14.5 -29.5t42.5 -11.5q21 0 36 5v-49q-24 -7 -54 -7q-44 0 -74.5 20t-30.5 60z" />
    <glyph glyph-name="Wcircumflex" unicode="&#x174;" horiz-adv-x="916" 
d="M286 816l172 112l173 -111l-32 -44l-141 93l-141 -93zM22 710h64l178 -549l194 557l194 -557l178 549h64l-241 -718l-195 565l-195 -565z" />
    <glyph glyph-name="wcircumflex" unicode="&#x175;" horiz-adv-x="721" 
d="M194 606l167 112l166 -111l-27 -44l-139 95l-140 -95zM30 500h59l126 -400l146 408l145 -408l126 400h59l-159 -500h-41l-130 359l-128 -359h-43z" />
    <glyph glyph-name="Ycircumflex" unicode="&#x176;" 
d="M138 816l172 112l173 -111l-32 -44l-141 93l-141 -93zM279 302l-259 408h71l220 -350l219 350h70l-259 -408v-302h-62v302z" />
    <glyph glyph-name="ycircumflex" unicode="&#x177;" horiz-adv-x="509" 
d="M87 606l167 112l166 -111l-27 -44l-139 95l-140 -95zM224 55l-214 445h64l180 -389l181 389h64l-329 -684h-61z" />
    <glyph glyph-name="Ydieresis" unicode="&#x178;" 
d="M148 843q0 22 15 37t37 15t37 -15t15 -37t-15 -37t-37 -15t-37 15t-15 37zM368 843q0 22 15 37t37 15t37 -15t15 -37t-15 -37t-37 -15t-37 15t-15 37zM279 302l-259 408h71l220 -350l219 350h70l-259 -408v-302h-62v302z" />
    <glyph glyph-name="Zacute" unicode="&#x179;" horiz-adv-x="605" 
d="M350 913h82l-109 -145h-55zM456 651h-381v59h488l-425 -651h435v-59h-542z" />
    <glyph glyph-name="zacute" unicode="&#x17a;" horiz-adv-x="505" 
d="M304 710h81l-118 -165h-54zM355 445h-290v55h393l-321 -445h315v-55h-417z" />
    <glyph glyph-name="Zdotaccent" unicode="&#x17b;" horiz-adv-x="605" 
d="M267 843q0 22 15 37t37 15t37 -15t15 -37t-15 -37t-37 -15t-37 15t-15 37zM456 651h-381v59h488l-425 -651h435v-59h-542z" />
    <glyph glyph-name="zdotaccent" unicode="&#x17c;" horiz-adv-x="505" 
d="M209 632q0 22 15 37t37 15t37 -15t15 -37t-15 -37t-37 -15t-37 15t-15 37zM355 445h-290v55h393l-321 -445h315v-55h-417z" />
    <glyph glyph-name="Zcaron" unicode="&#x17d;" horiz-adv-x="605" 
d="M148 883l31 43l141 -93l141 93l32 -44l-173 -111zM456 651h-381v59h488l-425 -651h435v-59h-542z" />
    <glyph glyph-name="zcaron" unicode="&#x17e;" horiz-adv-x="505" 
d="M427 696l-27 44l-139 -95l-140 95l-27 -43l167 -112zM355 445h-290v55h393l-321 -445h315v-55h-417z" />
    <glyph glyph-name="Scommaaccent" unicode="&#x218;" horiz-adv-x="524" 
d="M28 91l47 43q68 -83 173 -83q73 0 117.5 33.5t44.5 88.5q0 56 -31.5 89t-98.5 63l-75 32q-80 34 -115.5 81t-35.5 113q0 73 61 120t141 47q122 0 198 -90l-46 -43q-62 74 -155 74q-58 0 -97.5 -30.5t-39.5 -81.5q0 -45 25 -76.5t85 -56.5l75 -32q81 -35 126.5 -82
t45.5 -118q0 -84 -60.5 -137t-164.5 -53q-68 0 -127 29.5t-93 69.5zM219 -50h81l-118 -165h-54z" />
    <glyph glyph-name="scommaaccent" unicode="&#x219;" horiz-adv-x="425" 
d="M38 90l49 30q42 -75 122 -75q48 0 80 22.5t32 59.5t-22.5 59t-76.5 41l-46 16q-115 41 -115 142q0 52 42.5 87.5t108.5 35.5q48 0 85.5 -24t56.5 -68l-49 -21q-25 60 -95 60q-38 0 -64 -19t-26 -52q0 -32 17.5 -54.5t65.5 -39.5l49 -17q127 -45 127 -145q0 -56 -47 -96
t-126 -40q-55 0 -100.5 26t-67.5 72zM171 -50h81l-118 -165h-54z" />
    <glyph glyph-name="uni021A" unicode="&#x21a;" horiz-adv-x="505" 
d="M221 651h-201v59h465v-59h-202v-651h-62v651zM215 -50h81l-118 -165h-54z" />
    <glyph glyph-name="uni021B" unicode="&#x21b;" horiz-adv-x="356" 
d="M5 500h100v122l57 28v-150h149l-13 -55h-136v-311q0 -42 18 -60.5t63 -18.5h61v-55h-62q-69 0 -103 31t-34 101v313h-87zM181 -50h81l-118 -165h-54z" />
    <glyph glyph-name="uni0232" unicode="&#x232;" 
d="M171 859h278v-50h-278v50zM279 302l-259 408h71l220 -350l219 350h70l-259 -408v-302h-62v302z" />
    <glyph glyph-name="uni0233" unicode="&#x233;" horiz-adv-x="509" 
d="M115 680h278v-51h-278v51zM224 55l-214 445h64l180 -389l181 389h64l-329 -684h-61z" />
    <glyph glyph-name="uni0237" unicode="&#x237;" horiz-adv-x="239" 
d="M-15 -129h34q40 0 56 19t16 62v548h57v-541q0 -74 -29.5 -108.5t-100.5 -34.5h-33v55z" />
    <glyph glyph-name="circumflex" unicode="&#x2c6;" horiz-adv-x="356" 
d="M8 606l167 112l166 -111l-27 -44l-139 95l-140 -95z" />
    <glyph glyph-name="caron" unicode="&#x2c7;" horiz-adv-x="366" 
d="M341 696l-27 44l-139 -95l-140 95l-27 -43l167 -112z" />
    <glyph glyph-name="breve" unicode="&#x2d8;" horiz-adv-x="338" 
d="M22 710h53q4 -31 28 -52.5t65 -21.5q42 0 66.5 21.5t28.5 52.5h53q-6 -52 -44 -85.5t-105 -33.5q-64 0 -102 33.5t-43 85.5z" />
    <glyph glyph-name="dotaccent" unicode="&#x2d9;" horiz-adv-x="121" 
d="M9 632q0 22 15 37t37 15t37 -15t15 -37t-15 -37t-37 -15t-37 15t-15 37z" />
    <glyph glyph-name="ring" unicode="&#x2da;" horiz-adv-x="223" 
d="M21 664q0 38 27 64.5t65 26.5t65 -27t27 -64t-27 -64t-65 -27t-65 26.5t-27 64.5zM166 664q0 22 -15.5 38t-37.5 16t-38 -16t-16 -38t16 -38t38 -16t37.5 16t15.5 38z" />
    <glyph glyph-name="ogonek" unicode="&#x2db;" horiz-adv-x="203" 
d="M22 -94q0 32 27.5 57t67.5 37h62q-91 -40 -91 -82q0 -18 14.5 -29.5t42.5 -11.5q21 0 36 5v-49q-24 -7 -54 -7q-44 0 -74.5 20t-30.5 60z" />
    <glyph glyph-name="tilde" unicode="&#x2dc;" horiz-adv-x="396" 
d="M36 585q9 41 36 63.5t61 22.5q30 0 71 -23.5t57 -23.5q39 0 50 47h52l-3 -14q-8 -38 -34 -61.5t-62 -23.5q-30 0 -72.5 23.5t-58.5 23.5q-37 0 -48 -47h-52z" />
    <glyph glyph-name="hungarumlaut" unicode="&#x2dd;" horiz-adv-x="364" 
d="M102 710h81l-118 -165h-54zM262 710h81l-118 -165h-54z" />
    <glyph glyph-name="uni0326" unicode="&#x326;" horiz-adv-x="0" 
d="M-114 -50h81l-118 -165h-54z" />
    <glyph glyph-name="uni032C" unicode="&#x32c;" horiz-adv-x="0" 
d="M-25 -44l-27 44l-139 -95l-140 95l-27 -43l167 -112z" />
    <glyph glyph-name="uni0394" unicode="&#x394;" horiz-adv-x="771" 
d="M385 717l376 -717h-751zM664 55l-279 538l-282 -538h561z" />
    <glyph glyph-name="uni03A9" unicode="&#x3a9;" horiz-adv-x="848" 
d="M62 55h159q-73 47 -116.5 127t-43.5 173q0 154 105 258.5t258 104.5t258 -104.5t105 -258.5q0 -94 -43 -173.5t-116 -126.5h159v-55h-252v64q86 33 139.5 112.5t53.5 178.5q0 130 -87 219t-217 89t-216.5 -89t-86.5 -219q0 -99 53.5 -178.5t139.5 -112.5v-64h-252v55z
" />
    <glyph glyph-name="pi" unicode="&#x3c0;" horiz-adv-x="624" 
d="M449 445h-274v-445h-57v445h-77v55h542v-55h-77v-445h-57v445z" />
    <glyph glyph-name="uni0401" unicode="&#x401;" horiz-adv-x="555" 
d="M139 843q0 22 15 37t37 15t37 -15t15 -37t-15 -37t-37 -15t-37 15t-15 37zM359 843q0 22 15 37t37 15t37 -15t15 -37t-15 -37t-37 -15t-37 15t-15 37zM102 710h398v-59h-336v-255h276v-60h-276v-277h336v-59h-398v710z" />
    <glyph glyph-name="uni0402" unicode="&#x402;" horiz-adv-x="748" 
d="M274 650v-256q104 36 202 36q101 0 158.5 -59t58.5 -156v-8q0 -129 -75 -198t-187 -69h-12v56h11q35 0 68 10t64 32t49.5 63.5t18.5 98.5v9q0 72 -43 116.5t-121 44.5q-87 0 -192 -35v-335h-62v650h-192v60h470v-60h-216z" />
    <glyph glyph-name="uni0403" unicode="&#x403;" horiz-adv-x="491" 
d="M338 913h82l-109 -145h-55zM168 0h-62v710h365v-60h-303v-650z" />
    <glyph glyph-name="uni0404" unicode="&#x404;" horiz-adv-x="676" 
d="M113 328q8 -120 92 -198.5t206 -78.5q109 0 192 68l33 -50q-94 -77 -225 -77q-153 0 -258 104.5t-105 258.5t105 258.5t258 104.5q131 0 225 -77l-34 -50q-81 68 -191 68q-122 0 -205.5 -76t-92.5 -195h382v-60h-382z" />
    <glyph glyph-name="uni0405" unicode="&#x405;" horiz-adv-x="524" 
d="M28 91l47 43q68 -83 173 -83q73 0 117.5 33.5t44.5 88.5q0 56 -31.5 89t-98.5 63l-75 32q-80 34 -115.5 81t-35.5 113q0 73 61 120t141 47q122 0 198 -90l-46 -43q-62 74 -155 74q-58 0 -97.5 -30.5t-39.5 -81.5q0 -45 25 -76.5t85 -56.5l75 -32q81 -35 126.5 -82
t45.5 -118q0 -84 -60.5 -137t-164.5 -53q-68 0 -127 29.5t-93 69.5z" />
    <glyph glyph-name="uni0406" unicode="&#x406;" horiz-adv-x="274" 
d="M106 710h62v-710h-62v710z" />
    <glyph glyph-name="uni0407" unicode="&#x407;" horiz-adv-x="274" 
d="M-25 843q0 22 15 37t37 15t37 -15t15 -37t-15 -37t-37 -15t-37 15t-15 37zM195 843q0 22 15 37t37 15t37 -15t15 -37t-15 -37t-37 -15t-37 15t-15 37zM106 710h62v-710h-62v710z" />
    <glyph glyph-name="uni0408" unicode="&#x408;" horiz-adv-x="492" 
d="M10 187h62q0 -66 37.5 -100t95.5 -36q62 0 98.5 34.5t36.5 101.5v523h62v-533q0 -88 -55 -136.5t-141 -48.5q-85 0 -140.5 53t-55.5 142z" />
    <glyph glyph-name="uni0409" unicode="&#x409;" horiz-adv-x="1004" 
d="M77 0h-67l342 718l145 -304h208q119 0 186.5 -55t67.5 -152q0 -98 -67.5 -152.5t-186.5 -54.5h-77l-276 583zM705 56q93 0 141 39t48 112t-48 111.5t-141 38.5h-181l138 -287l7 -14h36z" />
    <glyph glyph-name="uni040A" unicode="&#x40a;" horiz-adv-x="1036" 
d="M737 396q122 0 188 -47.5t66 -143.5q0 -98 -67 -151.5t-187 -53.5h-182v336h-387v-336h-62v710h62v-314h387v314h62v-314h120zM737 56q93 0 141 39t48 112q0 67 -44 98t-145 31h-120v-280h120z" />
    <glyph glyph-name="uni040B" unicode="&#x40b;" horiz-adv-x="786" 
d="M212 650h-192v60h478v-60h-224v-256q107 37 213 37q101 0 162.5 -57.5t61.5 -145.5v-228h-63v222q0 65 -44.5 107t-119.5 42q-102 0 -210 -36v-335h-62v650z" />
    <glyph glyph-name="uni040C" unicode="&#x40c;" horiz-adv-x="640" 
d="M370 913h82l-109 -145h-55zM106 710h62v-355l352 355h80l-358 -362l385 -348h-87l-372 338v-338h-62v710z" />
    <glyph glyph-name="uni040E" unicode="&#x40e;" horiz-adv-x="649" 
d="M483 914q-1 -70 -44 -108.5t-115 -38.5q-73 0 -115.5 39t-43.5 108h52q1 -53 29.5 -79t77.5 -26q48 0 77 26t30 79h52zM268 0h-68l87 162l-287 548h69l253 -483l260 483h67z" />
    <glyph glyph-name="uni040F" unicode="&#x40f;" horiz-adv-x="743" 
d="M341 -148v148h-235v710h62v-650h407v650h62v-710h-234v-148h-62z" />
    <glyph glyph-name="uni0410" unicode="&#x410;" horiz-adv-x="710" 
d="M352 718l343 -718h-65l-104 217h-348l-103 -217h-65zM206 276h292l-146 307z" />
    <glyph glyph-name="uni0411" unicode="&#x411;" horiz-adv-x="627" 
d="M353 396q107 0 168 -54t61 -147q0 -97 -69 -146t-189 -49h-218v710h411v-57h-349v-257h185zM347 57q85 0 129 38t44 103q0 64 -43.5 103.5t-128.5 39.5h-180v-284h179z" />
    <glyph glyph-name="uni0412" unicode="&#x412;" horiz-adv-x="624" 
d="M106 710h217q99 0 155.5 -52t56.5 -125q0 -110 -86 -156q59 -17 96 -63t37 -119q0 -95 -70.5 -145t-192.5 -50h-213v710zM332 396q66 0 103.5 36t37.5 92q0 55 -38 92t-103 37h-164v-257h164zM346 57q85 0 129.5 38.5t44.5 102.5t-44 103.5t-129 39.5h-179v-284h178z" />
    <glyph glyph-name="uni0413" unicode="&#x413;" horiz-adv-x="491" 
d="M168 0h-62v710h365v-60h-303v-650z" />
    <glyph glyph-name="uni0414" unicode="&#x414;" horiz-adv-x="739" 
d="M662 0h-585v-148h-62v208h71l284 658l284 -658h70v-208h-62v148zM589 60l-218 512l-220 -512h438z" />
    <glyph glyph-name="uni0415" unicode="&#x415;" horiz-adv-x="555" 
d="M102 710h398v-59h-336v-255h276v-60h-276v-277h336v-59h-398v710z" />
    <glyph glyph-name="uni0416" unicode="&#x416;" horiz-adv-x="1006" 
d="M472 337l-371 -337h-88l385 348l-358 362h81l351 -354v354h62v-354l351 354h81l-358 -362l385 -348h-88l-371 337v-337h-62v337z" />
    <glyph glyph-name="uni0417" unicode="&#x417;" horiz-adv-x="549" 
d="M68 628q36 41 89 65.5t113 24.5q92 0 147.5 -50t55.5 -130q0 -58 -27 -100.5t-72 -63.5q58 -19 95.5 -64t37.5 -115q0 -97 -73 -150t-170 -53q-72 0 -131 29t-93 70l47 43q68 -83 178 -83q77 0 128.5 37t51.5 110q0 70 -48.5 106.5t-137.5 36.5h-82v55h86q66 0 106.5 39
t40.5 98q0 55 -40.5 91t-105.5 35q-89 -1 -150 -74z" />
    <glyph glyph-name="uni0418" unicode="&#x418;" horiz-adv-x="803" 
d="M635 565v-565h62v718l-529 -573v565h-62v-718z" />
    <glyph glyph-name="uni0419" unicode="&#x419;" horiz-adv-x="803" 
d="M567 914q-1 -70 -44 -108.5t-115 -38.5q-73 0 -115.5 39t-43.5 108h52q1 -53 29.5 -79t77.5 -26q48 0 77 26t30 79h52zM635 565v-565h62v718l-529 -573v565h-62v-718z" />
    <glyph glyph-name="uni041A" unicode="&#x41a;" horiz-adv-x="640" 
d="M106 710h62v-355l352 355h80l-358 -362l385 -348h-87l-372 338v-338h-62v710z" />
    <glyph glyph-name="uni041B" unicode="&#x41b;" horiz-adv-x="710" 
d="M10 0l342 718l343 -718h-67l-276 583l-275 -583h-67z" />
    <glyph glyph-name="uni041C" unicode="&#x41c;" horiz-adv-x="896" 
d="M106 718l342 -391l342 391v-718h-62v560l-280 -322l-280 322v-560h-62v718z" />
    <glyph glyph-name="uni041D" unicode="&#x41d;" horiz-adv-x="773" 
d="M106 710h62v-314h437v314h62v-710h-62v336h-437v-336h-62v710z" />
    <glyph glyph-name="uni041E" unicode="&#x41e;" horiz-adv-x="822" 
d="M48 355q0 154 105 258.5t258 104.5t258 -104.5t105 -258.5t-105 -258.5t-258 -104.5t-258 104.5t-105 258.5zM710 355q0 129 -85.5 216.5t-213.5 87.5t-213.5 -87.5t-85.5 -216.5t85.5 -216.5t213.5 -87.5t213.5 87.5t85.5 216.5z" />
    <glyph glyph-name="uni041F" unicode="&#x41f;" horiz-adv-x="743" 
d="M168 650v-650h-62v710h531v-710h-62v650h-407z" />
    <glyph glyph-name="uni0420" unicode="&#x420;" horiz-adv-x="558" 
d="M106 710h186q116 0 181 -54t65 -153q0 -97 -65.5 -152t-180.5 -55h-124v-296h-62v710zM292 353q181 0 181 150q0 73 -45.5 112t-135.5 39h-124v-301h124z" />
    <glyph glyph-name="uni0421" unicode="&#x421;" horiz-adv-x="674" 
d="M48 355q0 154 105 258.5t258 104.5q131 0 225 -77l-34 -50q-81 68 -191 68q-128 0 -213.5 -87.5t-85.5 -216.5t85.5 -216.5t213.5 -87.5q109 0 192 68l33 -50q-94 -77 -225 -77q-153 0 -258 104.5t-105 258.5z" />
    <glyph glyph-name="uni0422" unicode="&#x422;" horiz-adv-x="505" 
d="M221 651h-201v59h465v-59h-202v-651h-62v651z" />
    <glyph glyph-name="uni0423" unicode="&#x423;" horiz-adv-x="649" 
d="M268 0h-68l87 162l-287 548h69l253 -483l260 483h67z" />
    <glyph glyph-name="uni0424" unicode="&#x424;" horiz-adv-x="888" 
d="M507 655q154 0 245.5 -79t91.5 -206t-92 -207t-245 -80h-32v-99h-62v99h-32q-153 0 -245 80t-92 207t91.5 206t245.5 79h32v97h62v-97h32zM413 142v454h-36q-129 0 -200.5 -62.5t-71.5 -163.5q0 -103 71 -165.5t201 -62.5h36zM511 142q130 0 201 62.5t71 165.5
q0 101 -71.5 163.5t-200.5 62.5h-36v-454h36z" />
    <glyph glyph-name="uni0425" unicode="&#x425;" horiz-adv-x="670" 
d="M300 365l-255 345h70l220 -298l221 298h70l-255 -345l269 -365h-72l-233 317l-232 -317h-72z" />
    <glyph glyph-name="uni0426" unicode="&#x426;" horiz-adv-x="733" 
d="M626 -148v148h-520v710h62v-650h388v650h62v-650h70v-208h-62z" />
    <glyph glyph-name="uni0427" unicode="&#x427;" horiz-adv-x="696" 
d="M528 0v317q-114 -38 -223 -38t-174.5 57t-65.5 146v228h62v-222q0 -74 50.5 -111.5t135.5 -37.5q109 0 215 38v333h62v-710h-62z" />
    <glyph glyph-name="uni0428" unicode="&#x428;" horiz-adv-x="991" 
d="M168 710v-650h297v650h62v-650h296v650h62v-710h-779v710h62z" />
    <glyph glyph-name="uni0429" unicode="&#x429;" horiz-adv-x="1000" 
d="M893 -148v148h-787v710h62v-650h297v650h62v-650h296v650h62v-650h70v-208h-62z" />
    <glyph glyph-name="uni042A" unicode="&#x42a;" horiz-adv-x="708" 
d="M409 414q119 0 186.5 -55t67.5 -152q0 -98 -67.5 -152.5t-186.5 -54.5h-188v651h-201v59h263v-296h126zM409 56q93 0 141 39t48 112t-48 111.5t-141 38.5h-126v-301h126z" />
    <glyph glyph-name="uni042B" unicode="&#x42b;" horiz-adv-x="832" 
d="M294 414q119 0 186.5 -55t67.5 -152q0 -98 -67.5 -152.5t-186.5 -54.5h-188v710h62v-296h126zM664 710h62v-710h-62v710zM294 56q93 0 141 39t48 112t-48 111.5t-141 38.5h-126v-301h126z" />
    <glyph glyph-name="uni042C" unicode="&#x42c;" horiz-adv-x="593" 
d="M294 414q119 0 186.5 -55t67.5 -152q0 -98 -67.5 -152.5t-186.5 -54.5h-188v710h62v-296h126zM294 56q93 0 141 39t48 112t-48 111.5t-141 38.5h-126v-301h126z" />
    <glyph glyph-name="uni042D" unicode="&#x42d;" horiz-adv-x="681" 
d="M45 641q94 77 225 77q153 0 258 -104.5t105 -258.5t-105 -258.5t-258 -104.5q-131 0 -225 77l33 50q83 -68 192 -68q121 0 204.5 78.5t93.5 198.5h-357v60h356q-11 118 -94.5 194.5t-202.5 76.5q-110 0 -191 -68z" />
    <glyph glyph-name="uni042E" unicode="&#x42e;" horiz-adv-x="1099" 
d="M327 396q15 139 117 230.5t244 91.5q153 0 258 -104.5t105 -258.5t-105 -258.5t-258 -104.5q-148 0 -251.5 98t-111.5 246h-157v-336h-62v710h62v-314h159zM688 659q-128 0 -213.5 -87.5t-85.5 -216.5t85.5 -216.5t213.5 -87.5t213.5 87.5t85.5 216.5t-85.5 216.5
t-213.5 87.5z" />
    <glyph glyph-name="uni042F" unicode="&#x42f;" horiz-adv-x="614" 
d="M360 710h148v-710h-62v296h-86q-17 0 -25 1l-212 -297h-78l224 306q-78 20 -120.5 71t-42.5 126q0 98 67.5 152.5t186.5 54.5zM446 353v301h-86q-93 0 -141 -39t-48 -112q0 -71 48 -110.5t141 -39.5h86z" />
    <glyph glyph-name="uni0430" unicode="&#x430;" horiz-adv-x="647" 
d="M494 68q-72 -76 -184 -76q-110 0 -182 75t-72 183t72 183t182 75q113 0 184 -77v69h57v-500h-57v68zM494 145v211q-26 44 -73.5 71.5t-110.5 27.5q-85 0 -140 -59.5t-55 -145.5t55 -145.5t140 -59.5q64 0 111.5 27.5t72.5 72.5z" />
    <glyph glyph-name="uni0431" unicode="&#x431;" horiz-adv-x="624" 
d="M341 628q-98 -28 -156.5 -92.5t-70.5 -154.5q31 55 84.5 85.5t118.5 30.5q111 0 179.5 -71t68.5 -176q0 -110 -72 -184t-184 -74t-181.5 74.5t-69.5 194.5v63q0 277 271 356l192 56v-56zM118 250q1 -88 53 -145.5t138 -57.5q87 0 141.5 57.5t54.5 145.5q0 85 -54.5 138.5
t-138.5 53.5q-86 0 -140 -55.5t-54 -136.5z" />
    <glyph glyph-name="uni0432" unicode="&#x432;" horiz-adv-x="541" 
d="M96 0v500h203q70 0 116.5 -32.5t46.5 -94.5q0 -74 -53 -108q40 -13 63.5 -46.5t23.5 -77.5q0 -63 -46 -102t-119 -39h-235zM404 365q0 81 -100 81h-151v-160h151q45 0 72.5 20t27.5 59zM438 144q0 41 -30 66t-74 25h-181v-181h181q44 0 74 24.5t30 65.5z" />
    <glyph glyph-name="uni0433" unicode="&#x433;" horiz-adv-x="397" 
d="M96 0v500h281v-55h-224v-445h-57z" />
    <glyph glyph-name="uni0434" unicode="&#x434;" horiz-adv-x="589" 
d="M519 0h-449v-129h-55v184h57l222 454l223 -454h57v-184h-55v129zM454 55l-160 334l-159 -334h319z" />
    <glyph glyph-name="uni0435" unicode="&#x435;" horiz-adv-x="580" 
d="M54 250q0 107 71.5 182.5t172.5 75.5q103 0 168.5 -66t68.5 -193h-422q0 -85 55.5 -144.5t139.5 -59.5q92 0 156 61l36 -40q-80 -74 -192 -74q-110 0 -182 75t-72 183zM117 300h355q-8 74 -57 114.5t-119 40.5q-65 0 -115.5 -43t-63.5 -112z" />
    <glyph glyph-name="uni0436" unicode="&#x436;" horiz-adv-x="769" 
d="M81 0h-78l283 251l-260 249h74l256 -248v248h57v-248l256 248h74l-260 -249l283 -251h-78l-275 246v-246h-57v246z" />
    <glyph glyph-name="uni0437" unicode="&#x437;" horiz-adv-x="462" 
d="M56 409q23 46 69 72.5t107 26.5q68 0 116 -38.5t48 -97.5q0 -78 -75 -110q45 -13 70.5 -47t25.5 -80q0 -64 -48.5 -103.5t-133.5 -39.5q-133 0 -194 99l49 34q24 -38 57.5 -60t88.5 -22q53 0 88 26t35 68q0 48 -37.5 73t-106.5 25h-69v51h69q58 0 90.5 21t32.5 61
t-29 64.5t-79 24.5q-92 0 -125 -69z" />
    <glyph glyph-name="uni0438" unicode="&#x438;" horiz-adv-x="624" 
d="M96 -8v508h57v-380l375 388v-508h-57v374z" />
    <glyph glyph-name="uni0439" unicode="&#x439;" horiz-adv-x="624" 
d="M482 710q-1 -70 -44 -108.5t-115 -38.5q-73 0 -115.5 39t-43.5 108h52q1 -53 29.5 -79t77.5 -26q48 0 77 26t30 79h52zM96 -8v508h57v-380l375 388v-508h-57v374z" />
    <glyph glyph-name="uni043A" unicode="&#x43a;" horiz-adv-x="509" 
d="M96 500h57v-248l256 248h74l-260 -249l283 -251h-78l-275 246v-246h-57v500z" />
    <glyph glyph-name="uni043B" unicode="&#x43b;" horiz-adv-x="517" 
d="M70 0h-65l253 509l254 -509h-64l-190 388z" />
    <glyph glyph-name="uni043C" unicode="&#x43c;" horiz-adv-x="744" 
d="M591 409l-219 -417l-219 416v-408h-57v500h68l209 -395l206 395h69v-500h-57v409z" />
    <glyph glyph-name="uni043D" unicode="&#x43d;" horiz-adv-x="613" 
d="M153 229v-229h-57v500h57v-216h307v216h57v-500h-57v229h-307z" />
    <glyph glyph-name="uni043E" unicode="&#x43e;" horiz-adv-x="626" 
d="M54 250q0 108 73.5 183t185.5 75t185.5 -75t73.5 -183t-73.5 -183t-185.5 -75t-185.5 75t-73.5 183zM513 250q0 86 -55.5 145.5t-144.5 59.5q-88 0 -144 -59.5t-56 -145.5t56 -145.5t144 -59.5q89 0 144.5 59.5t55.5 145.5z" />
    <glyph glyph-name="uni043F" unicode="&#x43f;" horiz-adv-x="603" 
d="M153 445v-445h-57v500h411v-500h-57v445h-297z" />
    <glyph glyph-name="uni0440" unicode="&#x440;" horiz-adv-x="648" 
d="M96 500h57v-70q72 78 185 78q110 0 182 -75t72 -183t-72 -183t-182 -75q-114 0 -185 77v-253h-57v684zM153 354v-209q25 -44 73 -72t112 -28q85 0 140 59.5t55 145.5t-55 145.5t-140 59.5q-64 0 -112 -28t-73 -73z" />
    <glyph glyph-name="uni0441" unicode="&#x441;" horiz-adv-x="540" 
d="M54 250q0 108 72.5 183t181.5 75q113 0 191 -74l-36 -41q-66 62 -155 62q-84 0 -139.5 -60t-55.5 -145t55.5 -145t139.5 -60q89 0 155 62l36 -41q-78 -74 -191 -74q-109 0 -181.5 75t-72.5 183z" />
    <glyph glyph-name="uni0442" unicode="&#x442;" horiz-adv-x="426" 
d="M182 0v445h-162v55h386v-55h-167v-445h-57z" />
    <glyph glyph-name="uni0443" unicode="&#x443;" horiz-adv-x="511" 
d="M224 55l-214 445h64l180 -389l181 389h64l-329 -684h-61z" />
    <glyph glyph-name="uni0444" unicode="&#x444;" horiz-adv-x="741" 
d="M428 508q112 0 185.5 -75t73.5 -183t-73.5 -183t-185.5 -75h-29v-176h-57v176h-29q-112 0 -185.5 75t-73.5 183t73.5 183t185.5 75h29v202h57v-202h29zM313 455q-90 0 -145 -59t-55 -146q0 -86 55.5 -145.5t144.5 -59.5h29v410h-29zM428 45q89 0 144.5 59.5t55.5 145.5
t-55.5 145.5t-144.5 59.5h-29v-410h29z" />
    <glyph glyph-name="uni0445" unicode="&#x445;" horiz-adv-x="539" 
d="M236 255l-191 245h67l158 -201l158 201h67l-191 -245l201 -255h-67l-168 213l-168 -213h-67z" />
    <glyph glyph-name="uni0446" unicode="&#x446;" horiz-adv-x="618" 
d="M518 0h-422v500h57v-445h298v445h57v-445h65v-184h-55v129z" />
    <glyph glyph-name="uni0447" unicode="&#x447;" horiz-adv-x="553" 
d="M398 0v217q-70 -37 -158 -37q-87 0 -136 45t-49 124v151h59v-141q0 -123 134 -123q84 0 150 39v225h59v-500h-59z" />
    <glyph glyph-name="uni0448" unicode="&#x448;" horiz-adv-x="817" 
d="M153 500v-445h227v445h57v-445h227v445h57v-500h-625v500h57z" />
    <glyph glyph-name="uni0449" unicode="&#x449;" horiz-adv-x="831" 
d="M731 0h-635v500h57v-445h227v445h57v-445h227v445h57v-445h65v-184h-55v129z" />
    <glyph glyph-name="uni044A" unicode="&#x44a;" horiz-adv-x="579" 
d="M352 295q99 0 145.5 -39.5t46.5 -108.5q0 -147 -192 -147h-180v445h-142v55h199v-205h123zM363 54q122 0 122 93q0 94 -122 94h-134v-187h134z" />
    <glyph glyph-name="uni044B" unicode="&#x44b;" horiz-adv-x="683" 
d="M266 295q99 0 145.5 -39.5t46.5 -108.5q0 -147 -192 -147h-170v500h57v-205h113zM551 500h57v-500h-57v500zM277 54q122 0 122 93q0 94 -122 94h-124v-187h124z" />
    <glyph glyph-name="uni044C" unicode="&#x44c;" horiz-adv-x="503" 
d="M276 295q99 0 145.5 -39.5t46.5 -108.5q0 -147 -192 -147h-180v500h57v-205h123zM287 54q124 0 124 93q0 94 -124 94h-134v-187h134z" />
    <glyph glyph-name="uni044D" unicode="&#x44d;" horiz-adv-x="546" 
d="M45 434q78 74 191 74q109 0 181.5 -75t72.5 -183t-72.5 -183t-181.5 -75q-113 0 -191 74l36 41q66 -62 155 -62q78 0 132.5 53t61.5 131h-246v55h244q-11 73 -64.5 122t-127.5 49q-89 0 -155 -62z" />
    <glyph glyph-name="uni044E" unicode="&#x44e;" horiz-adv-x="818" 
d="M248 284q12 97 83 160.5t174 63.5q112 0 185.5 -75t73.5 -183t-73.5 -183t-185.5 -75q-106 0 -178 68t-80 169h-94v-229h-57v500h57v-216h95zM505 455q-88 0 -144 -59.5t-56 -145.5t56 -145.5t144 -59.5q89 0 144.5 59.5t55.5 145.5t-55.5 145.5t-144.5 59.5z" />
    <glyph glyph-name="uni044F" unicode="&#x44f;" horiz-adv-x="523" 
d="M267 500h160v-500h-57v205h-100l-163 -205h-71l165 211q-63 13 -94.5 50.5t-31.5 91.5q0 147 192 147zM370 259v187h-114q-124 0 -124 -93q0 -94 124 -94h114z" />
    <glyph glyph-name="uni0451" unicode="&#x451;" horiz-adv-x="580" 
d="M137 632q0 22 15 37t37 15t37 -15t15 -37t-15 -37t-37 -15t-37 15t-15 37zM357 632q0 22 15 37t37 15t37 -15t15 -37t-15 -37t-37 -15t-37 15t-15 37zM54 250q0 107 71.5 182.5t172.5 75.5q103 0 168.5 -66t68.5 -193h-422q0 -85 55.5 -144.5t139.5 -59.5q92 0 156 61
l36 -40q-80 -74 -192 -74q-110 0 -182 75t-72 183zM117 300h355q-8 74 -57 114.5t-119 40.5q-65 0 -115.5 -43t-63.5 -112z" />
    <glyph glyph-name="uni0452" unicode="&#x452;" horiz-adv-x="573" 
d="M387 583v-55h-213v-201q54 86 165 86q92 0 144.5 -58.5t52.5 -155.5v-34q0 -149 -68.5 -249t-167.5 -100h-11v55h10q72 0 125 78t53 202v36q0 78 -40 125t-109 47q-58 0 -97.5 -31.5t-56.5 -84.5v-243h-57v528h-107v55h107v127h57v-127h213z" />
    <glyph glyph-name="uni0453" unicode="&#x453;" horiz-adv-x="401" 
d="M300 710h81l-118 -165h-54zM96 0v500h281v-55h-224v-445h-57z" />
    <glyph glyph-name="uni0454" unicode="&#x454;" horiz-adv-x="547" 
d="M308 455q-74 0 -127.5 -49t-64.5 -122h244v-55h-246q7 -78 61.5 -131t132.5 -53q89 0 155 62l36 -41q-78 -74 -191 -74q-109 0 -181.5 75t-72.5 183t72.5 183t181.5 75q113 0 191 -74l-36 -41q-66 62 -155 62z" />
    <glyph glyph-name="uni0455" unicode="&#x455;" horiz-adv-x="417" 
d="M38 90l49 30q42 -75 122 -75q48 0 80 22.5t32 59.5t-22.5 59t-76.5 41l-46 16q-115 41 -115 142q0 52 42.5 87.5t108.5 35.5q48 0 85.5 -24t56.5 -68l-49 -21q-25 60 -95 60q-38 0 -64 -19t-26 -52q0 -32 17.5 -54.5t65.5 -39.5l49 -17q127 -45 127 -145q0 -56 -47 -96
t-126 -40q-55 0 -100.5 26t-67.5 72z" />
    <glyph glyph-name="uni0456" unicode="&#x456;" horiz-adv-x="240" 
d="M70 668q0 20 15 35t35 15t35 -15t15 -35q0 -26 -22 -41h-56q-22 15 -22 41zM91 500h57v-500h-57v500z" />
    <glyph glyph-name="uni0457" unicode="&#x457;" horiz-adv-x="199" 
d="M30 684q22 0 37 -15t15 -37t-15 -37t-37 -15t-37 15t-15 37t15 37t37 15zM210 684q22 0 37 -15t15 -37t-15 -37t-37 -15t-37 15t-15 37t15 37t37 15zM91 500h57v-500h-57v500z" />
    <glyph glyph-name="uni0458" unicode="&#x458;" horiz-adv-x="237" 
d="M70 668q0 20 15 35t35 15t35 -15t15 -35q0 -26 -22 -41h-56q-22 15 -22 41zM-15 -129h34q40 0 56 19t16 62v548h57v-541q0 -74 -29.5 -108.5t-100.5 -34.5h-33v55z" />
    <glyph glyph-name="uni0459" unicode="&#x459;" horiz-adv-x="744" 
d="M517 295q99 0 145.5 -39.5t46.5 -108.5q0 -147 -192 -147h-69l-190 389l-189 -389h-64l253 509l107 -214h152zM528 54q122 0 122 93q0 94 -122 94h-136l93 -187h43z" />
    <glyph glyph-name="uni045A" unicode="&#x45a;" horiz-adv-x="807" 
d="M580 295q99 0 145.5 -39.5t46.5 -108.5q0 -147 -192 -147h-150v240h-277v-240h-57v500h57v-205h277v205h57v-205h93zM591 54q124 0 124 93q0 94 -124 94h-104v-187h104z" />
    <glyph glyph-name="uni045B" unicode="&#x45b;" horiz-adv-x="600" 
d="M174 333q60 80 167 80q80 0 129 -51.5t49 -140.5v-221h-57v213q0 70 -36 108.5t-100 38.5q-119 0 -152 -122v-238h-57v528h-107v55h107v127h57v-127h215v-55h-215v-195z" />
    <glyph glyph-name="uni045C" unicode="&#x45c;" horiz-adv-x="509" 
d="M318 710h81l-118 -165h-54zM96 500h57v-248l256 248h74l-260 -249l283 -251h-78l-275 246v-246h-57v500z" />
    <glyph glyph-name="uni045E" unicode="&#x45e;" horiz-adv-x="511" 
d="M417 710q-1 -70 -44 -108.5t-115 -38.5q-73 0 -115.5 39t-43.5 108h52q1 -53 29.5 -79t77.5 -26q48 0 77 26t30 79h52zM224 55l-214 445h64l180 -389l181 389h64l-329 -684h-61z" />
    <glyph glyph-name="uni045F" unicode="&#x45f;" horiz-adv-x="604" 
d="M273 -129v129h-177v500h57v-445h298v445h57v-500h-180v-129h-55z" />
    <glyph glyph-name="uni0462" unicode="&#x462;" horiz-adv-x="604" 
d="M302 414q119 0 186.5 -55t67.5 -152q0 -98 -67.5 -152.5t-186.5 -54.5h-188v560h-104v59h104v91h62v-91h202v-59h-202v-146h126zM302 56q93 0 141 39t48 112t-48 111.5t-141 38.5h-126v-301h126z" />
    <glyph glyph-name="uni0463" unicode="&#x463;" horiz-adv-x="547" 
d="M174 445v-114h123q111 0 163 -44t52 -122q0 -165 -215 -165h-180v445h-107v55h107v210h57v-210h214v-55h-214zM317 54q70 0 103 27t33 85q0 57 -33 84t-103 27h-143v-223h143z" />
    <glyph glyph-name="uni0472" unicode="&#x472;" horiz-adv-x="822" 
d="M411 -8q-153 0 -258 104.5t-105 258.5t105 258.5t258 104.5t258 -104.5t105 -258.5t-105 -258.5t-258 -104.5zM265 424q49 0 144 -23.5t149 -23.5q82 0 148 30q-17 110 -99 181t-196 71q-119 0 -202.5 -77t-94.5 -194q77 36 151 36zM551 321q-54 0 -151 24t-143 24
q-80 0 -144 -41q10 -120 93.5 -198.5t204.5 -78.5q126 0 211.5 85.5t87.5 213.5q-79 -29 -159 -29z" />
    <glyph glyph-name="uni0473" unicode="&#x473;" horiz-adv-x="628" 
d="M315 -8q-112 0 -185.5 75t-73.5 183t73.5 183t185.5 75t185.5 -75t73.5 -183t-73.5 -183t-185.5 -75zM514 276q-9 77 -63.5 128t-135.5 51t-135.5 -51t-63.5 -128h398zM116 225q8 -77 63 -128.5t136 -51.5q82 0 136.5 51t62.5 129h-398z" />
    <glyph glyph-name="uni0474" unicode="&#x474;" horiz-adv-x="684" 
d="M540 618q21 52 50.5 75.5t73.5 23.5v-65q-44 0 -68 -57l-259 -603l-322 718h66l256 -576z" />
    <glyph glyph-name="uni0475" unicode="&#x475;" horiz-adv-x="556" 
d="M392 404q23 51 49 73.5t74 22.5v-57q-25 0 -40 -12.5t-29 -43.5l-182 -395l-254 508h64l190 -388z" />
    <glyph glyph-name="uni0490" unicode="&#x490;" horiz-adv-x="491" 
d="M106 0v710h303v129h62v-189h-303v-650h-62z" />
    <glyph glyph-name="uni0491" unicode="&#x491;" horiz-adv-x="397" 
d="M96 0v500h226v129h55v-184h-224v-445h-57z" />
    <glyph glyph-name="uni0492" unicode="&#x492;" horiz-adv-x="498" 
d="M368 337h-193v-337h-62v337h-93v59h93v314h365v-60h-303v-254h193v-59z" />
    <glyph glyph-name="uni0493" unicode="&#x493;" horiz-adv-x="403" 
d="M303 244h-144v-244h-57v244h-77v51h77v205h281v-55h-224v-150h144v-51z" />
    <glyph glyph-name="uni0496" unicode="&#x496;" horiz-adv-x="1031" 
d="M948 -129v129h-43l-371 337v-337h-62v337l-371 -337h-88l385 348l-358 362h81l351 -354v354h62v-354l351 354h81l-358 -362l319 -288h79v-189h-58z" />
    <glyph glyph-name="uni0497" unicode="&#x497;" horiz-adv-x="781" 
d="M711 -129v129h-23l-275 246v-246h-57v246l-275 -246h-78l283 251l-260 249h74l256 -248v248h57v-248l256 248h74l-260 -249l221 -196h62v-184h-55z" />
    <glyph glyph-name="uni049A" unicode="&#x49a;" horiz-adv-x="665" 
d="M582 -129v129h-42l-372 338v-338h-62v710h62v-355l352 355h80l-358 -362l319 -288h79v-189h-58z" />
    <glyph glyph-name="uni049B" unicode="&#x49b;" horiz-adv-x="521" 
d="M453 -129v129h-25l-275 246v-246h-57v500h57v-248l256 248h74l-260 -249l221 -196h62v-184h-53z" />
    <glyph glyph-name="uni04A2" unicode="&#x4a2;" horiz-adv-x="782" 
d="M675 0h-70v336h-437v-336h-62v710h62v-314h437v314h62v-650h70v-208h-62v148z" />
    <glyph glyph-name="uni04A3" unicode="&#x4a3;" horiz-adv-x="610" 
d="M519 0h-59v229h-307v-229h-57v500h57v-216h307v216h57v-445h55v-184h-53v129z" />
    <glyph glyph-name="uni04AE" unicode="&#x4ae;" 
d="M279 302l-259 408h71l220 -350l219 350h70l-259 -408v-302h-62v302z" />
    <glyph glyph-name="uni04AF" unicode="&#x4af;" horiz-adv-x="528" 
d="M293 -184h-59v189l-228 495h67l190 -433l192 433h67l-229 -496v-188z" />
    <glyph glyph-name="uni04B0" unicode="&#x4b0;" 
d="M341 211v-211h-62v211h-138v59h138v32l-259 408h71l220 -350l219 350h70l-259 -408v-32h138v-59h-138z" />
    <glyph glyph-name="uni04B1" unicode="&#x4b1;" horiz-adv-x="528" 
d="M293 5v-5h109v-55h-109v-128h-59v128h-109v55h109v6l-228 495h67l190 -433l192 433h67z" />
    <glyph glyph-name="uni04B2" unicode="&#x4b2;" horiz-adv-x="700" 
d="M617 0h-46l-235 317l-233 -317h-72l269 365l-255 345h70l219 -297l219 297h72l-254 -346l225 -304h79v-189h-58v129z" />
    <glyph glyph-name="uni04B3" unicode="&#x4b3;" horiz-adv-x="535" 
d="M467 0h-31l-167 213l-167 -213h-67l201 255l-191 245h67l159 -201l158 201h65l-191 -244l159 -201h58v-184h-53v129z" />
    <glyph glyph-name="uni04B6" unicode="&#x4b6;" horiz-adv-x="705" 
d="M598 -148v148h-70v317q-114 -38 -223 -38t-174.5 57t-65.5 146v228h62v-222q0 -74 50.5 -111.5t135.5 -37.5q109 0 215 38v333h62v-650h70v-208h-62z" />
    <glyph glyph-name="uni04B7" unicode="&#x4b7;" horiz-adv-x="548" 
d="M398 0v217q-70 -37 -158 -37q-87 0 -136 45t-49 124v151h59v-141q0 -123 134 -123q84 0 150 39v225h59v-446h63v-182h-52v128h-70z" />
    <glyph glyph-name="uni04BA" unicode="&#x4ba;" horiz-adv-x="696" 
d="M168 710v-317q114 38 223 38t174.5 -57t65.5 -146v-228h-62v222q0 74 -50.5 111.5t-135.5 37.5q-109 0 -215 -38v-333h-62v710h62z" />
    <glyph glyph-name="uni04BB" unicode="&#x4bb;" horiz-adv-x="583" 
d="M96 710h57v-282q53 80 172 80q80 0 131.5 -52t51.5 -140v-316h-57v308q0 70 -38.5 108.5t-102.5 38.5q-62 0 -102 -33.5t-55 -89.5v-332h-57v710z" />
    <glyph glyph-name="uni04C0" unicode="&#x4c0;" horiz-adv-x="274" 
d="M106 710h62v-710h-62v710z" />
    <glyph glyph-name="uni04CF" unicode="&#x4cf;" horiz-adv-x="249" 
d="M96 710h57v-710h-57v710z" />
    <glyph glyph-name="uni04D8" unicode="&#x4d8;" horiz-adv-x="754" 
d="M118 641q94 77 241 77q143 0 245 -105t102 -258q0 -157 -91.5 -260.5t-239.5 -102.5q-155 1 -249.5 99t-95.5 264h612q0 128 -83 216t-200 88q-126 0 -207 -68zM99 296q18 -111 89 -178t187 -67q108 0 175.5 67t86.5 178h-538z" />
    <glyph glyph-name="uni04D9" unicode="&#x4d9;" horiz-adv-x="584" 
d="M530 250q0 -114 -67.5 -186t-170.5 -72q-105 0 -172.5 66t-70.5 193h422q0 85 -54.5 144.5t-134.5 59.5q-98 0 -162 -61l-36 40q80 74 198 74q106 0 177 -75t71 -183zM467 200h-355q8 -74 59 -114.5t123 -40.5q68 0 114 39.5t59 115.5z" />
    <glyph glyph-name="uni04E2" unicode="&#x4e2;" horiz-adv-x="803" 
d="M271 859h278v-50h-278v50zM635 565v-565h62v718l-529 -573v565h-62v-718z" />
    <glyph glyph-name="uni04E3" unicode="&#x4e3;" horiz-adv-x="624" 
d="M173 680h278v-51h-278v51zM96 -8v508h57v-380l375 388v-508h-57v374z" />
    <glyph glyph-name="uni04E8" unicode="&#x4e8;" horiz-adv-x="822" 
d="M411 -8q-153 0 -258 104.5t-105 258.5t105 258.5t258 104.5t258 -104.5t105 -258.5t-105 -258.5t-258 -104.5zM708 396q-14 115 -97 189t-200 74t-200 -74t-97 -189h594zM113 336q7 -123 91 -204t207 -81t207 81t91 204h-596z" />
    <glyph glyph-name="uni04E9" unicode="&#x4e9;" horiz-adv-x="626" 
d="M313 -8q-112 0 -185.5 75t-73.5 183t73.5 183t185.5 75t185.5 -75t73.5 -183t-73.5 -183t-185.5 -75zM512 276q-9 77 -63.5 128t-135.5 51t-135.5 -51t-63.5 -128h398zM114 225q8 -77 63 -128.5t136 -51.5q82 0 136.5 51t62.5 129h-398z" />
    <glyph glyph-name="uni04EE" unicode="&#x4ee;" horiz-adv-x="649" 
d="M205 859h278v-50h-278v50zM268 0h-68l87 162l-287 548h69l253 -483l260 483h67z" />
    <glyph glyph-name="uni04EF" unicode="&#x4ef;" horiz-adv-x="511" 
d="M120 680h278v-51h-278v51zM224 55l-214 445h64l180 -389l181 389h64l-329 -684h-61z" />
    <glyph glyph-name="Wgrave" unicode="&#x1e80;" horiz-adv-x="916" 
d="M322 913h82l82 -145h-56zM22 710h64l178 -549l194 557l194 -557l178 549h64l-241 -718l-195 565l-195 -565z" />
    <glyph glyph-name="wgrave" unicode="&#x1e81;" horiz-adv-x="721" 
d="M216 710h81l91 -165h-54zM30 500h59l126 -400l146 408l145 -408l126 400h59l-159 -500h-41l-130 359l-128 -359h-43z" />
    <glyph glyph-name="Wacute" unicode="&#x1e82;" horiz-adv-x="916" 
d="M513 913h82l-109 -145h-55zM22 710h64l178 -549l194 557l194 -557l178 549h64l-241 -718l-195 565l-195 -565z" />
    <glyph glyph-name="wacute" unicode="&#x1e83;" horiz-adv-x="721" 
d="M425 710h81l-118 -165h-54zM30 500h59l126 -400l146 408l145 -408l126 400h59l-159 -500h-41l-130 359l-128 -359h-43z" />
    <glyph glyph-name="Wdieresis" unicode="&#x1e84;" horiz-adv-x="916" 
d="M295 843q0 22 15 37t37 15t37 -15t15 -37t-15 -37t-37 -15t-37 15t-15 37zM515 843q0 22 15 37t37 15t37 -15t15 -37t-15 -37t-37 -15t-37 15t-15 37zM22 710h64l178 -549l194 557l194 -557l178 549h64l-241 -718l-195 565l-195 -565z" />
    <glyph glyph-name="wdieresis" unicode="&#x1e85;" horiz-adv-x="721" 
d="M199 632q0 22 15 37t37 15t37 -15t15 -37t-15 -37t-37 -15t-37 15t-15 37zM419 632q0 22 15 37t37 15t37 -15t15 -37t-15 -37t-37 -15t-37 15t-15 37zM30 500h59l126 -400l146 408l145 -408l126 400h59l-159 -500h-41l-130 359l-128 -359h-43z" />
    <glyph glyph-name="uni1ECA" unicode="&#x1eca;" horiz-adv-x="266" 
d="M102 710h62v-710h-62v710zM81 -132q0 22 15 37t37 15t37 -15t15 -37t-15 -37t-37 -15t-37 15t-15 37z" />
    <glyph glyph-name="uni1ECB" unicode="&#x1ecb;" horiz-adv-x="239" 
d="M70 668q0 20 15 35t35 15t35 -15t15 -35q0 -26 -22 -41h-56q-22 15 -22 41zM91 500h57v-500h-57v500zM68 -132q0 22 15 37t37 15t37 -15t15 -37t-15 -37t-37 -15t-37 15t-15 37z" />
    <glyph glyph-name="uni1ECC" unicode="&#x1ecc;" horiz-adv-x="808" 
d="M41 355q0 154 105 258.5t258 104.5t258 -104.5t105 -258.5t-105 -258.5t-258 -104.5t-258 104.5t-105 258.5zM703 355q0 129 -85.5 216.5t-213.5 87.5t-213.5 -87.5t-85.5 -216.5t85.5 -216.5t213.5 -87.5t213.5 87.5t85.5 216.5zM352 -132q0 22 15 37t37 15t37 -15
t15 -37t-15 -37t-37 -15t-37 15t-15 37z" />
    <glyph glyph-name="uni1ECD" unicode="&#x1ecd;" 
d="M51 250q0 108 73.5 183t185.5 75t185.5 -75t73.5 -183t-73.5 -183t-185.5 -75t-185.5 75t-73.5 183zM510 250q0 86 -55.5 145.5t-144.5 59.5q-88 0 -144 -59.5t-56 -145.5t56 -145.5t144 -59.5q89 0 144.5 59.5t55.5 145.5zM258 -132q0 22 15 37t37 15t37 -15t15 -37
t-15 -37t-37 -15t-37 15t-15 37z" />
    <glyph glyph-name="uni1EE4" unicode="&#x1ee4;" horiz-adv-x="743" 
d="M93 263v447h62v-450q0 -102 58 -155.5t158 -53.5t158.5 53.5t58.5 155.5v450h62v-447q0 -127 -76.5 -199t-202.5 -72q-125 0 -201.5 72t-76.5 199zM320 -132q0 22 15 37t37 15t37 -15t15 -37t-15 -37t-37 -15t-37 15t-15 37z" />
    <glyph glyph-name="uni1EE5" unicode="&#x1ee5;" horiz-adv-x="567" 
d="M418 70q-55 -78 -171 -78q-81 0 -132.5 52t-51.5 140v316h57v-308q0 -70 39 -108.5t103 -38.5q61 0 101.5 33.5t54.5 88.5v333h57v-500h-57v70zM217 -132q0 22 15 37t37 15t37 -15t15 -37t-15 -37t-37 -15t-37 15t-15 37z" />
    <glyph glyph-name="Ygrave" unicode="&#x1ef2;" 
d="M191 913h82l82 -145h-56zM279 302l-259 408h71l220 -350l219 350h70l-259 -408v-302h-62v302z" />
    <glyph glyph-name="ygrave" unicode="&#x1ef3;" horiz-adv-x="509" 
d="M130 710h81l91 -165h-54zM224 55l-214 445h64l180 -389l181 389h64l-329 -684h-61z" />
    <glyph glyph-name="endash" unicode="&#x2013;" horiz-adv-x="514" 
d="M51 298h412v-55h-412v55z" />
    <glyph glyph-name="emdash" unicode="&#x2014;" horiz-adv-x="810" 
d="M51 298h708v-55h-708v55z" />
    <glyph glyph-name="quoteleft" unicode="&#x2018;" horiz-adv-x="252" 
d="M131 572h42v-103h-96v104l54 137h44z" />
    <glyph glyph-name="quoteright" unicode="&#x2019;" horiz-adv-x="252" 
d="M121 607h-42v103h96v-104l-54 -137h-44z" />
    <glyph glyph-name="quotesinglbase" unicode="&#x201a;" horiz-adv-x="252" 
d="M121 0h-42v103h96v-104l-54 -137h-44z" />
    <glyph glyph-name="quotedblleft" unicode="&#x201c;" horiz-adv-x="436" 
d="M131 572h42v-103h-96v104l54 137h44zM315 572h42v-103h-96v104l54 137h44z" />
    <glyph glyph-name="quotedblright" unicode="&#x201d;" horiz-adv-x="436" 
d="M121 607h-42v103h96v-104l-54 -137h-44zM305 607h-42v103h96v-104l-54 -137h-44z" />
    <glyph glyph-name="quotedblbase" unicode="&#x201e;" horiz-adv-x="436" 
d="M121 0h-42v103h96v-104l-54 -137h-44zM305 0h-42v103h96v-104l-54 -137h-44z" />
    <glyph glyph-name="dagger" unicode="&#x2020;" horiz-adv-x="590" 
d="M266 445h-191v55h191v210h58v-210h191v-55h-191v-543h-58v543z" />
    <glyph glyph-name="daggerdbl" unicode="&#x2021;" horiz-adv-x="590" 
d="M266 112h-191v55h191v278h-191v55h191v210h58v-210h191v-55h-191v-278h191v-55h-191v-210h-58v210z" />
    <glyph glyph-name="bullet" unicode="&#x2022;" horiz-adv-x="418" 
d="M73 302q0 56 40 96t96 40t96 -40t40 -96t-40 -96t-96 -40t-96 40t-40 96z" />
    <glyph glyph-name="ellipsis" unicode="&#x2026;" horiz-adv-x="606" 
d="M42 51q0 25 17 43t42 18t42 -18t17 -43q0 -24 -17.5 -41.5t-41.5 -17.5t-41.5 17.5t-17.5 41.5zM244 51q0 25 17 43t42 18t42 -18t17 -43q0 -24 -17.5 -41.5t-41.5 -17.5t-41.5 17.5t-17.5 41.5zM446 51q0 25 17 43t42 18t42 -18t17 -43q0 -24 -17.5 -41.5t-41.5 -17.5
t-41.5 17.5t-17.5 41.5z" />
    <glyph glyph-name="perthousand" unicode="&#x2030;" horiz-adv-x="812" 
d="M90 576q0 60 42.5 101t102.5 41q62 0 104.5 -41t42.5 -101t-42.5 -100.5t-104.5 -40.5q-60 0 -102.5 40.5t-42.5 100.5zM323 576q0 38 -24.5 63.5t-63.5 25.5q-38 0 -61.5 -25.5t-23.5 -63.5t23.5 -63.5t61.5 -25.5q39 0 63.5 25.5t24.5 63.5zM101 380h620v-55h-620v55z
M90 134q0 60 42 100.5t103 40.5q62 0 104.5 -40.5t42.5 -100.5t-42.5 -101t-104.5 -41q-60 0 -102.5 41t-42.5 101zM430 134q0 60 42 100.5t103 40.5q62 0 104.5 -40.5t42.5 -100.5t-42.5 -101t-104.5 -41q-60 0 -102.5 41t-42.5 101zM323 134q0 38 -24.5 63.5t-63.5 25.5
q-38 0 -61.5 -25.5t-23.5 -63.5t23.5 -63.5t61.5 -25.5q39 0 63.5 25.5t24.5 63.5zM663 134q0 38 -24.5 63.5t-63.5 25.5q-38 0 -61.5 -25.5t-23.5 -63.5t23.5 -63.5t61.5 -25.5q39 0 63.5 25.5t24.5 63.5z" />
    <glyph glyph-name="guilsinglleft" unicode="&#x2039;" horiz-adv-x="276" 
d="M31 250l147 213l46 -30l-126 -183l126 -183l-46 -30z" />
    <glyph glyph-name="guilsinglright" unicode="&#x203a;" horiz-adv-x="276" 
d="M243 250l-147 213l-46 -30l126 -183l-126 -183l46 -30z" />
    <glyph glyph-name="fraction" unicode="&#x2044;" horiz-adv-x="180" 
d="M-135 0l500 710h-50l-500 -710h50z" />
    <glyph glyph-name="Euro" unicode="&#x20ac;" horiz-adv-x="715" 
d="M31 460h117q32 115 125 186.5t217 71.5q116 0 203 -56l-25 -49q-81 52 -178 52q-100 0 -176.5 -56.5t-106.5 -148.5h384l-24 -45h-371q-5 -33 -5 -60q0 -32 4 -56h312l-23 -45h-279q30 -95 106.5 -152t178.5 -57q68 0 126 26v-58q-58 -21 -126 -21q-125 0 -219 72.5
t-124 189.5h-140l24 45h107q-4 24 -4 56q0 33 4 60h-131z" />
    <glyph glyph-name="uni20B4" unicode="&#x20b4;" horiz-adv-x="568" 
d="M435 424h88v-51h-478v51h295q88 44 88 123q0 51 -39.5 81.5t-97.5 30.5q-93 0 -155 -74l-46 43q76 90 198 90q80 0 141 -47t61 -120q0 -85 -55 -127zM45 273v51h478v-51h-339q-43 -38 -43 -100q0 -55 44.5 -88.5t117.5 -33.5q105 0 173 83l47 -43q-34 -40 -93 -69.5
t-127 -29.5q-104 0 -164.5 53t-60.5 137q0 53 32 91h-65z" />
    <glyph glyph-name="uni20B8" unicode="&#x20b8;" horiz-adv-x="505" 
d="M20 710h465v-51h-465v51zM221 559h-201v51h465v-51h-202v-559h-62v559z" />
    <glyph glyph-name="uni20BD" unicode="&#x20bd;" horiz-adv-x="519" 
d="M164 176v-176h-62v176h-81v57h81v63h-81v57h81v357h156q116 0 181 -54t65 -153q0 -97 -65.5 -152t-180.5 -55h-94v-63h184v-57h-184zM258 353q181 0 181 150q0 73 -45.5 112t-135.5 39h-94v-301h94z" />
    <glyph glyph-name="uni2113" unicode="&#x2113;" horiz-adv-x="457" 
d="M134 146v70l-66 -54l-32 45l98 77v233q0 201 120 201q59 0 89.5 -45t30.5 -129q0 -77 -42.5 -140.5t-128.5 -130.5l-11 -9v-110q0 -60 16 -84t50 -24q45 0 85 40l28 -42q-56 -52 -113 -52q-59 0 -91.5 30.5t-32.5 123.5zM192 329l12 10q118 95 118 214q0 48 -17.5 81.5
t-50.5 33.5q-34 0 -47.5 -34.5t-14.5 -102.5v-202z" />
    <glyph glyph-name="uni2116" unicode="&#x2116;" horiz-adv-x="1156" 
d="M164 565v-565h-62v718l529 -573v565h62v-718zM765 560q0 65 44.5 110t111.5 45t111 -45t44 -110t-44 -110t-111 -45t-111.5 45t-44.5 110zM1028 560q0 47 -30 79t-77 32t-77 -32t-30 -79t30 -79t77 -32t77 32t30 79zM775 342h291v-53h-291v53z" />
    <glyph glyph-name="uni2117" unicode="&#x2117;" horiz-adv-x="808" 
d="M41 355q0 150 107 256.5t256 106.5q150 0 256.5 -106.5t106.5 -256.5t-106.5 -256.5t-256.5 -106.5q-149 0 -256 106.5t-107 256.5zM710 355q0 127 -90 217t-217 90q-126 0 -216 -90t-90 -217q0 -126 90 -216t216 -90q127 0 217 90t90 216zM295 565h148q61 0 97.5 -37.5
t36.5 -90.5q0 -54 -36.5 -91.5t-97.5 -37.5h-93v-161h-55v418zM440 361q38 0 58.5 22.5t20.5 51.5t-20.5 51.5t-58.5 22.5h-90v-148h90z" />
    <glyph glyph-name="trademark" unicode="&#x2122;" horiz-adv-x="896" 
d="M409 730l197 -204l195 204v-419h-53v296l-142 -148l-144 148v-296h-53v419zM178 660h-113v50h279v-50h-114v-349h-52v349z" />
    <glyph glyph-name="estimated" unicode="&#x212e;" horiz-adv-x="596" 
d="M51 252q0 112 71.5 184t178.5 72q112 0 177.5 -72.5t66.5 -180.5h-382v-194q21 -22 62.5 -36.5t87.5 -14.5q66 0 119.5 35.5t75.5 97.5h24q-23 -67 -81.5 -109t-145.5 -42q-113 0 -183.5 74.5t-70.5 185.5zM163 273h270v167q-48 50 -133 50q-81 0 -137 -50v-167z" />
    <glyph glyph-name="uni2153" unicode="&#x2153;" horiz-adv-x="731" 
d="M78 677l47 47v-440h-47v393zM88 0l500 710h-50l-500 -710h50zM443 62l37 27q11 -22 34 -36.5t50 -14.5q42 0 69 27t27 69q0 43 -27 70.5t-72 27.5h-37l89 150h-153v44h226l-91 -155q52 -9 82.5 -47t30.5 -90q0 -58 -40 -98.5t-103 -40.5q-37 0 -70.5 18.5t-51.5 48.5z
" />
    <glyph glyph-name="uni2154" unicode="&#x2154;" horiz-adv-x="865" 
d="M196 466q-14 -3 -26 -3q-53 1 -88 37.5t-35 87.5q0 53 37 90t90 37q54 0 91 -37t37 -90q0 -38 -17.5 -71.5t-59.5 -79.5l-100 -109h178v-44h-277zM222 0l500 710h-50l-500 -710h50zM256 588q0 36 -23.5 60t-58.5 24t-57.5 -24t-22.5 -60t22.5 -59.5t57.5 -23.5t58.5 23.5
t23.5 59.5zM577 62l37 27q11 -22 34 -36.5t50 -14.5q42 0 69 27t27 69q0 43 -27 70.5t-72 27.5h-37l89 150h-153v44h226l-91 -155q52 -9 82.5 -47t30.5 -90q0 -58 -40 -98.5t-103 -40.5q-37 0 -70.5 18.5t-51.5 48.5z" />
    <glyph glyph-name="uni2155" unicode="&#x2155;" horiz-adv-x="730" 
d="M78 677l47 47v-440h-47v393zM88 0l500 710h-50l-500 -710h50zM443 62l37 27q11 -22 34 -36.5t51 -14.5q41 0 68 27t27 68q0 43 -26.5 70.5t-70.5 27.5q-39 0 -68 -33l-33 14v214h213v-44h-166v-122q26 14 55 14q66 0 105 -40.5t39 -100.5q0 -58 -40 -98t-102 -40
q-38 0 -71.5 18.5t-51.5 48.5z" />
    <glyph glyph-name="uni2156" unicode="&#x2156;" horiz-adv-x="864" 
d="M196 466q-14 -3 -26 -3q-53 1 -88 37.5t-35 87.5q0 53 37 90t90 37q54 0 91 -37t37 -90q0 -38 -17.5 -71.5t-59.5 -79.5l-100 -109h178v-44h-277zM222 0l500 710h-50l-500 -710h50zM256 588q0 36 -23.5 60t-58.5 24t-57.5 -24t-22.5 -60t22.5 -59.5t57.5 -23.5t58.5 23.5
t23.5 59.5zM577 62l37 27q11 -22 34 -36.5t51 -14.5q41 0 68 27t27 68q0 43 -26.5 70.5t-70.5 27.5q-39 0 -68 -33l-33 14v214h213v-44h-166v-122q26 14 55 14q66 0 105 -40.5t39 -100.5q0 -58 -40 -98t-102 -40q-38 0 -71.5 18.5t-51.5 48.5z" />
    <glyph glyph-name="uni2157" unicode="&#x2157;" horiz-adv-x="835" 
d="M40 346l37 27q11 -22 34 -36.5t50 -14.5q42 0 69 27t27 69q0 43 -27 70.5t-72 27.5h-37l89 150h-153v44h226l-91 -155q52 -9 82.5 -47t30.5 -90q0 -58 -40 -98.5t-103 -40.5q-37 0 -70.5 18.5t-51.5 48.5zM193 0l500 710h-50l-500 -710h50zM548 62l37 27q11 -22 34 -36.5
t51 -14.5q41 0 68 27t27 68q0 43 -26.5 70.5t-70.5 27.5q-39 0 -68 -33l-33 14v214h213v-44h-166v-122q26 14 55 14q66 0 105 -40.5t39 -100.5q0 -58 -40 -98t-102 -40q-38 0 -71.5 18.5t-51.5 48.5z" />
    <glyph glyph-name="uni2158" unicode="&#x2158;" horiz-adv-x="838" 
d="M218 404h-243l290 320v-277h57v-43h-57v-120h-47v120zM196 0l500 710h-50l-500 -710h50zM218 447v161l-146 -161h146zM551 62l37 27q11 -22 34 -36.5t51 -14.5q41 0 68 27t27 68q0 43 -26.5 70.5t-70.5 27.5q-39 0 -68 -33l-33 14v214h213v-44h-166v-122q26 14 55 14
q66 0 105 -40.5t39 -100.5q0 -58 -40 -98t-102 -40q-38 0 -71.5 18.5t-51.5 48.5z" />
    <glyph glyph-name="uni2159" unicode="&#x2159;" horiz-adv-x="724" 
d="M78 677l47 47v-440h-47v393zM88 0l500 710h-50l-500 -710h50zM423 134q0 39 24 78l129 214h52l-96 -159q15 6 33 6q59 -1 99 -41.5t40 -97.5q0 -58 -41 -98.5t-100 -40.5q-58 0 -99 40.5t-41 98.5zM656 134q0 40 -26 67.5t-67 27.5q-40 0 -66 -27.5t-26 -67.5t26 -68
t66 -28q41 0 67 28t26 68z" />
    <glyph glyph-name="uni215A" unicode="&#x215a;" horiz-adv-x="828" 
d="M40 346l37 27q11 -22 34 -36.5t51 -14.5q41 0 68 27t27 68q0 43 -26.5 70.5t-70.5 27.5q-39 0 -68 -33l-33 14v214h213v-44h-166v-122q26 14 55 14q66 0 105 -40.5t39 -100.5q0 -58 -40 -98t-102 -40q-38 0 -71.5 18.5t-51.5 48.5zM192 0l500 710h-50l-500 -710h50z
M527 134q0 39 24 78l129 214h52l-96 -159q15 6 33 6q59 -1 99 -41.5t40 -97.5q0 -58 -41 -98.5t-100 -40.5q-58 0 -99 40.5t-41 98.5zM760 134q0 40 -26 67.5t-67 27.5q-40 0 -66 -27.5t-26 -67.5t26 -68t66 -28q41 0 67 28t26 68z" />
    <glyph glyph-name="oneeighth" unicode="&#x215b;" horiz-adv-x="753" 
d="M78 677l47 47v-440h-47v393zM88 0l500 710h-50l-500 -710h50zM441 132q0 38 18.5 69.5t49.5 49.5q-34 29 -34 77q0 44 30 73.5t73 29.5t73 -29.5t30 -73.5q0 -48 -34 -77q31 -18 49.5 -49.5t18.5 -69.5q0 -58 -40 -97.5t-97 -39.5t-97 39.5t-40 97.5zM582 269
q23 2 37.5 18t14.5 41t-16 42t-40 17t-40 -17t-16 -42t16 -42t40 -17h4zM667 132q0 39 -26 66.5t-63 27.5t-62.5 -27.5t-25.5 -66.5t25.5 -66t62.5 -27t63 27t26 66z" />
    <glyph glyph-name="threeeighths" unicode="&#x215c;" horiz-adv-x="859" 
d="M40 346l37 27q11 -22 34 -36.5t50 -14.5q42 0 69 27t27 69q0 43 -27 70.5t-72 27.5h-37l89 150h-153v44h226l-91 -155q52 -9 82.5 -47t30.5 -90q0 -58 -40 -98.5t-103 -40.5q-37 0 -70.5 18.5t-51.5 48.5zM193 0l500 710h-50l-500 -710h50zM546 132q0 38 18.5 69.5
t49.5 49.5q-34 29 -34 77q0 44 30 73.5t73 29.5t73 -29.5t30 -73.5q0 -48 -34 -77q31 -18 49.5 -49.5t18.5 -69.5q0 -58 -40 -97.5t-97 -39.5t-97 39.5t-40 97.5zM687 269q23 2 37.5 18t14.5 41t-16 42t-40 17t-40 -17t-16 -42t16 -42t40 -17h4zM772 132q0 39 -26 66.5
t-63 27.5t-62.5 -27.5t-25.5 -66.5t25.5 -66t62.5 -27t63 27t26 66z" />
    <glyph glyph-name="fiveeighths" unicode="&#x215d;" horiz-adv-x="857" 
d="M40 346l37 27q11 -22 34 -36.5t51 -14.5q41 0 68 27t27 68q0 43 -26.5 70.5t-70.5 27.5q-39 0 -68 -33l-33 14v214h213v-44h-166v-122q26 14 55 14q66 0 105 -40.5t39 -100.5q0 -58 -40 -98t-102 -40q-38 0 -71.5 18.5t-51.5 48.5zM192 0l500 710h-50l-500 -710h50z
M545 132q0 38 18.5 69.5t49.5 49.5q-34 29 -34 77q0 44 30 73.5t73 29.5t73 -29.5t30 -73.5q0 -48 -34 -77q31 -18 49.5 -49.5t18.5 -69.5q0 -58 -40 -97.5t-97 -39.5t-97 39.5t-40 97.5zM686 269q23 2 37.5 18t14.5 41t-16 42t-40 17t-40 -17t-16 -42t16 -42t40 -17h4z
M771 132q0 39 -26 66.5t-63 27.5t-62.5 -27.5t-25.5 -66.5t25.5 -66t62.5 -27t63 27t26 66z" />
    <glyph glyph-name="seveneighths" unicode="&#x215e;" horiz-adv-x="801" 
d="M235 666h-207v44h277l-205 -426h-50zM135 0l500 710h-50l-500 -710h50zM488 132q0 38 18.5 69.5t49.5 49.5q-34 29 -34 77q0 44 30 73.5t73 29.5t73 -29.5t30 -73.5q0 -48 -34 -77q31 -18 49.5 -49.5t18.5 -69.5q0 -58 -40 -97.5t-97 -39.5t-97 39.5t-40 97.5zM629 269
q23 2 37.5 18t14.5 41t-16 42t-40 17t-40 -17t-16 -42t16 -42t40 -17h4zM714 132q0 39 -26 66.5t-63 27.5t-62.5 -27.5t-25.5 -66.5t25.5 -66t62.5 -27t63 27t26 66z" />
    <glyph glyph-name="uni215F" unicode="&#x215f;" horiz-adv-x="403" 
d="M78 677l47 47v-440h-47v393zM88 0l500 710h-50l-500 -710h50z" />
    <glyph glyph-name="arrowleft" unicode="&#x2190;" horiz-adv-x="800" 
d="M40 250l306 306l33 -35l-246 -246h627v-50h-627l246 -247l-33 -34z" />
    <glyph glyph-name="arrowup" unicode="&#x2191;" horiz-adv-x="800" 
d="M375 627l-247 -246l-34 33l306 306l306 -306l-35 -33l-246 246v-627h-50v627z" />
    <glyph glyph-name="arrowright" unicode="&#x2192;" horiz-adv-x="800" 
d="M421 -21l246 246h-627v50h627l-246 247l33 34l306 -306l-306 -306z" />
    <glyph glyph-name="arrowdown" unicode="&#x2193;" horiz-adv-x="800" 
d="M706 296l-35 33l-246 -246v627h-50v-627l-247 246l-34 -33l306 -306z" />
    <glyph glyph-name="uni2196" unicode="&#x2196;" horiz-adv-x="800" 
d="M694 52l-473 472h351v48h-433v-432h47v349l473 -472z" />
    <glyph glyph-name="uni2197" unicode="&#x2197;" horiz-adv-x="800" 
d="M107 52l473 472h-351v48h433v-432h-47v349l-473 -472z" />
    <glyph glyph-name="uni2198" unicode="&#x2198;" horiz-adv-x="800" 
d="M659 0v432h-47v-349l-473 472l-35 -35l473 -472h-351v-48h433z" />
    <glyph glyph-name="uni2199" unicode="&#x2199;" horiz-adv-x="800" 
d="M139 432h47v-349l473 472l35 -35l-473 -472h351v-48h-433v432z" />
    <glyph glyph-name="uni219E" unicode="&#x219e;" horiz-adv-x="800" 
d="M332 225h-199l246 -247l-33 -34l-306 306l306 306l33 -35l-246 -246h199l281 281l33 -35l-247 -246h361v-50h-361l247 -247l-33 -34z" />
    <glyph glyph-name="uni219F" unicode="&#x219f;" horiz-adv-x="800" 
d="M94 147l281 281v199l-247 -246l-34 33l306 306l306 -306l-35 -33l-246 246v-199l281 -281l-35 -33l-246 247v-361h-50v361l-247 -247z" />
    <glyph glyph-name="uni21A0" unicode="&#x21a0;" horiz-adv-x="800" 
d="M468 225h199l-246 -247l33 -34l306 306l-306 306l-33 -35l246 -246h-199l-281 281l-33 -35l247 -246h-361v-50h361l-247 -247l33 -34z" />
    <glyph glyph-name="uni21A1" unicode="&#x21a1;" horiz-adv-x="800" 
d="M706 296l-35 33l-246 -246v199l281 281l-35 33l-246 -247v361h-50v-361l-247 247l-34 -33l281 -281v-199l-247 246l-34 -33l306 -306z" />
    <glyph glyph-name="uni21A2" unicode="&#x21a2;" horiz-adv-x="800" 
d="M793 -21l-272 271l272 272l-33 34l-281 -281h-391l246 247l-33 34l-306 -306l306 -306l33 35l-246 246h391l281 -281z" />
    <glyph glyph-name="uni21A3" unicode="&#x21a3;" horiz-adv-x="800" 
d="M1 -21l272 271l-272 272l33 34l281 -281h391l-246 247l33 34l306 -306l-306 -306l-33 35l246 246h-391l-281 -281z" />
    <glyph glyph-name="uni21A4" unicode="&#x21a4;" horiz-adv-x="800" 
d="M678 225h-577l246 -247l-33 -34l-306 306l306 306l33 -35l-246 -246h577v225h50v-500h-50v225z" />
    <glyph glyph-name="uni21A5" unicode="&#x21a5;" horiz-adv-x="800" 
d="M150 50h225v577l-247 -246l-34 33l306 306l306 -306l-35 -33l-246 246v-577h225v-50h-500v50z" />
    <glyph glyph-name="uni21A6" unicode="&#x21a6;" horiz-adv-x="800" 
d="M124 0v225h577l-246 -247l33 -34l306 306l-306 306l-33 -35l246 -246h-577v225h-50v-500h50z" />
    <glyph glyph-name="uni21A7" unicode="&#x21a7;" horiz-adv-x="800" 
d="M375 660v-577l-247 246l-34 -33l306 -306l306 306l-35 33l-246 -246v577h225v50h-500v-50h225z" />
    <glyph glyph-name="uni21B0" unicode="&#x21b0;" horiz-adv-x="800" 
d="M736 -184v459h-627l246 247l-33 34l-306 -306l306 -306l33 35l-246 246h577v-409h50z" />
    <glyph glyph-name="uni21B1" unicode="&#x21b1;" horiz-adv-x="800" 
d="M64 275h627l-246 247l33 34l306 -306l-306 -306l-33 35l246 246h-577v-409h-50v459z" />
    <glyph glyph-name="uni21B2" unicode="&#x21b2;" horiz-adv-x="800" 
d="M16 248l306 306l33 -35l-246 -246h577v409h50v-459h-627l246 -247l-33 -34z" />
    <glyph glyph-name="uni21B3" unicode="&#x21b3;" horiz-adv-x="800" 
d="M784 248l-306 306l-33 -35l246 -246h-577v409h-50v-459h627l-246 -247l33 -34z" />
    <glyph glyph-name="partialdiff" unicode="&#x2202;" horiz-adv-x="622" 
d="M51 250q0 108 73.5 183t185.5 75q124 0 189 -84q-26 108 -102 173.5t-189 65.5h-8v55h5q80 0 144 -27t104.5 -70t68 -100.5t38.5 -114.5t11 -115q0 -137 -72.5 -218t-188.5 -81q-112 0 -185.5 75t-73.5 183zM510 250q0 86 -55.5 145.5t-144.5 59.5q-88 0 -144 -59.5
t-56 -145.5t56 -145.5t144 -59.5q89 0 144.5 59.5t55.5 145.5z" />
    <glyph glyph-name="product" unicode="&#x220f;" horiz-adv-x="689" 
d="M112 710h465v-894h-57v839h-351v-839h-57v894z" />
    <glyph glyph-name="summation" unicode="&#x2211;" horiz-adv-x="638" 
d="M75 -130l258 393l-258 393v54h483v-55h-411l254 -392l-254 -392h411v-55h-483v54z" />
    <glyph glyph-name="minus" unicode="&#x2212;" horiz-adv-x="664" 
d="M112 298h440v-55h-440v55z" />
    <glyph glyph-name="radical" unicode="&#x221a;" horiz-adv-x="747" 
d="M149 264h-84v55h121l113 -224l271 680h132v-55h-92l-305 -749z" />
    <glyph glyph-name="infinity" unicode="&#x221e;" horiz-adv-x="879" 
d="M440 191q-50 -81 -150 -81q-77 0 -127.5 50.5t-50.5 123.5t50.5 123t127.5 50q100 0 150 -81q48 81 149 81q77 0 127.5 -50t50.5 -123t-50.5 -123.5t-127.5 -50.5q-101 0 -149 81zM413 284q0 51 -34 87t-89 36q-54 0 -88 -36t-34 -87t33.5 -87.5t88.5 -36.5t89 36.5
t34 87.5zM712 284q0 51 -34 87t-89 36t-89 -36t-34 -87t34 -87.5t89 -36.5t89 36.5t34 87.5z" />
    <glyph glyph-name="integral" unicode="&#x222b;" horiz-adv-x="384" 
d="M74 -129h11q52 0 64.5 12.5t12.5 62.5v643q0 68 25.5 94.5t99.5 26.5h23v-55h-11q-52 0 -64.5 -12.5t-12.5 -62.5v-643q0 -68 -25.5 -94.5t-99.5 -26.5h-23v55z" />
    <glyph glyph-name="approxequal" unicode="&#x2248;" horiz-adv-x="643" 
d="M112 351l108 73l198 -76l113 74v-60l-109 -76l-198 76l-112 -76v65zM112 183l108 73l198 -76l113 74v-60l-109 -76l-198 76l-112 -76v65z" />
    <glyph glyph-name="notequal" unicode="&#x2260;" horiz-adv-x="673" 
d="M112 408h293l88 122l43 -30l-67 -92h92v-54h-131l-120 -167h251v-54h-290l-92 -128l-42 31l70 97h-95v54h134l120 167h-254v54z" />
    <glyph glyph-name="lessequal" unicode="&#x2264;" horiz-adv-x="683" 
d="M86 308l477 208v-61l-330 -147l330 -147v-61zM86 55h477v-55h-477v55z" />
    <glyph glyph-name="greaterequal" unicode="&#x2265;" horiz-adv-x="683" 
d="M120 161l330 147l-330 147v61l477 -208l-477 -208v61zM120 55h477v-55h-477v55z" />
    <glyph glyph-name="filledbox" unicode="&#x25a0;" horiz-adv-x="684" 
d="M92 500h500v-500h-500v500z" />
    <glyph glyph-name="uni25A1" unicode="&#x25a1;" horiz-adv-x="684" 
d="M92 500h500v-500h-500v500zM149 55h386v390h-386v-390z" />
    <glyph glyph-name="uni25AB" unicode="&#x25ab;" horiz-adv-x="684" 
d="M92 500h500v-500h-500v500zM149 55h386v390h-386v-390z" />
    <glyph glyph-name="uni25B3" unicode="&#x25b3;" horiz-adv-x="771" 
d="M385 717l376 -717h-751zM664 55l-279 538l-282 -538h561z" />
    <glyph glyph-name="uni25B5" unicode="&#x25b5;" horiz-adv-x="572" 
d="M286 516l276 -516h-552zM471 55l-185 349l-185 -349h370z" />
    <glyph glyph-name="uni25BD" unicode="&#x25bd;" horiz-adv-x="771" 
d="M10 710h751l-376 -717zM664 655h-561l282 -538z" />
    <glyph glyph-name="uni25BF" unicode="&#x25bf;" horiz-adv-x="572" 
d="M10 500h552l-276 -516zM471 445h-370l185 -349z" />
    <glyph glyph-name="lozenge" unicode="&#x25ca;" horiz-adv-x="699" 
d="M75 355l274 365l275 -365l-275 -364zM554 355l-205 270l-204 -270l204 -271z" />
    <glyph glyph-name="circle" unicode="&#x25cb;" 
d="M51 250q0 108 73.5 183t185.5 75t185.5 -75t73.5 -183t-73.5 -183t-185.5 -75t-185.5 75t-73.5 183zM510 250q0 86 -55.5 145.5t-144.5 59.5q-88 0 -144 -59.5t-56 -145.5t56 -145.5t144 -59.5q89 0 144.5 59.5t55.5 145.5z" />
    <glyph glyph-name="uni25CF" unicode="&#x25cf;" horiz-adv-x="619" 
d="M51 250q0 108 74 183t185 75t184.5 -75t73.5 -183t-73.5 -183t-184.5 -75t-185 75t-74 183z" />
    <glyph glyph-name="uni25EF" unicode="&#x25ef;" horiz-adv-x="808" 
d="M41 355q0 154 105 258.5t258 104.5t258 -104.5t105 -258.5t-105 -258.5t-258 -104.5t-258 104.5t-105 258.5zM703 355q0 129 -85.5 216.5t-213.5 87.5t-213.5 -87.5t-85.5 -216.5t85.5 -216.5t213.5 -87.5t213.5 87.5t85.5 216.5z" />
    <glyph glyph-name="uni25FB" unicode="&#x25fb;" horiz-adv-x="914" 
d="M102 710h710v-710h-710v710zM750 59v592h-586v-592h586z" />
    <glyph glyph-name="uniF6D1" unicode="&#xf6d1;" horiz-adv-x="600" 
d="M456 914q-1 -70 -44 -108.5t-115 -38.5q-73 0 -115.5 39t-43.5 108h52q1 -53 29.5 -79t77.5 -26q48 0 77 26t30 79h52z" />
    <glyph glyph-name="uniF6D4" unicode="&#xf6d4;" horiz-adv-x="600" 
d="M448 710q-1 -70 -44 -108.5t-115 -38.5q-73 0 -115.5 39t-43.5 108h52q1 -53 29.5 -79t77.5 -26q48 0 77 26t30 79h52z" />
    <glyph glyph-name="uniF8FF" unicode="&#xf8ff;" horiz-adv-x="577" 
d="M31 250q0 106 75.5 182t182.5 76l-60 -151h88l-52 -137l188 194h-117l33 81q78 -26 128 -93.5t50 -151.5q0 -106 -75.5 -182t-182.5 -76t-182.5 76t-75.5 182z" />
    <glyph glyph-name="fi" unicode="&#xfb01;" horiz-adv-x="593" 
d="M424 668q0 20 15 35t35 15t35 -15t15 -35q0 -26 -22 -41h-56q-22 15 -22 41zM23 500h91q-40 34 -40 90q0 53 41 86.5t108 33.5h101v-54h-104q-38 0 -63 -19t-25 -55q0 -39 24.5 -60.5t57.5 -21.5h110v-55h-146v-445h-57v445h-98v55zM445 500h57v-500h-57v500z" />
    <glyph glyph-name="fl" unicode="&#xfb02;" horiz-adv-x="595" 
d="M23 500h91q-40 34 -40 90q0 53 41 86.5t108 33.5h101v-54h-104q-38 0 -63 -19t-25 -55q0 -39 24.5 -60.5t57.5 -21.5h110v-55h-146v-445h-57v445h-98v55zM446 710h57v-710h-57v710z" />
    <glyph glyph-name="uni0432.loclBGR" horiz-adv-x="561" 
d="M379 393q54 -17 91 -67.5t37 -118.5q0 -97 -55.5 -154t-149.5 -57h-24q-90 0 -138.5 52t-48.5 142v334q0 90 48.5 142t138.5 52q89 0 138 -52.5t49 -124.5q0 -48 -25 -89.5t-61 -58.5zM278 665q-58 0 -94 -33t-36 -94v-126h127q60 0 96.5 37t36.5 89q0 61 -36 94t-94 33z
M307 49q71 0 106 48.5t35 109.5q0 26 -7.5 50.5t-23.5 48.5t-48.5 38.5t-76.5 14.5h-144v-183q0 -61 36 -94t94 -33h29z" />
    <glyph glyph-name="uni0433.loclBGR" horiz-adv-x="418" 
d="M212 -8q-79 0 -126 40t-47 96q0 100 127 145l49 17q48 17 65.5 39.5t17.5 54.5q0 33 -26 52t-64 19q-70 0 -95 -60l-49 21q19 44 56.5 68t85.5 24q66 0 108.5 -35.5t42.5 -87.5q0 -101 -115 -142l-46 -16q-54 -19 -76.5 -41t-22.5 -59t32 -59.5t80 -22.5q80 0 122 75
l49 -30q-22 -46 -67.5 -72t-100.5 -26z" />
    <glyph glyph-name="uni0434.loclBGR" horiz-adv-x="626" 
d="M85 -134l30 48q33 -24 84 -39.5t103 -15.5q80 0 135.5 36.5t55.5 111.5q0 49 -15 78q-70 -76 -181 -76q-109 0 -177.5 72t-68.5 177q0 106 68.5 178t177.5 72q108 0 180 -75v67h57v-397q18 -50 18 -97q0 -52 -22 -92t-59.5 -63t-81.5 -34t-94 -11q-122 0 -210 60z
M477 159v199q-24 44 -70.5 70.5t-109.5 26.5q-84 0 -135.5 -56t-51.5 -141q0 -83 51.5 -139.5t135.5 -56.5q63 0 109.5 27t70.5 70z" />
    <glyph glyph-name="uni0437.loclBGR" horiz-adv-x="463" 
d="M60 -42q62 -99 159 -99q69 0 107 41.5t38 102.5q0 59 -38.5 102.5t-112.5 43.5h-84v53h82q54 0 92.5 39t38.5 94q0 46 -31 83t-88 37q-85 0 -144 -85l-50 33q71 105 194 105q85 0 131.5 -50.5t46.5 -122.5q0 -102 -88 -157q52 -20 81 -69t29 -106q0 -88 -53 -142.5
t-151 -54.5q-79 0 -126.5 30.5t-82.5 86.5z" />
    <glyph glyph-name="uni0438.loclBGR" horiz-adv-x="567" 
d="M418 70q-55 -78 -171 -78q-81 0 -132.5 52t-51.5 140v316h57v-308q0 -70 39 -108.5t103 -38.5q61 0 101.5 33.5t54.5 88.5v333h57v-500h-57v70z" />
    <glyph glyph-name="uni0439.loclBGR" horiz-adv-x="567" 
d="M428 710q-1 -70 -44 -108.5t-115 -38.5q-73 0 -115.5 39t-43.5 108h52q1 -53 29.5 -79t77.5 -26q48 0 77 26t30 79h52zM418 70q-55 -78 -171 -78q-81 0 -132.5 52t-51.5 140v316h57v-308q0 -70 39 -108.5t103 -38.5q61 0 101.5 33.5t54.5 88.5v333h57v-500h-57v70z" />
    <glyph glyph-name="uni043F.loclBGR" horiz-adv-x="585" 
d="M92 500h57v-72q53 80 172 80q80 0 131.5 -52t51.5 -140v-316h-57v308q0 70 -38.5 108.5t-102.5 38.5q-62 0 -102 -33.5t-55 -89.5v-332h-57v500z" />
    <glyph glyph-name="uni0442.loclBGR" horiz-adv-x="881" 
d="M743 308q0 69 -35.5 108t-93.5 39q-54 0 -90 -32.5t-50 -88.5q1 -6 1 -18v-316h-57v308q0 69 -36 108t-94 39q-51 0 -87.5 -29.5t-51.5 -78.5v-347h-57v500h57v-65q54 73 154 73q48 0 87.5 -24t61.5 -68q57 92 170 92q80 0 129 -51.5t49 -140.5v-316h-57v308z" />
    <glyph glyph-name="uni0446.loclBGR" horiz-adv-x="585" 
d="M501 55h39v-184h-55v129q-28 4 -44.5 24.5t-16.5 46.5q-59 -79 -177 -79q-81 0 -132.5 52t-51.5 140v316h57v-308q0 -70 39 -108.5t103 -38.5q61 0 101.5 33.5t54.5 88.5v333h57v-385q0 -31 5.5 -45.5t20.5 -14.5z" />
    <glyph glyph-name="uni0448.loclBGR" horiz-adv-x="881" 
d="M138 192q0 -69 35.5 -108t93.5 -39q54 0 90 32.5t50 88.5q-1 6 -1 18v316h57v-308q0 -69 36 -108t94 -39q51 0 87.5 29.5t51.5 78.5v347h57v-500h-57v65q-54 -73 -154 -73q-48 0 -87.5 24t-61.5 68q-57 -92 -170 -92q-80 0 -129 51.5t-49 140.5v316h57v-308z" />
    <glyph glyph-name="uni0449.loclBGR" horiz-adv-x="899" 
d="M588 -8q-112 0 -159 92q-57 -92 -170 -92q-80 0 -129 51.5t-49 140.5v316h57v-308q0 -69 35.5 -108t93.5 -39q54 0 90 32.5t50 88.5q-1 6 -1 18v316h57v-308q0 -69 36 -108t94 -39q51 0 87.5 29.5t51.5 78.5v347h57v-385q0 -31 5.5 -45.5t20.5 -14.5h39v-184h-55v129
q-25 4 -40.5 20t-19.5 38q-51 -66 -151 -66z" />
    <glyph glyph-name="uni044E.loclBGR" horiz-adv-x="818" 
d="M248 284q12 97 83 160.5t174 63.5q112 0 185.5 -75t73.5 -183t-73.5 -183t-185.5 -75q-106 0 -178 68t-80 169h-94v-229h-57v710h57v-426h95zM505 455q-88 0 -144 -59.5t-56 -145.5t56 -145.5t144 -59.5q89 0 144.5 59.5t55.5 145.5t-55.5 145.5t-144.5 59.5z" />
    <glyph glyph-name="uni044C.loclBGR" horiz-adv-x="498" 
d="M91 139v361h57v-205h123q192 0 192 -152q0 -151 -186 -151q-96 0 -141 39t-45 108zM282 46q124 0 124 97q0 98 -124 98h-134v-102q0 -93 124 -93h10z" />
    <glyph glyph-name="uni044A.loclBGR" horiz-adv-x="579" 
d="M30 445v55h199v-205h123q192 0 192 -152q0 -151 -186 -151q-96 0 -141 39t-45 108v306h-142zM363 46q124 0 124 97q0 98 -124 98h-134v-102q0 -93 124 -93h10z" />
    <glyph glyph-name="uni0431.loclSRB" horiz-adv-x="616" 
d="M316 497q111 0 178.5 -71t67.5 -176q0 -110 -71 -184t-183 -74t-183 74t-71 184q0 68 29 123.5t82 87.5q-67 41 -67 125q0 53 39 88.5t113 35.5h263l-13 -55h-256q-41 0 -63.5 -22t-22.5 -57q0 -34 24 -56.5t62 -22.5h72zM308 47q87 0 140.5 57.5t53.5 145.5
q0 85 -53.5 138.5t-137.5 53.5h-6q-84 0 -137.5 -53.5t-53.5 -138.5q0 -88 53.5 -145.5t140.5 -57.5z" />
    <glyph glyph-name="dotaccent.low" horiz-adv-x="121" 
d="M9 -132q0 22 15 37t37 15t37 -15t15 -37t-15 -37t-37 -15t-37 15t-15 37z" />
    <glyph glyph-name="caron.slovak" horiz-adv-x="500" 
d="M243 710h58l-42 -167h-41z" />
    <glyph glyph-name="zero.slashed" horiz-adv-x="818" 
d="M46 355q0 154 105 258.5t258 104.5t258 -104.5t105 -258.5t-105 -258.5t-258 -104.5t-258 104.5t-105 258.5zM114 287l574 196q-35 82 -109.5 131.5t-169.5 49.5q-131 0 -216.5 -88t-85.5 -221q0 -39 7 -68zM713 355q0 40 -9 76l-576 -196q34 -86 108.5 -137.5
t172.5 -51.5q131 0 217.5 88.5t86.5 220.5z" />
    <glyph glyph-name="one.pof" horiz-adv-x="261" 
d="M102 498l57 58v-556h-57v498z" />
    <glyph glyph-name="two.pof" horiz-adv-x="477" 
d="M400 0v55h-234l178 195q60 65 60 132q0 69 -49.5 117.5t-119.5 48.5t-119.5 -48.5t-49.5 -117.5t49.5 -117.5t119.5 -48.5l-197 -216h362zM125 382q0 48 30 81.5t80 33.5t80.5 -33.5t30.5 -81.5t-30.5 -82t-80.5 -34t-80 34t-30 82z" />
    <glyph glyph-name="three.pof" horiz-adv-x="517" 
d="M29 -67l36 41q65 -63 155 -63q86 0 139.5 48t53.5 131q0 79 -53.5 124.5t-148.5 39.5h-3l128 231h-280v55h372l-133 -239q81 -17 129 -71.5t48 -139.5q0 -105 -70.5 -168.5t-181.5 -63.5q-114 0 -191 75z" />
    <glyph glyph-name="four.pof" horiz-adv-x="579" 
d="M407 75h-428l485 473v-419h103v-54h-103v-209h-57v209zM407 129v289l-296 -289h296z" />
    <glyph glyph-name="five.pof" horiz-adv-x="549" 
d="M48 -59l36 41q69 -71 158 -71q82 0 130.5 48.5t48.5 121.5q0 74 -48 122.5t-130 48.5q-73 0 -125 -44l-35 20v312h355v-55h-298v-201q48 21 103 21q110 0 174 -64t64 -160q0 -94 -65 -158.5t-174 -64.5q-59 0 -111 24t-83 59z" />
    <glyph glyph-name="six.pof" horiz-adv-x="505" 
d="M37 207q0 53 26 105l183 362h60l-137 -268q38 16 83 16q94 0 155.5 -62.5t61.5 -152.5t-61.5 -152.5t-155.5 -62.5q-93 0 -154 62.5t-61 152.5zM410 207q0 67 -44 114.5t-114 47.5q-68 0 -112.5 -47.5t-44.5 -114.5t44.5 -114.5t112.5 -47.5q70 0 114 47t44 115z" />
    <glyph glyph-name="seven.pof" horiz-adv-x="504" 
d="M398 485h-367v55h454l-332 -674h-60z" />
    <glyph glyph-name="eight.pof" horiz-adv-x="586" 
d="M73 212q0 65 35 118.5t92 80.5q-61 45 -61 120q0 62 45.5 106.5t108.5 44.5t108.5 -44.5t45.5 -106.5q0 -75 -61 -120q57 -27 92 -80.5t35 -118.5q0 -91 -64.5 -155.5t-155.5 -64.5t-155.5 64.5t-64.5 155.5zM297 432q39 1 64.5 30t25.5 69q0 41 -27 69.5t-67 28.5
t-67 -28.5t-27 -69.5q0 -40 25.5 -69t64.5 -30h8zM454 212q0 70 -46.5 119t-114.5 49h-6q-66 -2 -110.5 -51t-44.5 -117q0 -69 46.5 -118t114.5 -49t114.5 49t46.5 118z" />
    <glyph glyph-name="nine.pof" horiz-adv-x="505" 
d="M469 333q0 -53 -26 -105l-183 -362h-60l137 268q-38 -16 -83 -16q-94 0 -155.5 62.5t-61.5 152.5t61.5 152.5t155.5 62.5q93 0 154 -62.5t61 -152.5zM96 333q0 -67 44 -114.5t114 -47.5q68 0 112.5 47.5t44.5 114.5t-44.5 114.5t-112.5 47.5q-70 0 -114 -47t-44 -115z
" />
    <glyph glyph-name="zero.pof" horiz-adv-x="660" 
d="M51 270q0 117 79 197.5t200 80.5t200 -80.5t79 -197.5t-79 -197.5t-200 -80.5t-200 80.5t-79 197.5zM550 270q0 97 -60.5 161t-159.5 64q-98 0 -159 -64.5t-61 -160.5t61 -160.5t159 -64.5q99 0 159.5 64t60.5 161z" />
    <glyph glyph-name="zero.slashed.pof" horiz-adv-x="660" 
d="M51 270q0 117 79 197.5t200 80.5t200 -80.5t79 -197.5t-79 -197.5t-200 -80.5t-200 80.5t-79 197.5zM114 223l418 142q-25 59 -77.5 94.5t-124.5 35.5q-98 0 -159 -64.5t-61 -160.5q0 -27 4 -47zM550 270q0 17 -4 47l-418 -143q25 -59 78 -94t124 -35q99 0 159.5 64
t60.5 161z" />
    <glyph glyph-name="one.tlf" horiz-adv-x="590" 
d="M186 710h144v-655h138v-55h-333v55h138v600h-87v55z" />
    <glyph glyph-name="two.tlf" horiz-adv-x="590" 
d="M362 320q-32 -13 -67 -13q-86 0 -146 59t-60 146t60 146.5t146 59.5q85 0 145.5 -60t60.5 -146q0 -69 -32.5 -130t-112.5 -145l-173 -182h319v-55h-446zM443 512q0 66 -42.5 109.5t-105.5 43.5q-64 0 -106 -43.5t-42 -109.5t42 -109.5t106 -43.5q63 0 105.5 43.5
t42.5 109.5z" />
    <glyph glyph-name="three.tlf" horiz-adv-x="590" 
d="M73 107l49 31q19 -40 60.5 -66.5t91.5 -26.5q74 0 124 49t50 125q0 80 -50 130.5t-129 50.5h-59l159 255h-268v55h362l-161 -259q94 -12 149.5 -78t55.5 -154q0 -93 -66 -160t-168 -67q-61 0 -116 32t-84 83z" />
    <glyph glyph-name="four.tlf" horiz-adv-x="590" 
d="M405 210h-419l476 508v-453h103v-55h-103v-210h-57v210zM405 265v315l-295 -315h295z" />
    <glyph glyph-name="five.tlf" horiz-adv-x="591" 
d="M83 107l49 31q20 -40 61.5 -66.5t90.5 -26.5q74 0 124 49.5t50 125.5q0 79 -49.5 129.5t-129.5 50.5q-61 0 -119 -53l-43 19v344h345v-55h-288v-231q51 29 105 29q108 0 173.5 -68.5t65.5 -164.5q0 -93 -66.5 -160.5t-168.5 -67.5q-61 0 -116 32t-84 83z" />
    <glyph glyph-name="six.tlf" horiz-adv-x="591" 
d="M65 222q0 65 39 129l220 359h64l-167 -270q37 13 74 13q96 0 163.5 -68t67.5 -163t-67.5 -162.5t-163.5 -67.5t-163 67.5t-67 162.5zM467 222q0 74 -49 126t-123 52q-73 0 -122 -52t-49 -126t48.5 -125.5t122.5 -51.5t123 51.5t49 125.5z" />
    <glyph glyph-name="seven.tlf" horiz-adv-x="590" 
d="M455 655h-367v55h454l-349 -710h-60z" />
    <glyph glyph-name="eight.tlf" horiz-adv-x="591" 
d="M526 222q0 69 -37 125.5t-98 83.5q64 48 64 128q0 68 -46.5 113.5t-113.5 45.5t-113 -45.5t-46 -113.5q0 -80 63 -128q-60 -27 -97 -83.5t-37 -125.5q0 -95 67 -162.5t163 -67.5t163.5 67.5t67.5 162.5zM290 452q-43 1 -69 31.5t-26 75.5q0 46 27 76t73 30t73.5 -30
t27.5 -76q0 -45 -26.5 -75.5t-70.5 -31.5h-9zM124 222q0 74 49 126.5t122 52.5t122.5 -52.5t49.5 -126.5t-49 -125.5t-123 -51.5t-122.5 51.5t-48.5 125.5z" />
    <glyph glyph-name="nine.tlf" horiz-adv-x="591" 
d="M370 270q-37 -13 -74 -13q-96 0 -163.5 68t-67.5 163t67.5 162.5t163.5 67.5q95 0 162.5 -67.5t67.5 -162.5q0 -65 -39 -129l-221 -359h-63zM467 488q0 74 -48.5 125.5t-122.5 51.5t-123 -51.5t-49 -125.5t49 -126t123 -52q73 0 122 52t49 126z" />
    <glyph glyph-name="zero.tlf" horiz-adv-x="590" 
d="M16 270q0 117 79 197.5t200 80.5t200 -80.5t79 -197.5t-79 -197.5t-200 -80.5t-200 80.5t-79 197.5zM515 270q0 97 -60.5 161t-159.5 64q-98 0 -159 -64.5t-61 -160.5t61 -160.5t159 -64.5q99 0 159.5 64t60.5 161z" />
    <glyph glyph-name="zero.slashed.tlf" horiz-adv-x="590" 
d="M16 270q0 117 79 197.5t200 80.5t200 -80.5t79 -197.5t-79 -197.5t-200 -80.5t-200 80.5t-79 197.5zM79 223l418 142q-25 59 -77.5 94.5t-124.5 35.5q-98 0 -159 -64.5t-61 -160.5q0 -27 4 -47zM515 270q0 17 -4 47l-418 -143q25 -59 78 -94t124 -35q99 0 159.5 64
t60.5 161z" />
    <glyph glyph-name="one.case" horiz-adv-x="286" 
d="M112 656l62 62v-718h-62v656z" />
    <glyph glyph-name="two.case" horiz-adv-x="558" 
d="M347 320q-32 -13 -67 -13q-86 0 -146 59t-60 146t60 146.5t146 59.5q85 0 145.5 -60t60.5 -146q0 -70 -31 -131t-109 -144l-173 -178h314v-59h-446zM423 512q0 62 -41 105.5t-102 43.5t-102 -43.5t-41 -105.5t41 -105.5t102 -43.5t102 43.5t41 105.5z" />
    <glyph glyph-name="three.case" horiz-adv-x="539" 
d="M48 109l52 33q21 -42 61 -67.5t87 -25.5q69 0 118 50.5t49 122.5q0 73 -49 123.5t-118 50.5h-75l159 255h-260v59h362l-161 -258q87 -10 146 -76t59 -154q0 -95 -67.5 -162.5t-162.5 -67.5q-63 0 -116.5 32t-83.5 85z" />
    <glyph glyph-name="four.case" horiz-adv-x="614" 
d="M427 208h-419l481 510v-451h103v-59h-103v-208h-62v208zM427 267v301l-284 -301h284z" />
    <glyph glyph-name="five.case" horiz-adv-x="559" 
d="M68 110l51 33q21 -43 61 -68.5t88 -25.5q69 0 118 50.5t49 122.5q0 73 -49 123.5t-118 50.5q-70 0 -120 -52l-51 22v344h345v-59h-283v-226q51 28 109 28q95 0 162.5 -68t67.5 -163t-67.5 -162.5t-162.5 -67.5q-63 0 -116 32t-84 86z" />
    <glyph glyph-name="six.case" horiz-adv-x="580" 
d="M61 222q0 64 40 130l219 358h70l-165 -267q30 10 66 10q95 0 162.5 -68t67.5 -163t-67.5 -162.5t-162.5 -67.5t-162.5 68t-67.5 162zM458 222q0 73 -49 123.5t-118 50.5t-118 -50.5t-49 -123.5q0 -72 49 -122.5t118 -50.5t118 50.5t49 122.5z" />
    <glyph glyph-name="seven.case" horiz-adv-x="524" 
d="M401 651h-360v59h454l-349 -710h-65z" />
    <glyph glyph-name="eight.case" horiz-adv-x="582" 
d="M61 222q0 67 36 123t95 85q-62 47 -62 127q0 67 47 114t114 47q66 0 113 -47t47 -114q0 -78 -61 -127q59 -28 95 -84.5t36 -123.5q0 -95 -67.5 -162.5t-162.5 -67.5t-162.5 68t-67.5 162zM295 453q41 1 67 31t26 73q0 45 -27 74.5t-70 29.5q-44 0 -71 -29.5t-27 -74.5
q0 -43 26 -73t67 -31h9zM124 222q0 -72 49 -122.5t118 -50.5t118 50.5t49 122.5q0 70 -47 120.5t-114 53.5h-6q-69 0 -118 -50.5t-49 -123.5z" />
    <glyph glyph-name="nine.case" horiz-adv-x="580" 
d="M355 267q-30 -10 -66 -10q-95 0 -162.5 68t-67.5 163t67.5 162.5t162.5 67.5t162.5 -68t67.5 -162q0 -64 -40 -130l-219 -358h-70zM456 488q0 72 -49 122.5t-118 50.5t-118 -50.5t-49 -122.5q0 -73 49 -123.5t118 -50.5t118 50.5t49 123.5z" />
    <glyph glyph-name="zero.case" horiz-adv-x="838" 
d="M56 355q0 154 105 258.5t258 104.5t258 -104.5t105 -258.5t-105 -258.5t-258 -104.5t-258 104.5t-105 258.5zM711 355q0 130 -84 216t-208 86t-208 -86t-84 -216t84 -216t208 -86t208 86t84 216z" />
    <glyph glyph-name="zero.slashed.case" horiz-adv-x="838" 
d="M782 355q0 154 -105 258.5t-258 104.5t-258 -104.5t-105 -258.5t105 -258.5t258 -104.5t258 104.5t105 258.5zM690 472l-555 -189q-8 37 -8 72q0 130 84 216t208 86q92 0 165.5 -50.5t105.5 -134.5zM150 231l554 189q7 -37 7 -65q0 -130 -84 -216t-208 -86
q-91 0 -163.5 48.5t-105.5 129.5z" />
    <glyph glyph-name="a.superior" horiz-adv-x="375" 
d="M279 442q-42 -37 -99 -37q-66 0 -109.5 44.5t-43.5 110.5t43.5 110.5t109.5 44.5q57 0 99 -37v32h47v-300h-47v32zM279 500v120q-32 51 -98 51q-46 0 -75.5 -32t-29.5 -79t29.5 -79t75.5 -32q66 0 98 51z" />
    <glyph glyph-name="b.superior" horiz-adv-x="375" 
d="M49 836h47v-158q40 37 99 37q66 0 109.5 -44.5t43.5 -110.5t-43.5 -110.5t-109.5 -44.5q-59 0 -99 37v-32h-47v426zM96 620v-120q32 -51 98 -51q46 0 75.5 32t29.5 79t-29.5 79t-75.5 32q-66 0 -98 -51z" />
    <glyph glyph-name="c.superior" horiz-adv-x="318" 
d="M27 560q0 65 44 110t110 45q67 0 114 -47l-30 -33q-36 36 -84 36q-45 0 -75 -32.5t-30 -78.5t30 -78.5t75 -32.5q48 0 84 36l30 -33q-47 -47 -114 -47q-66 0 -110 45t-44 110z" />
    <glyph glyph-name="d.superior" horiz-adv-x="375" 
d="M279 410v32q-42 -37 -99 -37q-66 0 -109.5 44.5t-43.5 110.5t43.5 110.5t109.5 44.5q57 0 99 -37v158h47v-426h-47zM279 620q-32 51 -98 51q-46 0 -75.5 -32t-29.5 -79t29.5 -79t75.5 -32q66 0 98 51v120z" />
    <glyph glyph-name="e.superior" horiz-adv-x="346" 
d="M27 560q0 65 43.5 110t106.5 45t103.5 -43t41.5 -121h-247q3 -43 33 -72.5t73 -29.5q52 0 89 37l30 -33q-46 -48 -119 -48q-66 0 -110 45t-44 110zM78 592h191q-5 38 -31.5 59t-63.5 21q-35 0 -61.5 -22t-34.5 -58z" />
    <glyph glyph-name="f.superior" horiz-adv-x="214" 
d="M13 710h51q-22 20 -22 53q0 32 24.5 52.5t63.5 20.5h68v-43h-62q-21 0 -34.5 -10.5t-13.5 -29.5q0 -20 14.5 -31.5t32.5 -11.5h63v-43h-84v-257h-47v257h-54v43z" />
    <glyph glyph-name="g.superior" horiz-adv-x="368" 
d="M48 329l25 40q42 -32 105 -32q44 0 74 19t30 60q0 25 -8 41q-38 -39 -99 -39q-66 0 -107 42.5t-41 105.5q0 64 41 106.5t107 42.5q58 0 98 -38v33h47v-239q11 -31 11 -58q0 -61 -45.5 -90t-110.5 -29q-74 0 -127 35zM273 513v107q-30 51 -97 51q-44 0 -72 -29.5
t-28 -75.5q0 -44 28 -74t72 -30q67 0 97 51z" />
    <glyph glyph-name="h.superior" horiz-adv-x="348" 
d="M49 836h47v-161q32 40 95 40q51 0 82.5 -32.5t31.5 -87.5v-185h-47v181q0 36 -21 58t-56 22q-67 0 -85 -65v-196h-47v426z" />
    <glyph glyph-name="i.superior" horiz-adv-x="144" 
d="M37 805q0 15 10 25.5t25 10.5t25 -10.5t10 -25.5q0 -17 -12 -27h-46q-12 10 -12 27zM48 710h47v-300h-47v300z" />
    <glyph glyph-name="j.superior" horiz-adv-x="146" 
d="M39 806q0 14 10 24.5t24 10.5q15 0 25 -10.5t10 -24.5q0 -18 -11 -27h-47q-11 9 -11 27zM-13 343h19q44 0 44 48v319h47v-324q0 -86 -87 -86h-23v43z" />
    <glyph glyph-name="k.superior" horiz-adv-x="308" 
d="M49 836h47v-261l137 135h59l-144 -142l158 -158h-62l-148 149v-149h-47v426z" />
    <glyph glyph-name="l.superior" horiz-adv-x="144" 
d="M49 836h47v-426h-47v426z" />
    <glyph glyph-name="m.superior" horiz-adv-x="526" 
d="M437 591q0 36 -19.5 58t-51.5 22q-59 0 -77 -65q0 -2 0.5 -5.5t0.5 -5.5v-185h-47v181q0 36 -19.5 58t-52.5 22q-55 0 -75 -59v-202h-47v300h47v-35q30 40 86 40q61 0 91 -51q37 51 100 51q51 0 81 -32.5t30 -87.5v-185h-47v181z" />
    <glyph glyph-name="n.superior" horiz-adv-x="348" 
d="M49 710h47v-35q32 40 95 40q51 0 82.5 -32.5t31.5 -87.5v-185h-47v181q0 36 -21 58t-56 22q-67 0 -85 -65v-196h-47v300z" />
    <glyph glyph-name="o.superior" horiz-adv-x="365" 
d="M27 560q0 65 44.5 110t111.5 45t111 -45t44 -110t-44 -110t-111 -45t-111.5 45t-44.5 110zM290 560q0 47 -30 79t-77 32t-77 -32t-30 -79t30 -79t77 -32t77 32t30 79z" />
    <glyph glyph-name="p.superior" horiz-adv-x="375" 
d="M49 710h47v-32q40 37 99 37q66 0 109.5 -44.5t43.5 -110.5t-43.5 -110.5t-109.5 -44.5q-59 0 -99 37v-142h-47v410zM96 620v-120q32 -51 98 -51q46 0 75.5 32t29.5 79t-29.5 79t-75.5 32q-66 0 -98 -51z" />
    <glyph glyph-name="q.superior" horiz-adv-x="375" 
d="M279 442q-42 -37 -99 -37q-66 0 -109.5 44.5t-43.5 110.5t43.5 110.5t109.5 44.5q57 0 99 -37v32h47v-410h-47v142zM279 500v120q-32 51 -98 51q-46 0 -75.5 -32t-29.5 -79t29.5 -79t75.5 -32q66 0 98 51z" />
    <glyph glyph-name="r.superior" horiz-adv-x="215" 
d="M96 410v206q22 50 78 50q11 0 27 -4v49q-14 2 -21 2q-53 0 -84 -40v37h-47v-300h47z" />
    <glyph glyph-name="s.superior" horiz-adv-x="252" 
d="M18 465l38 25q23 -42 68 -42q24 0 40.5 11t16.5 29t-12 29.5t-41 22.5l-25 9q-70 25 -70 88q0 33 26 55.5t66 22.5q64 0 89 -55l-37 -20q-16 32 -52 32q-19 0 -32 -9.5t-13 -25.5q0 -33 45 -49l26 -9q77 -27 77 -89q0 -36 -28.5 -60.5t-76.5 -24.5q-71 0 -105 60z" />
    <glyph glyph-name="t.superior" horiz-adv-x="220" 
d="M1 710h59v67l47 25v-92h91l-9 -43h-82v-166q0 -48 46 -48h39v-43h-43q-89 0 -89 85v172h-50z" />
    <glyph glyph-name="u.superior" horiz-adv-x="341" 
d="M292 410v300h-47v-196q-19 -65 -85 -65q-35 0 -56.5 22t-21.5 58v181h-46v-185q0 -55 31.5 -87.5t82.5 -32.5q63 0 95 40v-35h47z" />
    <glyph glyph-name="v.superior" horiz-adv-x="320" 
d="M3 710h53l104 -210l104 210h53l-157 -305z" />
    <glyph glyph-name="w.superior" horiz-adv-x="432" 
d="M14 710h49l69 -224l84 230l84 -230l70 224h48l-95 -300h-37l-70 192l-69 -192h-38z" />
    <glyph glyph-name="x.superior" horiz-adv-x="324" 
d="M134 563l-112 147h54l87 -113l86 113h54l-112 -147l117 -153h-55l-91 119l-92 -119h-54z" />
    <glyph glyph-name="y.superior" horiz-adv-x="306" 
d="M128 437l-124 273h51l98 -222l98 222h51l-188 -410h-49z" />
    <glyph glyph-name="z.superior" horiz-adv-x="302" 
d="M198 667h-162v43h244l-180 -257h175v-43h-258z" />
    <glyph glyph-name="four.superior" horiz-adv-x="353" 
d="M240 530h-243l290 320v-277h57v-43h-57v-120h-47v120zM240 573v167l-151 -167h151z" />
    <glyph glyph-name="five.superior" horiz-adv-x="325" 
d="M31 472l38 27q11 -22 34 -36.5t51 -14.5q41 0 68 27t27 68q0 43 -27 70.5t-71 27.5q-39 0 -68 -33l-32 14v214h212v-44h-165v-122q24 14 54 14q66 0 105 -40.5t39 -100.5q0 -58 -39.5 -98t-101.5 -40q-38 0 -72 18.5t-52 48.5z" />
    <glyph glyph-name="six.superior" horiz-adv-x="329" 
d="M24 544q0 36 24 78l129 214h52l-96 -159q15 6 33 6q58 -1 98.5 -41.5t40.5 -97.5q0 -58 -41 -98.5t-100 -40.5q-58 0 -99 40.5t-41 98.5zM257 544q0 40 -26 67.5t-67 27.5q-40 0 -66 -27.5t-26 -67.5t26 -68t66 -28q41 0 67 28t26 68z" />
    <glyph glyph-name="seven.superior" horiz-adv-x="303" 
d="M224 792h-206v44h277l-205 -426h-50z" />
    <glyph glyph-name="eight.superior" horiz-adv-x="331" 
d="M28 542q0 38 19 69.5t50 49.5q-34 29 -34 77q0 44 30 73.5t73 29.5t73 -29.5t30 -73.5q0 -47 -35 -77q31 -18 50 -49.5t19 -69.5q0 -58 -40 -97.5t-97 -39.5t-97.5 39.5t-40.5 97.5zM222 738q0 25 -16.5 42t-39.5 17q-24 0 -40.5 -17t-16.5 -42t16.5 -42t40.5 -17
q23 0 39.5 17t16.5 42zM162 636q-36 -1 -60.5 -28.5t-24.5 -65.5q0 -39 25.5 -66t63.5 -27q37 0 62.5 27t25.5 66q0 38 -24.5 65.5t-60.5 28.5h-7z" />
    <glyph glyph-name="nine.superior" horiz-adv-x="329" 
d="M197 569q-17 -6 -35 -6q-58 2 -98 42t-40 97q0 58 41 98.5t99 40.5q59 0 100 -40.5t41 -98.5q0 -37 -25 -78l-128 -214h-52zM257 702q0 40 -26 68t-67 28q-40 0 -66 -28t-26 -68t26 -67.5t66 -27.5q41 0 67 27.5t26 67.5z" />
    <glyph glyph-name="zero.superior" horiz-adv-x="477" 
d="M20 623q0 92 63 155t155 63t155.5 -63t63.5 -155t-63.5 -155t-155.5 -63t-155 63t-63 155zM409 623q0 75 -48.5 124.5t-122.5 49.5q-73 0 -121 -49.5t-48 -124.5t48 -124.5t121 -49.5q74 0 122.5 49.5t48.5 124.5z" />
    <glyph glyph-name="zero.slashed.superior" horiz-adv-x="477" 
d="M20 623q0 92 63 155t155 63t155.5 -63t63.5 -155t-63.5 -155t-155.5 -63t-155 63t-63 155zM71 589l322 109q-20 45 -61.5 72t-93.5 27q-73 0 -121 -49.5t-48 -124.5q0 -23 2 -34zM409 623q0 19 -3 35l-323 -109q20 -46 61 -73t94 -27q74 0 122.5 49.5t48.5 124.5z" />
    <glyph glyph-name="period.superior" horiz-adv-x="153" 
d="M35 448q0 17 12.5 29.5t29.5 12.5t29 -13t12 -30t-12 -29.5t-29 -12.5t-29.5 13t-12.5 30z" />
    <glyph glyph-name="hyphen.superior" horiz-adv-x="200" 
d="M28 638h143v-49h-143v49z" />
    <glyph glyph-name="comma.superior" horiz-adv-x="148" 
d="M69 410h-29v71h69v-72l-34 -84h-32z" />
    <glyph glyph-name="equal.superior" horiz-adv-x="326" 
d="M29 699h268v-44h-268v44zM29 572h268v-44h-268v44z" />
    <glyph glyph-name="plus.superior" horiz-adv-x="321" 
d="M28 636h110v105h45v-105h110v-45h-110v-107h-45v107h-110v45z" />
    <glyph glyph-name="minus.superior" horiz-adv-x="322" 
d="M29 634h264v-41h-264v41z" />
    <glyph glyph-name="parenleft.superior" horiz-adv-x="144" 
d="M34 572q0 142 65 275l38 -16q-60 -124 -60 -259t60 -258l-38 -17q-65 133 -65 275z" />
    <glyph glyph-name="parenright.superior" horiz-adv-x="144" 
d="M109 572q0 144 -64 275l-38 -16q59 -125 59 -259t-59 -258l38 -17q64 131 64 275z" />
    <glyph glyph-name="a.inferior" horiz-adv-x="375" 
d="M279 -83q-42 -37 -99 -37q-66 0 -109.5 44.5t-43.5 110.5t43.5 110.5t109.5 44.5q57 0 99 -37v32h47v-300h-47v32zM279 -25v120q-32 51 -98 51q-46 0 -75.5 -32t-29.5 -79t29.5 -79t75.5 -32q66 0 98 51z" />
    <glyph glyph-name="b.inferior" horiz-adv-x="375" 
d="M49 311h47v-158q40 37 99 37q66 0 109.5 -44.5t43.5 -110.5t-43.5 -110.5t-109.5 -44.5q-59 0 -99 37v-32h-47v426zM96 95v-120q32 -51 98 -51q46 0 75.5 32t29.5 79t-29.5 79t-75.5 32q-66 0 -98 -51z" />
    <glyph glyph-name="c.inferior" horiz-adv-x="318" 
d="M27 35q0 65 44 110t110 45q67 0 114 -47l-30 -33q-36 36 -84 36q-45 0 -75 -32.5t-30 -78.5t30 -78.5t75 -32.5q48 0 84 36l30 -33q-47 -47 -114 -47q-66 0 -110 45t-44 110z" />
    <glyph glyph-name="d.inferior" horiz-adv-x="375" 
d="M279 -115v32q-42 -37 -99 -37q-66 0 -109.5 44.5t-43.5 110.5t43.5 110.5t109.5 44.5q57 0 99 -37v158h47v-426h-47zM279 95q-32 51 -98 51q-46 0 -75.5 -32t-29.5 -79t29.5 -79t75.5 -32q66 0 98 51v120z" />
    <glyph glyph-name="e.inferior" horiz-adv-x="346" 
d="M27 35q0 65 43.5 110t106.5 45t103.5 -43t41.5 -121h-247q3 -43 33 -72.5t73 -29.5q52 0 89 37l30 -33q-46 -48 -119 -48q-66 0 -110 45t-44 110zM78 67h191q-5 38 -31.5 59t-63.5 21q-35 0 -61.5 -22t-34.5 -58z" />
    <glyph glyph-name="f.inferior" horiz-adv-x="214" 
d="M13 185h51q-22 20 -22 53q0 32 24.5 52.5t63.5 20.5h68v-43h-62q-21 0 -34.5 -10.5t-13.5 -29.5q0 -20 14.5 -31.5t32.5 -11.5h63v-43h-84v-257h-47v257h-54v43z" />
    <glyph glyph-name="g.inferior" horiz-adv-x="368" 
d="M48 -196l25 40q42 -32 105 -32q44 0 74 19t30 60q0 25 -8 41q-38 -39 -99 -39q-66 0 -107 42.5t-41 105.5q0 64 41 106.5t107 42.5q58 0 98 -38v33h47v-239q11 -31 11 -58q0 -61 -45.5 -90t-110.5 -29q-74 0 -127 35zM273 -12v107q-30 51 -97 51q-44 0 -72 -29.5
t-28 -75.5q0 -44 28 -74t72 -30q67 0 97 51z" />
    <glyph glyph-name="h.inferior" horiz-adv-x="348" 
d="M49 311h47v-161q32 40 95 40q51 0 82.5 -32.5t31.5 -87.5v-185h-47v181q0 36 -21 58t-56 22q-67 0 -85 -65v-196h-47v426z" />
    <glyph glyph-name="i.inferior" horiz-adv-x="144" 
d="M37 280q0 15 10 25.5t25 10.5t25 -10.5t10 -25.5q0 -16 -12 -27h-46q-12 11 -12 27zM48 185h47v-300h-47v300z" />
    <glyph glyph-name="j.inferior" horiz-adv-x="146" 
d="M39 281q0 14 10 24.5t24 10.5q15 0 25 -10.5t10 -24.5q0 -18 -11 -27h-47q-11 9 -11 27zM-13 -182h19q44 0 44 48v319h47v-324q0 -86 -87 -86h-23v43z" />
    <glyph glyph-name="k.inferior" horiz-adv-x="308" 
d="M49 311h47v-261l137 135h59l-144 -142l158 -158h-62l-148 149v-149h-47v426z" />
    <glyph glyph-name="l.inferior" horiz-adv-x="144" 
d="M49 311h47v-426h-47v426z" />
    <glyph glyph-name="m.inferior" horiz-adv-x="526" 
d="M437 66q0 36 -19.5 58t-51.5 22q-59 0 -77 -65q0 -2 0.5 -5.5t0.5 -5.5v-185h-47v181q0 36 -19.5 58t-52.5 22q-55 0 -75 -59v-202h-47v300h47v-35q30 40 86 40q61 0 91 -51q37 51 100 51q51 0 81 -32.5t30 -87.5v-185h-47v181z" />
    <glyph glyph-name="n.inferior" horiz-adv-x="348" 
d="M49 185h47v-35q32 40 95 40q51 0 82.5 -32.5t31.5 -87.5v-185h-47v181q0 36 -21 58t-56 22q-67 0 -85 -65v-196h-47v300z" />
    <glyph glyph-name="o.inferior" horiz-adv-x="365" 
d="M27 35q0 65 44.5 110t111.5 45t111 -45t44 -110t-44 -110t-111 -45t-111.5 45t-44.5 110zM290 35q0 47 -30 79t-77 32t-77 -32t-30 -79t30 -79t77 -32t77 32t30 79z" />
    <glyph glyph-name="p.inferior" horiz-adv-x="375" 
d="M49 185h47v-32q40 37 99 37q66 0 109.5 -44.5t43.5 -110.5t-43.5 -110.5t-109.5 -44.5q-59 0 -99 37v-142h-47v410zM96 95v-120q32 -51 98 -51q46 0 75.5 32t29.5 79t-29.5 79t-75.5 32q-66 0 -98 -51z" />
    <glyph glyph-name="q.inferior" horiz-adv-x="375" 
d="M279 -83q-42 -37 -99 -37q-66 0 -109.5 44.5t-43.5 110.5t43.5 110.5t109.5 44.5q57 0 99 -37v32h47v-410h-47v142zM279 -25v120q-32 51 -98 51q-46 0 -75.5 -32t-29.5 -79t29.5 -79t75.5 -32q66 0 98 51z" />
    <glyph glyph-name="r.inferior" horiz-adv-x="215" 
d="M96 -115v206q22 50 78 50q11 0 27 -4v49q-14 2 -21 2q-53 0 -84 -40v37h-47v-300h47z" />
    <glyph glyph-name="s.inferior" horiz-adv-x="252" 
d="M18 -60l38 25q23 -42 68 -42q24 0 40.5 11t16.5 29t-12 29.5t-41 22.5l-25 9q-70 25 -70 88q0 33 26 55.5t66 22.5q64 0 89 -55l-37 -20q-16 32 -52 32q-19 0 -32 -9.5t-13 -25.5q0 -33 45 -49l26 -9q77 -27 77 -89q0 -36 -28.5 -60.5t-76.5 -24.5q-71 0 -105 60z" />
    <glyph glyph-name="t.inferior" horiz-adv-x="220" 
d="M1 185h59v67l47 25v-92h91l-9 -43h-82v-166q0 -48 46 -48h39v-43h-43q-89 0 -89 85v172h-50z" />
    <glyph glyph-name="u.inferior" horiz-adv-x="341" 
d="M292 -115v300h-47v-196q-19 -65 -85 -65q-35 0 -56.5 22t-21.5 58v181h-46v-185q0 -55 31.5 -87.5t82.5 -32.5q63 0 95 40v-35h47z" />
    <glyph glyph-name="v.inferior" horiz-adv-x="320" 
d="M3 185h53l104 -210l104 210h53l-157 -305z" />
    <glyph glyph-name="w.inferior" horiz-adv-x="432" 
d="M14 185h49l69 -224l84 230l84 -230l70 224h48l-95 -300h-37l-70 192l-69 -192h-38z" />
    <glyph glyph-name="x.inferior" horiz-adv-x="324" 
d="M134 38l-112 147h54l87 -113l86 113h54l-112 -147l117 -153h-55l-91 119l-92 -119h-54z" />
    <glyph glyph-name="y.inferior" horiz-adv-x="306" 
d="M128 -88l-124 273h51l98 -222l98 222h51l-188 -410h-49z" />
    <glyph glyph-name="z.inferior" horiz-adv-x="302" 
d="M198 142h-162v43h244l-180 -257h175v-43h-258z" />
    <glyph glyph-name="one.inferior" horiz-adv-x="176" 
d="M65 273l47 52v-440h-47v388z" />
    <glyph glyph-name="two.inferior" horiz-adv-x="327" 
d="M186 67q-14 -3 -26 -3q-53 1 -88 37.5t-35 87.5q0 53 37 90t90 37q54 0 91 -37t37 -90q0 -38 -17.5 -71.5t-59.5 -79.5l-100 -109h178v-44h-277zM246 189q0 36 -23.5 60t-58.5 24t-57.5 -24t-22.5 -60t22.5 -59.5t57.5 -23.5t58.5 23.5t23.5 59.5z" />
    <glyph glyph-name="three.inferior" horiz-adv-x="312" 
d="M20 -53l37 27q11 -22 34 -36.5t50 -14.5q42 0 69 27t27 69q0 43 -27 70.5t-72 27.5h-37l89 150h-153v44h226l-91 -155q52 -9 82.5 -47t30.5 -90q0 -58 -40 -98.5t-103 -40.5q-37 0 -70.5 18.5t-51.5 48.5z" />
    <glyph glyph-name="four.inferior" horiz-adv-x="353" 
d="M240 5h-243l290 320v-277h57v-43h-57v-120h-47v120zM240 48v167l-151 -167h151z" />
    <glyph glyph-name="five.inferior" horiz-adv-x="325" 
d="M31 -53l38 27q11 -22 34 -36.5t51 -14.5q41 0 68 27t27 68q0 43 -27 70.5t-71 27.5q-39 0 -68 -33l-32 14v214h212v-44h-165v-122q24 14 54 14q66 0 105 -40.5t39 -100.5q0 -58 -39.5 -98t-101.5 -40q-38 0 -72 18.5t-52 48.5z" />
    <glyph glyph-name="six.inferior" horiz-adv-x="329" 
d="M24 19q0 36 24 78l129 214h52l-96 -159q15 6 33 6q58 -2 98.5 -42t40.5 -97q0 -58 -41 -98.5t-100 -40.5q-58 0 -99 40.5t-41 98.5zM257 19q0 40 -26 67.5t-67 27.5q-40 0 -66 -27.5t-26 -67.5t26 -68t66 -28q41 0 67 28t26 68z" />
    <glyph glyph-name="seven.inferior" horiz-adv-x="303" 
d="M224 267h-206v44h277l-205 -426h-50z" />
    <glyph glyph-name="eight.inferior" horiz-adv-x="331" 
d="M28 17q0 38 19 69.5t50 49.5q-34 29 -34 77q0 44 30 73.5t73 29.5t73 -29.5t30 -73.5q0 -47 -35 -77q31 -18 50 -49.5t19 -69.5q0 -58 -40 -97.5t-97 -39.5t-97.5 39.5t-40.5 97.5zM222 213q0 25 -16.5 42t-39.5 17q-24 0 -40.5 -17t-16.5 -42t16.5 -42t40.5 -17
q23 0 39.5 17t16.5 42zM162 111q-36 -1 -60.5 -28.5t-24.5 -65.5q0 -39 25.5 -66t63.5 -27q37 0 62.5 27t25.5 66q0 38 -24.5 65.5t-60.5 28.5h-7z" />
    <glyph glyph-name="nine.inferior" horiz-adv-x="329" 
d="M197 44q-17 -6 -35 -6q-58 2 -98 42t-40 97q0 58 41 98.5t99 40.5q59 0 100 -40.5t41 -98.5q0 -37 -25 -78l-128 -214h-52zM257 177q0 40 -26 68t-67 28q-40 0 -66 -28t-26 -68t26 -67.5t66 -27.5q41 0 67 27.5t26 67.5z" />
    <glyph glyph-name="zero.inferior" horiz-adv-x="477" 
d="M20 98q0 92 63 155t155 63t155.5 -63t63.5 -155t-63.5 -155t-155.5 -63t-155 63t-63 155zM409 98q0 75 -48.5 124.5t-122.5 49.5q-73 0 -121 -49.5t-48 -124.5t48 -124.5t121 -49.5q74 0 122.5 49.5t48.5 124.5z" />
    <glyph glyph-name="zero.slashed.inferior" horiz-adv-x="477" 
d="M20 98q0 92 63 155t155 63t155.5 -63t63.5 -155t-63.5 -155t-155.5 -63t-155 63t-63 155zM71 64l322 109q-20 45 -61.5 72t-93.5 27q-73 0 -121 -49.5t-48 -124.5q0 -23 2 -34zM409 98q0 18 -3 35l-323 -109q20 -46 61 -73t94 -27q74 0 122.5 49.5t48.5 124.5z" />
    <glyph glyph-name="period.inferior" horiz-adv-x="153" 
d="M35 -77q0 17 12.5 29.5t29.5 12.5t29 -13t12 -30t-12 -29.5t-29 -12.5t-29.5 13t-12.5 30z" />
    <glyph glyph-name="hyphen.inferior" horiz-adv-x="200" 
d="M28 113h143v-49h-143v49z" />
    <glyph glyph-name="comma.inferior" horiz-adv-x="148" 
d="M69 -115h-29v71h69v-72l-34 -84h-32z" />
    <glyph glyph-name="equal.inferior" horiz-adv-x="326" 
d="M29 174h268v-44h-268v44zM29 47h268v-44h-268v44z" />
    <glyph glyph-name="plus.inferior" horiz-adv-x="321" 
d="M28 111h110v105h45v-105h110v-45h-110v-107h-45v107h-110v45z" />
    <glyph glyph-name="minus.inferior" horiz-adv-x="322" 
d="M29 109h264v-41h-264v41z" />
    <glyph glyph-name="parenleft.inferior" horiz-adv-x="144" 
d="M34 47q0 142 65 275l38 -16q-60 -124 -60 -259t60 -258l-38 -17q-65 133 -65 275z" />
    <glyph glyph-name="parenright.inferior" horiz-adv-x="144" 
d="M109 47q0 144 -64 275l-38 -16q59 -125 59 -259t-59 -258l38 -17q64 131 64 275z" />
    <glyph glyph-name="one.numerator" horiz-adv-x="223" 
d="M78 677l47 47v-440h-47v393z" />
    <glyph glyph-name="two.numerator" horiz-adv-x="357" 
d="M196 466q-14 -3 -26 -3q-53 1 -88 37.5t-35 87.5q0 53 37 90t90 37q54 0 91 -37t37 -90q0 -38 -17.5 -71.5t-59.5 -79.5l-100 -109h178v-44h-277zM256 588q0 36 -23.5 60t-58.5 24t-57.5 -24t-22.5 -60t22.5 -59.5t57.5 -23.5t58.5 23.5t23.5 59.5z" />
    <glyph glyph-name="three.numerator" horiz-adv-x="328" 
d="M40 346l37 27q11 -22 34 -36.5t50 -14.5q42 0 69 27t27 69q0 43 -27 70.5t-72 27.5h-37l89 150h-153v44h226l-91 -155q52 -9 82.5 -47t30.5 -90q0 -58 -40 -98.5t-103 -40.5q-37 0 -70.5 18.5t-51.5 48.5z" />
    <glyph glyph-name="four.numerator" horiz-adv-x="331" 
d="M218 404h-243l290 320v-277h57v-43h-57v-120h-47v120zM218 447v161l-146 -161h146z" />
    <glyph glyph-name="five.numerator" horiz-adv-x="327" 
d="M40 346l37 27q11 -22 34 -36.5t51 -14.5q41 0 68 27t27 68q0 43 -26.5 70.5t-70.5 27.5q-39 0 -68 -33l-33 14v214h213v-44h-166v-122q26 14 55 14q66 0 105 -40.5t39 -100.5q0 -58 -40 -98t-102 -40q-38 0 -71.5 18.5t-51.5 48.5z" />
    <glyph glyph-name="six.numerator" horiz-adv-x="321" 
d="M20 418q0 39 24 78l129 214h52l-96 -159q15 6 33 6q58 -1 98.5 -41.5t40.5 -97.5q0 -58 -41 -98.5t-100 -40.5q-58 0 -99 40.5t-41 98.5zM253 418q0 40 -26 67.5t-67 27.5q-40 0 -66 -27.5t-26 -67.5t26 -68t66 -28q41 0 67 28t26 68z" />
    <glyph glyph-name="seven.numerator" horiz-adv-x="270" 
d="M235 666h-207v44h277l-205 -426h-50z" />
    <glyph glyph-name="eight.numerator" horiz-adv-x="350" 
d="M38 416q0 38 18.5 69.5t49.5 49.5q-34 29 -34 77q0 44 30 73.5t73 29.5t73 -29.5t30 -73.5q0 -48 -34 -77q31 -18 49.5 -49.5t18.5 -69.5q0 -58 -40 -97.5t-97 -39.5t-97 39.5t-40 97.5zM179 553q23 2 37.5 18t14.5 41t-16 42t-40 17t-40 -17t-16 -42t16 -42t40 -17h4z
M264 416q0 39 -26 66.5t-63 27.5t-62.5 -27.5t-25.5 -66.5t25.5 -66t62.5 -27t63 27t26 66z" />
    <glyph glyph-name="nine.numerator" horiz-adv-x="321" 
d="M192 443q-15 -6 -34 -6q-58 1 -98 41.5t-40 97.5q0 58 41 98.5t99 40.5q59 0 100 -40.5t41 -98.5q0 -37 -25 -78l-128 -214h-52zM253 576q0 40 -26.5 68t-66.5 28t-66 -28t-26 -68t26 -67.5t66 -27.5t66.5 27.5t26.5 67.5z" />
    <glyph glyph-name="zero.numerator" horiz-adv-x="496" 
d="M30 497q0 92 63 155t155 63t155 -63t63 -155t-63 -155t-155 -63t-155 63t-63 155zM419 497q0 75 -48.5 124.5t-122.5 49.5q-73 0 -121 -49.5t-48 -124.5t48 -124.5t121 -49.5q74 0 122.5 49.5t48.5 124.5z" />
    <glyph glyph-name="zero.slashed.numerator" horiz-adv-x="497" 
d="M30 497q0 92 63 155t155 63t155.5 -63t63.5 -155t-63.5 -155t-155.5 -63t-155 63t-63 155zM81 463l322 109q-20 45 -61.5 72t-93.5 27q-73 0 -121 -49.5t-48 -124.5q0 -23 2 -34zM419 497q0 19 -3 35l-323 -109q20 -46 61 -73t94 -27q74 0 122.5 49.5t48.5 124.5z" />
    <glyph glyph-name="one.denominator" horiz-adv-x="223" 
d="M78 393l47 47v-440h-47v393z" />
    <glyph glyph-name="two.denominator" horiz-adv-x="357" 
d="M196 182q-14 -3 -26 -3q-53 1 -88 37.5t-35 87.5q0 53 37 90t90 37q54 0 91 -37t37 -90q0 -38 -17.5 -71.5t-59.5 -79.5l-100 -109h178v-44h-277zM256 304q0 36 -23.5 60t-58.5 24t-57.5 -24t-22.5 -60t22.5 -59.5t57.5 -23.5t58.5 23.5t23.5 59.5z" />
    <glyph glyph-name="three.denominator" horiz-adv-x="328" 
d="M40 62l37 27q11 -22 34 -36.5t50 -14.5q42 0 69 27t27 69q0 43 -27 70.5t-72 27.5h-37l89 150h-153v44h226l-91 -155q52 -9 82.5 -47t30.5 -90q0 -58 -40 -98.5t-103 -40.5q-37 0 -70.5 18.5t-51.5 48.5z" />
    <glyph glyph-name="four.denominator" horiz-adv-x="331" 
d="M218 120h-243l290 320v-277h57v-43h-57v-120h-47v120zM218 163v161l-146 -161h146z" />
    <glyph glyph-name="five.denominator" horiz-adv-x="327" 
d="M40 62l37 27q11 -22 34 -36.5t51 -14.5q41 0 68 27t27 68q0 43 -26.5 70.5t-70.5 27.5q-39 0 -68 -33l-33 14v214h213v-44h-166v-122q26 14 55 14q66 0 105 -40.5t39 -100.5q0 -58 -40 -98t-102 -40q-38 0 -71.5 18.5t-51.5 48.5z" />
    <glyph glyph-name="six.denominator" horiz-adv-x="321" 
d="M20 134q0 39 24 78l129 214h52l-96 -159q15 6 33 6q58 -1 98.5 -41.5t40.5 -97.5q0 -58 -41 -98.5t-100 -40.5q-58 0 -99 40.5t-41 98.5zM253 134q0 40 -26 67.5t-67 27.5q-40 0 -66 -27.5t-26 -67.5t26 -68t66 -28q41 0 67 28t26 68z" />
    <glyph glyph-name="seven.denominator" horiz-adv-x="270" 
d="M235 382h-207v44h277l-205 -426h-50z" />
    <glyph glyph-name="eight.denominator" horiz-adv-x="350" 
d="M38 132q0 38 18.5 69.5t49.5 49.5q-34 29 -34 77q0 44 30 73.5t73 29.5t73 -29.5t30 -73.5q0 -48 -34 -77q31 -18 49.5 -49.5t18.5 -69.5q0 -58 -40 -97.5t-97 -39.5t-97 39.5t-40 97.5zM179 269q23 2 37.5 18t14.5 41t-16 42t-40 17t-40 -17t-16 -42t16 -42t40 -17h4z
M264 132q0 39 -26 66.5t-63 27.5t-62.5 -27.5t-25.5 -66.5t25.5 -66t62.5 -27t63 27t26 66z" />
    <glyph glyph-name="nine.denominator" horiz-adv-x="321" 
d="M192 159q-15 -6 -34 -6q-58 1 -98 41.5t-40 97.5q0 58 41 98.5t99 40.5q59 0 100 -40.5t41 -98.5q0 -37 -25 -78l-128 -214h-52zM253 292q0 40 -26.5 68t-66.5 28t-66 -28t-26 -68t26 -67.5t66 -27.5t66.5 27.5t26.5 67.5z" />
    <glyph glyph-name="zero.denominator" horiz-adv-x="496" 
d="M30 213q0 92 63 155t155 63t155 -63t63 -155t-63 -155t-155 -63t-155 63t-63 155zM419 213q0 75 -48.5 124.5t-122.5 49.5q-73 0 -121 -49.5t-48 -124.5t48 -124.5t121 -49.5q74 0 122.5 49.5t48.5 124.5z" />
    <glyph glyph-name="zero.slashed.denominator" horiz-adv-x="497" 
d="M30 213q0 92 63 155t155 63t155.5 -63t63.5 -155t-63.5 -155t-155.5 -63t-155 63t-63 155zM81 179l322 109q-20 45 -61.5 72t-93.5 27q-73 0 -121 -49.5t-48 -124.5q0 -23 2 -34zM419 213q0 19 -3 35l-323 -109q20 -46 61 -73t94 -27q74 0 122.5 49.5t48.5 124.5z" />
    <glyph glyph-name="ampersand.case" horiz-adv-x="635" 
d="M41 213q0 93 63 157t161 64q34 0 67 -11l-156 287h349v-59h-252l352 -651h-65l-83 155q-19 -73 -75.5 -118t-136.5 -45q-98 0 -161 63.5t-63 157.5zM424 213q0 72 -45 118t-114 46q-70 0 -115 -46t-45 -118t45 -117.5t115 -45.5q69 0 114 45.5t45 117.5z" />
    <glyph glyph-name="hyphen.case" horiz-adv-x="349" 
d="M61 399h227v-65h-227v65z" />
    <glyph glyph-name="endash.case" horiz-adv-x="534" 
d="M61 394h412v-55h-412v55z" />
    <glyph glyph-name="emdash.case" horiz-adv-x="830" 
d="M61 394h708v-55h-708v55z" />
    <glyph glyph-name="question.case" horiz-adv-x="476" 
d="M173 366h55q68 0 111 41t43 105q0 63 -41.5 105.5t-102.5 42.5q-62 0 -103 -42t-41 -106h-63q0 87 60 146.5t146 59.5q85 0 145.5 -60t60.5 -146q0 -87 -62 -146.5t-155 -59.5h-53v60zM289 51q0 37 -32 54h-54q-32 -17 -32 -54q0 -24 17.5 -41.5t41.5 -17.5t41.5 17.5
t17.5 41.5z" />
    <glyph glyph-name="questiondown.case" horiz-adv-x="476" 
d="M273 605q32 17 32 54q0 24 -17.5 41.5t-41.5 17.5t-41.5 -17.5t-17.5 -41.5q0 -37 32 -54h54zM33 198q0 87 62 146.5t155 59.5h53v-60h-55q-68 0 -111 -41t-43 -105q0 -63 41.5 -105.5t102.5 -42.5q62 0 103 42t41 106h63q0 -87 -60 -146.5t-146 -59.5q-85 0 -145.5 60
t-60.5 146z" />
    <glyph glyph-name="exclam.case" horiz-adv-x="233" 
d="M87 415v295h61v-295l-11 -211h-40zM59 56q0 35 30 50h56q13 -7 21 -23.5t8 -32.5q0 -24 -17 -40.5t-41 -16.5q-23 0 -40 19.5t-17 43.5z" />
    <glyph glyph-name="exclamdown.case" horiz-adv-x="233" 
d="M59 661q0 24 17 40.5t41 16.5q23 0 40 -19.5t17 -43.5q0 -35 -30 -50h-56q-13 7 -21 23.5t-8 32.5zM85 296l11 211h40l10 -211v-296h-61v296z" />
    <glyph glyph-name="guilsinglleft.case" horiz-adv-x="286" 
d="M41 310l147 213l46 -30l-126 -183l126 -183l-46 -30z" />
    <glyph glyph-name="guilsinglright.case" horiz-adv-x="286" 
d="M245 310l-147 213l-46 -30l126 -183l-126 -183l46 -30z" />
    <glyph glyph-name="guillemotleft.case" horiz-adv-x="475" 
d="M41 310l147 213l46 -30l-126 -183l126 -183l-46 -30zM230 310l147 213l46 -30l-126 -183l126 -183l-46 -30z" />
    <glyph glyph-name="guillemotright.case" horiz-adv-x="475" 
d="M245 310l-147 213l-46 -30l126 -183l-126 -183l46 -30zM434 310l-147 213l-46 -30l126 -183l-126 -183l46 -30z" />
    <glyph glyph-name="parenleft.case" horiz-adv-x="247" 
d="M71 356q0 103 25 188.5t78 178.5l49 -27q-97 -164 -97 -340q0 -177 96 -339l-48 -28q-53 93 -78 178.5t-25 188.5z" />
    <glyph glyph-name="parenright.case" horiz-adv-x="247" 
d="M176 356q0 103 -25 188.5t-78 178.5l-49 -27q97 -164 97 -340q0 -177 -96 -339l48 -28q53 93 78 178.5t25 188.5z" />
    <glyph glyph-name="bracketleft.case" horiz-adv-x="300" 
d="M93 710h167v-55h-110v-600h110v-55h-167v710z" />
    <glyph glyph-name="bracketright.case" horiz-adv-x="300" 
d="M207 710h-167v-55h110v-600h-110v-55h167v710z" />
    <glyph glyph-name="braceleft.case" horiz-adv-x="303" 
d="M108 143v105q0 44 -11.5 61.5t-48.5 17.5h-18v55h18q37 0 48.5 17.5t11.5 61.5v106q0 76 25.5 109.5t95.5 33.5h33v-55h-33q-39 0 -51 -18t-12 -63v-104q0 -50 -9.5 -74.5t-40.5 -41.5q31 -16 40.5 -40.5t9.5 -74.5v-103q0 -45 12 -63t51 -18h33v-55h-33
q-70 0 -95.5 33.5t-25.5 109.5z" />
    <glyph glyph-name="braceright.case" horiz-adv-x="303" 
d="M195 143v105q0 44 11.5 61.5t48.5 17.5h18v55h-18q-37 0 -48.5 17.5t-11.5 61.5v106q0 76 -25.5 109.5t-95.5 33.5h-33v-55h33q39 0 51 -18t12 -63v-104q0 -50 9.5 -74.5t40.5 -41.5q-31 -16 -40.5 -40.5t-9.5 -74.5v-103q0 -45 -12 -63t-51 -18h-33v-55h33
q70 0 95.5 33.5t25.5 109.5z" />
    <glyph glyph-name="bar.case" horiz-adv-x="243" 
d="M93 710h57v-710h-57v710z" />
    <glyph glyph-name="brokenbar.case" horiz-adv-x="243" 
d="M93 710h57v-291h-57v291zM93 292h57v-292h-57v292z" />
    <glyph glyph-name="periodcentered.case" horiz-adv-x="264" 
d="M73 363q0 25 17 43t42 18t42 -18t17 -43q0 -24 -17.5 -41.5t-41.5 -17.5t-41.5 17.5t-17.5 41.5z" />
    <glyph glyph-name="plus.case" horiz-adv-x="684" 
d="M122 391h191v183h58v-183h191v-55h-191v-189h-58v189h-191v55z" />
    <glyph glyph-name="minus.case" horiz-adv-x="684" 
d="M122 394h440v-55h-440v55z" />
    <glyph glyph-name="divide.case" horiz-adv-x="684" 
d="M401 503q0 25 -17.5 42.5t-41.5 17.5q-25 0 -42.5 -17.5t-17.5 -42.5t17.5 -42.5t42.5 -17.5q24 0 41.5 17.5t17.5 42.5zM122 391h440v-55h-440v55zM401 224q0 25 -17.5 42.5t-41.5 17.5q-25 0 -42.5 -17.5t-17.5 -42.5t17.5 -42.5t42.5 -17.5q24 0 41.5 17.5t17.5 42.5z
" />
    <glyph glyph-name="multiply.case" horiz-adv-x="611" 
d="M122 217l146 146l-146 146l37 37l146 -146l146 146l37 -37l-146 -146l147 -146l-38 -38l-146 146l-146 -146z" />
    <glyph glyph-name="equal.case" horiz-adv-x="693" 
d="M122 508h449v-54h-449v54zM122 287h449v-54h-449v54z" />
    <glyph glyph-name="plusminus.case" horiz-adv-x="684" 
d="M122 457h191v153h58v-153h191v-55h-191v-159h-58v159h-191v55zM122 165h440v-55h-440v55z" />
    <glyph glyph-name="less.case" horiz-adv-x="501" 
d="M80 362l289 271l36 -39l-248 -232l248 -232l-36 -38z" />
    <glyph glyph-name="greater.case" horiz-adv-x="501" 
d="M96 130l249 232l-249 232l36 39l289 -271l-289 -270z" />
    <glyph glyph-name="lessequal.case" horiz-adv-x="703" 
d="M96 418l477 208v-61l-330 -147l330 -147v-61zM96 165h477v-55h-477v55z" />
    <glyph glyph-name="greaterequal.case" horiz-adv-x="703" 
d="M130 261l330 147l-330 147v61l477 -208l-477 -208v61zM130 155h477v-55h-477v55z" />
    <glyph glyph-name="notequal.case" horiz-adv-x="693" 
d="M122 508h293l88 122l43 -30l-67 -92h92v-54h-131l-120 -167h251v-54h-290l-92 -128l-42 31l70 97h-95v54h134l120 167h-254v54z" />
    <glyph glyph-name="acute.case" horiz-adv-x="214" 
d="M111 913h82l-109 -145h-55z" />
    <glyph glyph-name="breve.case" horiz-adv-x="338" 
d="M22 900h53q4 -31 28 -52.5t65 -21.5q42 0 66.5 21.5t28.5 52.5h53q-6 -52 -44 -85.5t-105 -33.5q-63 0 -101.5 34t-43.5 85z" />
    <glyph glyph-name="caron.case" horiz-adv-x="357" 
d="M6 883l31 43l141 -93l141 93l32 -44l-173 -111z" />
    <glyph glyph-name="cedilla.case" horiz-adv-x="129" 
d="M49 0h52l-40 -137h-83z" />
    <glyph glyph-name="circumflex.case" horiz-adv-x="357" 
d="M6 816l172 112l173 -111l-32 -44l-141 93l-141 -93z" />
    <glyph glyph-name="dieresis.case" horiz-adv-x="344" 
d="M9 843q0 22 15 37t37 15t37 -15t15 -37t-15 -37t-37 -15t-37 15t-15 37zM229 843q0 22 15 37t37 15t37 -15t15 -37t-15 -37t-37 -15t-37 15t-15 37z" />
    <glyph glyph-name="dotaccent.case" horiz-adv-x="124" 
d="M9 843q0 22 15 37t37 15t37 -15t15 -37t-15 -37t-37 -15t-37 15t-15 37z" />
    <glyph glyph-name="grave.case" horiz-adv-x="214" 
d="M24 913h82l82 -145h-56z" />
    <glyph glyph-name="hungarumlaut.case" horiz-adv-x="412" 
d="M110 913h82l-108 -145h-56zM310 913h82l-108 -145h-56z" />
    <glyph glyph-name="macron.case" horiz-adv-x="322" 
d="M22 859h278v-50h-278v50z" />
    <glyph glyph-name="ogonek.case" horiz-adv-x="203" 
d="M22 -104q0 33 28.5 62.5t66.5 41.5h62q-43 -19 -67 -44t-24 -48q0 -19 15 -32.5t42 -13.5q21 0 36 5v-49q-24 -7 -54 -7q-43 0 -74 22.5t-31 62.5z" />
    <glyph glyph-name="ring.case" horiz-adv-x="223" 
d="M22 836q0 37 26 61t63 24q38 0 64.5 -24t26.5 -61t-26 -61t-65 -24q-37 0 -63 24.5t-26 60.5zM161 836q0 21 -14.5 35t-35.5 14q-20 0 -34.5 -14t-14.5 -35t14.5 -34.5t34.5 -13.5q21 0 35.5 13.5t14.5 34.5z" />
    <glyph glyph-name="tilde.case" horiz-adv-x="396" 
d="M133 837q-37 0 -48 -46h-55l3 14q9 40 37.5 63.5t62.5 23.5q30 0 71 -23.5t57 -23.5q39 0 50 45h55l-3 -14q-8 -39 -35.5 -63t-63.5 -24q-30 0 -72.5 24t-58.5 24z" />
    <glyph glyph-name="A.ss01" horiz-adv-x="669" 
d="M102 710h465v-710h-62v296h-341v-296h-62v710zM164 356h341v295h-341v-295z" />
    <glyph glyph-name="B.ss01" horiz-adv-x="755" 
d="M102 710h370v-210h191v-500h-561v710zM164 500h246v151h-246v-151zM164 59h437v382h-437v-382z" />
    <glyph glyph-name="C.ss01" horiz-adv-x="656" 
d="M102 710h499v-59h-437v-592h437v-59h-499v710z" />
    <glyph glyph-name="G.ss01" horiz-adv-x="759" 
d="M102 710h529v-59h-467v-592h436v277h-218v60h280v-396h-560v710z" />
    <glyph glyph-name="J.ss01" horiz-adv-x="385" 
d="M20 59h201v651h62v-710h-263v59z" />
    <glyph glyph-name="O.ss01" horiz-adv-x="914" 
d="M102 710h710v-710h-710v710zM750 59v592h-586v-592h586z" />
    <glyph glyph-name="P.ss01" horiz-adv-x="649" 
d="M102 710h465v-413h-403v-297h-62v710zM164 356h341v295h-341v-295z" />
    <glyph glyph-name="Q.ss01" horiz-adv-x="914" 
d="M102 710h710v-710h-324v-184h-63v184h-323v710zM425 59v180h63v-180h262v592h-586v-592h261z" />
    <glyph glyph-name="S.ss01" horiz-adv-x="635" 
d="M101 710h432v-59h-370v-151h370v-500h-432v59h370v382h-370v269z" />
    <glyph glyph-name="U.ss01" horiz-adv-x="761" 
d="M102 710h62v-651h433v651h62v-710h-557v710z" />
    <glyph glyph-name="Y.ss01" horiz-adv-x="701" 
d="M72 710h62v-314h433v314h62v-374h-247v-336h-62v336h-248v374z" />
    <glyph glyph-name="b.ss01" horiz-adv-x="678" 
d="M92 710h57v-210h437v-500h-494v710zM149 55h380v390h-380v-390z" />
    <glyph glyph-name="c.ss01" horiz-adv-x="514" 
d="M92 500h355v-55h-298v-390h298v-55h-355v500z" />
    <glyph glyph-name="d.ss01" horiz-adv-x="678" 
d="M92 500h437v210h57v-710h-494v500zM149 55h380v390h-380v-390z" />
    <glyph glyph-name="f.ss01" horiz-adv-x="354" 
d="M23 500h98v210h203v-54h-146v-156h146v-55h-146v-445h-57v445h-98v55z" />
    <glyph glyph-name="h.ss01" horiz-adv-x="596" 
d="M447 445h-298v-445h-57v710h57v-210h355v-500h-57v445z" />
    <glyph glyph-name="i.ss01" horiz-adv-x="241" 
d="M92 710h57v-83h-57v83zM92 500h57v-500h-57v500z" />
    <glyph glyph-name="j.ss01" horiz-adv-x="241" 
d="M92 710h57v-83h-57v83zM-14 -129h106v629h57v-684h-163v55z" />
    <glyph glyph-name="k.ss01" horiz-adv-x="567" 
d="M428 234h-279v-234h-57v710h57v-422h220v212h57v-212h59v-288h-57v234z" />
    <glyph glyph-name="m.ss01" horiz-adv-x="892" 
d="M418 445h-269v-445h-57v500h708v-500h-57v445h-268v-445h-57v445z" />
    <glyph glyph-name="n.ss01" horiz-adv-x="596" 
d="M447 445h-298v-445h-57v500h412v-500h-57v445z" />
    <glyph glyph-name="o.ss01" horiz-adv-x="684" 
d="M92 500h500v-500h-500v500zM149 55h386v390h-386v-390z" />
    <glyph glyph-name="p.ss01" horiz-adv-x="678" 
d="M92 500h494v-500h-437v-184h-57v684zM149 55h380v390h-380v-390z" />
    <glyph glyph-name="q.ss01" horiz-adv-x="678" 
d="M92 500h494v-684h-57v184h-437v500zM149 55h380v390h-380v-390z" />
    <glyph glyph-name="r.ss01" horiz-adv-x="356" 
d="M92 500h240v-55h-183v-445h-57v500z" />
    <glyph glyph-name="s.ss01" horiz-adv-x="562" 
d="M92 500h377v-55h-320v-168h321v-277h-378v55h321v168h-321v277z" />
    <glyph glyph-name="t.ss01" horiz-adv-x="356" 
d="M11 500h94v137h57v-137h143v-55h-143v-390h142v-55h-199v445h-94v55z" />
    <glyph glyph-name="u.ss01" horiz-adv-x="596" 
d="M92 500h57v-445h298v445h57v-500h-412v500z" />
    <glyph glyph-name="y.ss01" horiz-adv-x="570" 
d="M46 500h57v-223h318v223h57v-684h-57v407h-375v277z" />
    <glyph glyph-name="A.ss02" horiz-adv-x="722" 
d="M348 710h272v-710h-62v217h-380l-103 -217h-65zM206 276h352v375h-174z" />
    <glyph glyph-name="E.ss02" horiz-adv-x="503" 
d="M50 198q0 51 24 95t65 71q-40 24 -64.5 67t-24.5 92q0 77 55 132t132 55h211v-59h-208q-53 0 -90.5 -37.5t-37.5 -89.5t38 -90t90 -38h148v-60h-137q-57 0 -98 -40.5t-41 -97.5q0 -58 41 -98.5t98 -40.5h197v-59h-201q-81 0 -139 58t-58 140z" />
    <glyph glyph-name="K.ss02" horiz-adv-x="646" 
d="M102 710h62v-355l352 355h80l-351 -355h188l190 -355h-68l-158 296h-233v-296h-62v710z" />
    <glyph glyph-name="N.ss02" horiz-adv-x="795" 
d="M631 137l-467 440v-577h-62v718l529 -499v491h62v-710h-62v137z" />
    <glyph glyph-name="Q.ss02" horiz-adv-x="808" 
d="M373 -7q-143 11 -237.5 113.5t-94.5 248.5q0 154 105 258.5t258 104.5t258 -104.5t105 -258.5q0 -146 -94.5 -248.5t-237.5 -113.5v-177h-62v177zM435 52q117 11 192.5 96.5t75.5 206.5q0 129 -85.5 216.5t-213.5 87.5q-119 0 -203 -77t-95 -195h329v-335zM106 328
q9 -112 83 -189t184 -87v276h-267z" />
    <glyph glyph-name="W.ss02" horiz-adv-x="954" 
d="M939 710l-322 -718l-140 312l-140 -312l-322 718h65l257 -579l108 244l-150 335h65l117 -264l117 264h65l-150 -335l108 -244l257 579h65z" />
    <glyph glyph-name="X.ss02" horiz-adv-x="672" 
d="M304 360l-207 -360h-66l235 411l-221 299h73l250 -339l194 338h66l-223 -389l237 -320h-71z" />
    <glyph glyph-name="Y.ss02" horiz-adv-x="662" 
d="M72 710h62v-340h224l213 340h71l-259 -408v-302h-62v310h-249v400z" />
    <glyph glyph-name="a.ss02" horiz-adv-x="568" 
d="M45 158q0 72 55.5 118.5t148.5 46.5q97 0 170 -41v163h-315v55h372v-500h-57v64q-72 -72 -180 -72q-92 0 -143 45.5t-51 120.5zM419 139v80q-68 52 -168 52q-63 0 -105 -30t-42 -83t39 -83t97 -30q62 0 108.5 25.5t70.5 68.5z" />
    <glyph glyph-name="g.ss02" horiz-adv-x="626" 
d="M101 -129h376v213q-69 -75 -180 -75q-109 0 -177.5 72t-68.5 177q0 106 68.5 178t177.5 72q108 0 180 -75v67h57v-684h-433v55zM477 159v199q-24 44 -70.5 70.5t-109.5 26.5q-84 0 -135.5 -56t-51.5 -141q0 -83 51.5 -139.5t135.5 -56.5q63 0 109.5 27t70.5 70z" />
    <glyph glyph-name="k.ss02" horiz-adv-x="565" 
d="M243 218h-94v-218h-57v710h57v-210h262v-55h-262v-173h116l291 -272h-79z" />
    <glyph glyph-name="m.ss02" horiz-adv-x="881" 
d="M743 308q0 69 -35.5 108t-93.5 39q-55 0 -91 -33.5t-49 -89.5q0 -4 0.5 -12t0.5 -12v-308h-57v300q0 69 -36 108t-94 39h-139v-447h-57v500h211q100 0 147 -87q57 95 172 95q80 0 129 -51.5t49 -140.5v-316h-57v308z" />
    <glyph glyph-name="w.ss02" horiz-adv-x="850" 
d="M71 295v205h57v-191l168 -254h100v445h58v-445h99l169 254v191h57v-205l-195 -295h-318z" />
    <glyph glyph-name="b.ss03" horiz-adv-x="522" 
d="M92 500h173q70 0 116.5 -32.5t46.5 -94.5q0 -74 -53 -108q40 -13 63.5 -46.5t23.5 -77.5q0 -63 -46 -102t-119 -39h-205v500zM149 446v-160h121q100 4 100 79q0 81 -100 81h-121zM149 235v-181h151q44 0 74 24.5t30 65.5t-30 66t-74 25h-151z" />
    <glyph glyph-name="d.ss03" horiz-adv-x="557" 
d="M92 500h148q124 0 195 -71t71 -179t-71 -179t-195 -71h-148v500zM149 446v-392h98q92 0 145.5 55.5t53.5 140.5t-53.5 140.5t-145.5 55.5h-98z" />
    <glyph glyph-name="f.ss03" horiz-adv-x="438" 
d="M92 500h306v-55h-249v-155h229v-55h-229v-235h-57v500z" />
    <glyph glyph-name="g.ss03" horiz-adv-x="586" 
d="M51 250q0 108 72.5 183t184.5 75q119 0 196 -73l-35 -41q-64 61 -161 61q-86 0 -142 -59.5t-56 -145.5q0 -85 55.5 -145t139.5 -60q88 0 152 47v143h-142l29 55h171v-222q-35 -32 -92 -54t-118 -22q-109 0 -181.5 75t-72.5 183z" />
    <glyph glyph-name="h.ss03" horiz-adv-x="597" 
d="M445 235h-293v-235h-60v500h60v-210h293v210h60v-500h-60v235z" />
    <glyph glyph-name="i.ss03" horiz-adv-x="241" 
d="M92 500h57v-500h-57v500z" />
    <glyph glyph-name="j.ss03" horiz-adv-x="386" 
d="M5 128v3h58q0 -86 89 -86t89 86v369h58v-372q0 -64 -37.5 -100t-108.5 -36t-109.5 36t-38.5 100z" />
    <glyph glyph-name="k.ss03" horiz-adv-x="510" 
d="M92 500h57v-248l256 248h74l-260 -249l283 -251h-78l-275 246v-246h-57v500z" />
    <glyph glyph-name="l.ss03" horiz-adv-x="446" 
d="M92 500h57v-445h249v-55h-306v500z" />
    <glyph glyph-name="p.ss03" horiz-adv-x="475" 
d="M92 500h160q94 0 138 -39.5t44 -107.5t-44 -108t-138 -40h-103v-205h-57v500zM149 446v-187h114q112 0 112 94q0 93 -112 93h-114z" />
    <glyph glyph-name="q.ss03" 
d="M472 46q-68 -54 -162 -54q-112 0 -185.5 75t-73.5 183t73.5 183t185.5 75t185.5 -75t73.5 -183q0 -95 -58 -166l54 -53l-39 -39zM433 85l-52 52l39 39l51 -51q39 55 39 125q0 86 -55.5 145.5t-144.5 59.5q-88 0 -144 -59.5t-56 -145.5t56 -145.5t144 -59.5q70 0 123 40z
" />
    <glyph glyph-name="t.ss03" horiz-adv-x="446" 
d="M21 500h404v-55h-172v-445h-60v445h-172v55z" />
    <glyph glyph-name="y.ss03" horiz-adv-x="472" 
d="M207 213l-191 287h66l154 -232l153 232h67l-192 -287v-213h-57v213z" />
    <glyph glyph-name="A.ss04" horiz-adv-x="705" 
d="M352 718l343 -718h-65l-278 583l-277 -583h-65zM281 63q0 29 21 50t50 21t50 -21t21 -50t-21 -50t-50 -21t-50 21t-21 50z" />
    <glyph glyph-name="E.ss04" horiz-adv-x="555" 
d="M102 710h398v-59h-336v-592h336v-59h-398v710zM261 366q0 29 21 50t50 21t50 -21t21 -50t-21 -50t-50 -21t-50 21t-21 50z" />
    <glyph glyph-name="F.ss04" horiz-adv-x="503" 
d="M102 710h384v-59h-322v-651h-62v710zM254 366q0 29 21 50t50 21t50 -21t21 -50t-21 -50t-50 -21t-50 21t-21 50z" />
    <glyph glyph-name="G.ss04" horiz-adv-x="729" 
d="M41 355q0 154 105 258.5t258 104.5q135 0 235 -76l-35 -50q-83 67 -200 67q-128 0 -213.5 -87.5t-85.5 -216.5t85.5 -216.5t213.5 -87.5q105 0 182 43v302h62v-335q-106 -69 -244 -69q-153 0 -258 104.5t-105 258.5zM333 355q0 29 21 50t50 21t50 -21t21 -50t-21 -50
t-50 -21t-50 21t-21 50z" />
    <glyph glyph-name="H.ss04" horiz-adv-x="765" 
d="M102 710h62v-710h-62v710zM601 710h62v-710h-62v710zM311 366q0 29 21 50t50 21t50 -21t21 -50t-21 -50t-50 -21t-50 21t-21 50z" />
    <glyph glyph-name="K.ss04" horiz-adv-x="636" 
d="M424 647q0 29 21 50t50 21t50 -21t21 -50t-21 -50t-50 -21t-50 21t-21 50zM164 337v-337h-62v710h62v-355h66l393 -355h-87z" />
    <glyph glyph-name="O.ss04" horiz-adv-x="808" 
d="M41 355q0 154 105 258.5t258 104.5t258 -104.5t105 -258.5t-105 -258.5t-258 -104.5t-258 104.5t-105 258.5zM703 355q0 129 -85.5 216.5t-213.5 87.5t-213.5 -87.5t-85.5 -216.5t85.5 -216.5t213.5 -87.5t213.5 87.5t85.5 216.5zM333 355q0 29 21 50t50 21t50 -21
t21 -50t-21 -50t-50 -21t-50 21t-21 50z" />
    <glyph glyph-name="Q.ss04" horiz-adv-x="808" 
d="M769 34l-42 -42l-85 85q-103 -85 -238 -85q-153 0 -258 104.5t-105 258.5t105 258.5t258 104.5t258 -104.5t105 -258.5q0 -136 -84 -236zM404 51q128 0 213.5 87.5t85.5 216.5t-85.5 216.5t-213.5 87.5t-213.5 -87.5t-85.5 -216.5t85.5 -216.5t213.5 -87.5zM404 426
q29 0 50 -21t21 -50t-21 -50t-50 -21t-50 21t-21 50t21 50t50 21z" />
    <glyph glyph-name="Y.ss04" 
d="M20 710h71l220 -350l219 350h70l-259 -408h-62zM305 -8q-14 1 -32 10q-11 7 -16 15q-4 4 -5 6q-12 18 -12 40q0 38 31 59q1 0 1 0.5t1 0.5q17 11 38 11h6l11 -2l5 -2l8 -3q6 -3 7 -4q14 -9 23 -23q4 -5 7 -15q4 -9 4 -22q0 -7 -2 -17q-6 -23 -23 -37q-10 -8 -16 -10
q-11 -5 -24 -7h-12z" />
    <glyph glyph-name="A.ss05" horiz-adv-x="705" 
d="M352 59h250l-250 524l-277 -583h-65l342 718l343 -718h-343v59z" />
    <glyph glyph-name="E.ss05" horiz-adv-x="515" 
d="M276 355l-241 355h435v-59h-326l202 -296l-202 -296h326v-59h-435z" />
    <glyph glyph-name="F.ss05" horiz-adv-x="493" 
d="M94 396h196l-237 314h422v-59h-305l238 -315h-252v-336h-62v396z" />
    <glyph glyph-name="R.ss05" horiz-adv-x="617" 
d="M102 710h491l-268 -355l263 -355h-75l-260 355l224 296h-313v-651h-62v710z" />
    <glyph glyph-name="S.ss05" horiz-adv-x="549" 
d="M409 336h-388l283 374h73l-238 -314h389l-300 -396h-73z" />
    <glyph glyph-name="T.ss05" horiz-adv-x="584" 
d="M300 342l-279 368h543v-59h-423l221 -291v-360h-62v342z" />
    <glyph glyph-name="X.ss05" horiz-adv-x="741" 
d="M335 364l-290 346h652l-290 -345l304 -365h-72l-268 321l-268 -321h-72zM371 408l203 243h-407z" />
    <glyph glyph-name="h.ss05" horiz-adv-x="596" 
d="M92 710h57v-618l298 408h57v-500h-57v408l-298 -408h-57v710z" />
    <glyph glyph-name="m.ss05" horiz-adv-x="893" 
d="M418 0v403l-269 -403h-57v500h57v-403l269 403h57v-403l269 403h57v-500h-57v403l-269 -403h-57z" />
    <glyph glyph-name="n.ss05" horiz-adv-x="596" 
d="M92 500h57v-408l298 408h57v-500h-57v408l-298 -408h-57v500z" />
    <glyph glyph-name="r.ss05" horiz-adv-x="314" 
d="M149 0h-57v396l170 112l31 -47l-144 -94v-367z" />
    <glyph glyph-name="s.ss05" horiz-adv-x="485" 
d="M366 225h-361l238 275h69l-193 -223h361l-238 -277h-69z" />
    <glyph glyph-name="b.ss06" horiz-adv-x="680" 
d="M205 500h383v-500h-496v710h57v-654h382v388h-382z" />
    <glyph glyph-name="d.ss06" horiz-adv-x="679" 
d="M92 500h438v210h57v-710h-57v444h-381v-388h381l-56 -56h-382v500z" />
    <glyph glyph-name="f.ss06" horiz-adv-x="324" 
d="M91 500v210h203v-54h-146v-156h146v-55h-146v-445h-57v445h-55z" />
    <glyph glyph-name="h.ss06" horiz-adv-x="596" 
d="M92 710h57v-710h-57v710zM205 500h299v-500h-57v444h-298z" />
    <glyph glyph-name="j.ss06" horiz-adv-x="239" 
d="M91 710h60v-83h-60v83zM91 -129v629h57v-684h-112z" />
    <glyph glyph-name="l.ss06" horiz-adv-x="241" 
d="M92 653l57 57v-710h-57v653z" />
    <glyph glyph-name="m.ss06" horiz-adv-x="892" 
d="M92 500h57v-500h-57v500zM204 500h271v-500h-57v444h-269zM530 500h270v-500h-57v444h-268z" />
    <glyph glyph-name="n.ss06" horiz-adv-x="596" 
d="M92 500h57v-500h-57v500zM205 500h299v-500h-57v444h-298z" />
    <glyph glyph-name="p.ss06" horiz-adv-x="677" 
d="M205 500h380v-500h-436v-184h-57v684h57v-444h379v388h-379z" />
    <glyph glyph-name="q.ss06" horiz-adv-x="676" 
d="M527 444h-378v-388h378l-56 -56h-379v500h492v-684h-57v628z" />
    <glyph glyph-name="r.ss06" horiz-adv-x="356" 
d="M92 500h57v-500h-57v500zM205 500h127v-56h-183z" />
    <glyph glyph-name="t.ss06" horiz-adv-x="381" 
d="M137 445h-147l204 205v-150h142v-55h-142v-390h142v-55h-199v445z" />
    <glyph glyph-name="u.ss06" horiz-adv-x="596" 
d="M92 500h57v-444h298l-56 -56h-299v500zM447 500h57v-500h-57v500z" />
    <glyph glyph-name="B.ss07" horiz-adv-x="582" 
d="M102 57h209q85 0 129.5 38.5t44.5 102.5t-44 103.5t-129 39.5h-210v55h195q66 0 103.5 36t37.5 92q0 55 -38 92t-103 37h-195v57h186q99 0 155.5 -52t56.5 -125q0 -110 -86 -156q59 -17 96 -63t37 -119q0 -95 -70.5 -145t-192.5 -50h-182v57z" />
    <glyph glyph-name="D.ss07" horiz-adv-x="694" 
d="M102 59h166q144 0 232.5 83t88.5 213t-88.5 213t-232.5 83h-166v59h166q169 0 277 -100t108 -255t-108 -255t-277 -100h-166v59z" />
    <glyph glyph-name="E.ss07" horiz-adv-x="555" 
d="M102 710h398v-59h-398v59zM102 396h338v-60h-338v60zM102 59h398v-59h-398v59z" />
    <glyph glyph-name="F.ss07" horiz-adv-x="494" 
d="M102 710h384v-59h-384v59zM102 396h314v-60h-314v60z" />
    <glyph glyph-name="H.ss07" horiz-adv-x="734" 
d="M570 336h-468v60h468v314h62v-710h-62v336z" />
    <glyph glyph-name="K.ss07" horiz-adv-x="583" 
d="M102 346l361 364h80l-358 -362l385 -348h-87z" />
    <glyph glyph-name="P.ss07" horiz-adv-x="523" 
d="M102 353h155q181 0 181 150q0 73 -45.5 112t-135.5 39h-155v56h155q116 0 181 -54t65 -153q0 -97 -65.5 -152t-180.5 -55h-155v57z" />
    <glyph glyph-name="R.ss07" horiz-adv-x="597" 
d="M102 378h155q84 0 126 35.5t42 101.5q0 137 -168 137h-155v58h157q109 0 170 -51.5t61 -143.5q0 -82 -51 -133t-142 -60l269 -322h-77l-264 321h-123v57z" />
    <glyph glyph-name="T.ss07" horiz-adv-x="505" 
d="M20 710h465v-59h-465v59z" />
    <glyph glyph-name="Y.ss07" 
d="M20 710h71l220 -350l219 350h70l-259 -408h-62z" />
    <glyph glyph-name="A.ss08" horiz-adv-x="705" 
d="M352 718l343 -718h-65l-104 217h-162v-393q0 -11 -5 -15.5t-9.5 0t-4.5 15.5v393h-22v-152q0 -11 -4.5 -15.5t-9.5 0t-5 15.5v152h-126l-103 -217v-55q0 -11 -4.5 -15.5t-9.5 0t-5 15.5v55h-46zM345 276v292l-139 -292h139zM364 558v-282h134z" />
    <glyph glyph-name="C.ss08" horiz-adv-x="667" 
d="M388 -7v-266q0 -11 -5 -15.5t-9.5 0t-4.5 15.5v267q-141 12 -234.5 114t-93.5 247q0 154 105 258.5t258 104.5q131 0 225 -77l-34 -50q-81 68 -191 68q-11 0 -16 -1v-607h16q109 0 192 68l33 -50q-80 -66 -191 -75v-177q0 -11 -5 -15.5t-9.5 0t-4.5 15.5v175h-15
q-3 0 -8.5 0.5t-7.5 0.5zM323 648q-97 -26 -157.5 -106t-60.5 -187q0 -120 74.5 -205t189.5 -97v604l-27 -4v-159q0 -11 -5 -15.5t-9.5 0t-4.5 15.5v154z" />
    <glyph glyph-name="D.ss08" horiz-adv-x="725" 
d="M102 710h197q169 0 277 -100t108 -255t-108 -255t-277 -100h-139v-646q0 -11 -5 -15.5t-9.5 0t-4.5 15.5v646h-20v-195q0 -11 -4.5 -15.5t-9.5 0t-5 15.5v905zM299 59q144 0 232.5 83t88.5 213t-88.5 213t-232.5 83h-135v-592h135z" />
    <glyph glyph-name="E.ss08" horiz-adv-x="555" 
d="M441 0h-19v-1012q0 -11 -5 -15.5t-9.5 0t-4.5 15.5v1012h-301v710h398v-59h-336v-255h276v-60h-276v-277h336v-371q0 -11 -5 -15.5t-9.5 0t-4.5 15.5v312h-21v-112q0 -11 -5 -15.5t-9.5 0t-4.5 15.5v112z" />
    <glyph glyph-name="G.ss08" horiz-adv-x="729" 
d="M41 355q0 154 105 258.5t258 104.5q135 0 235 -76l-35 -50q-56 45 -126 59v-255h170v-335q-85 -56 -201 -67v-511q0 -11 -4.5 -15.5t-9.5 0t-5 15.5v510q-8 -1 -24 -1q-153 0 -258 104.5t-105 258.5zM398 336h-18l27 60h52v259q-36 4 -55 4q-128 0 -213.5 -87.5
t-85.5 -216.5t85.5 -216.5t213.5 -87.5h24v285h-11v-32q0 -11 -4.5 -15.5t-9.5 0t-5 15.5v32zM459 336h-12v-283q81 8 139 41v242h-108v-56q0 -11 -5 -15.5t-9.5 0t-4.5 15.5v56z" />
    <glyph glyph-name="H.ss08" horiz-adv-x="765" 
d="M194 336h-30v-336h-11v-40q0 -11 -4.5 -15.5t-9.5 0t-5 15.5v40h-32v710h62v-314h437v314h62v-710h-62v336h-228v-1076q0 -11 -4.5 -15.5t-9.5 0t-5 15.5v1076h-31v-36q0 -11 -4.5 -15.5t-9.5 0t-5 15.5v36h-91v-540q0 -11 -4.5 -15.5t-9.5 0t-5 15.5v540z" />
    <glyph glyph-name="M.ss08" horiz-adv-x="888" 
d="M102 718l342 -391l342 391v-718h-62v560l-270 -311v-864q0 -11 -5 -15.5t-9.5 0t-4.5 15.5v863l-23 26v-442q0 -11 -5 -15.5t-9.5 0t-4.5 15.5v464l-229 264v-560h-62v718z" />
    <glyph glyph-name="N.ss08" horiz-adv-x="795" 
d="M674 12l-24 26v-560q0 -11 -5 -15.5t-9.5 0t-4.5 15.5v581l-467 506v-565h-62v718l529 -573v565h62v-829q0 -11 -4.5 -15.5t-9.5 0t-5 15.5v131z" />
    <glyph glyph-name="O.ss08" horiz-adv-x="808" 
d="M253 23v-375q0 -11 -4.5 -15.5t-9.5 0t-5 15.5v384q-89 46 -141 131.5t-52 191.5q0 154 105 258.5t258 104.5t258 -104.5t105 -258.5q0 -97 -44.5 -178t-121.5 -130v-99q0 -11 -4.5 -15.5t-9.5 0t-5 15.5v88l-29 -14v-1034q0 -11 -4.5 -15.5t-9.5 0t-5 15.5v1026
q-63 -22 -130 -22q-81 0 -151 31zM703 355q0 129 -85.5 216.5t-213.5 87.5t-213.5 -87.5t-85.5 -216.5t85.5 -216.5t213.5 -87.5t213.5 87.5t85.5 216.5z" />
    <glyph glyph-name="Q.ss08" horiz-adv-x="808" 
d="M676 42l-35 35q-101 -85 -237 -85q-153 0 -258 104.5t-105 258.5t105 258.5t258 104.5t258 -104.5t105 -258.5q0 -136 -84 -236l86 -85l-33 -33v-404q0 -11 -5 -15.5t-9.5 0t-4.5 15.5v405l-22 21v-128q0 -11 -4.5 -15.5t-9.5 0t-5 15.5v147zM598 120l-88 89l42 42
l87 -88q64 83 64 192q0 129 -85.5 216.5t-213.5 87.5t-213.5 -87.5t-85.5 -216.5t85.5 -216.5t213.5 -87.5q112 0 194 69z" />
    <glyph glyph-name="R.ss08" horiz-adv-x="628" 
d="M558 0h-24v-213q0 -11 -5 -15.5t-9.5 0t-4.5 15.5v219l-259 315h-92v-321h-62v710h188q109 0 170 -51.5t61 -143.5q0 -82 -51 -133t-142 -60l269 -322h-20v-36q0 -11 -4.5 -15.5t-9.5 0t-5 15.5v36zM288 378q84 0 126 35.5t42 101.5q0 137 -168 137h-124v-274h124z" />
    <glyph glyph-name="S.ss08" horiz-adv-x="524" 
d="M142 12v-586q0 -11 -5 -15.5t-9.5 0t-4.5 15.5v594q-60 28 -95 71l47 43q68 -83 173 -83q73 0 117.5 33.5t44.5 88.5q0 56 -31.5 89t-98.5 63l-75 32q-80 34 -115.5 81t-35.5 113q0 73 61 120t141 47q122 0 198 -90l-46 -43q-62 74 -155 74q-58 0 -97.5 -30.5
t-39.5 -81.5q0 -45 25 -76.5t85 -56.5l75 -32q81 -35 126.5 -82t45.5 -118q0 -68 -40 -116v-102q0 -11 -4.5 -15.5t-9.5 0t-5 15.5v82l-8 -6l-8.5 -6.5t-7.5 -5.5v-241q0 -11 -5 -15.5t-9.5 0t-4.5 15.5v231q-52 -26 -123 -26q-53 0 -106 20z" />
    <glyph glyph-name="U.ss08" horiz-adv-x="743" 
d="M341 -7v-269q0 -11 -4.5 -15.5t-9.5 0t-5 15.5v271l-24 4v-69q0 -11 -5 -15.5t-9.5 0t-4.5 15.5v73q-87 24 -136.5 91t-49.5 169v447h62v-450q0 -102 58 -155.5t158 -53.5t158.5 53.5t58.5 155.5v450h62v-447q0 -88 -39 -152v-217q0 -11 -4.5 -15.5t-9.5 0t-5 15.5v190
q-77 -92 -221 -92q-20 0 -30 1z" />
    <glyph glyph-name="a.ss08" horiz-adv-x="638" 
d="M364 -2q-19 -4 -31 -5v-287q0 -11 -4.5 -15.5t-9.5 0t-5 15.5v286h-9q-110 0 -182 75t-72 183t72 183t182 75q113 0 184 -77v69h57v-500h-57v68q-45 -48 -106 -66v-76q0 -11 -4.5 -15.5t-9.5 0t-5 15.5v72zM489 145v211q-26 44 -73.5 71.5t-110.5 27.5q-85 0 -140 -59.5
t-55 -145.5t55 -145.5t140 -59.5q64 0 111.5 27.5t72.5 72.5z" />
    <glyph glyph-name="b.ss08" horiz-adv-x="639" 
d="M260 1q-64 16 -111 68v-481q0 -11 -4.5 -15.5t-9.5 0t-5 15.5v412h-19v-112q0 -11 -4.5 -15.5t-9.5 0t-5 15.5v822h57v-280q72 78 185 78q110 0 182 -75t72 -183t-72 -183t-182 -75q-34 0 -55 5v-69q0 -11 -4.5 -15.5t-9.5 0t-5 15.5v73zM149 354v-209q25 -44 73 -72
t112 -28q85 0 140 59.5t55 145.5t-55 145.5t-140 59.5q-64 0 -112 -28t-73 -73z" />
    <glyph glyph-name="c.ss08" horiz-adv-x="537" 
d="M295 -8v-284q0 -11 -4.5 -15.5t-9.5 0t-5 15.5v286q-98 10 -161.5 83t-63.5 173q0 108 72.5 183t181.5 75q113 0 191 -74l-36 -41q-58 54 -134 61v-408q78 7 134 61l36 -41q-60 -57 -141 -70v-85q0 -11 -4.5 -15.5t-9.5 0t-5 15.5v83q-4 -1 -10 -1v-15q0 -11 -5 -15.5
t-9.5 0t-4.5 15.5v14h-12zM305 45h2v410h-2q-84 0 -139.5 -60t-55.5 -145t55.5 -145t139.5 -60z" />
    <glyph glyph-name="e.ss08" horiz-adv-x="578" 
d="M233 1l-25 9v-54q0 -11 -5 -15.5t-9.5 0t-4.5 15.5v63q-63 32 -100.5 94t-37.5 137q0 107 71.5 182.5t172.5 75.5q103 0 168.5 -66t68.5 -193h-168v-197q53 14 97 54l36 -40q-59 -53 -133 -68v-789q0 -11 -5 -15.5t-9.5 0t-4.5 15.5v786q-19 -3 -40 -3q-28 0 -53 6v-105
q0 -11 -5 -15.5t-9.5 0t-4.5 15.5v108zM114 300h195v154q-5 1 -16 1q-65 0 -115.5 -43t-63.5 -112zM328 452v-152h141q-7 64 -45.5 103.5t-95.5 48.5zM309 249h-199q0 -85 55.5 -144.5t139.5 -59.5q21 0 40 3v201h-17v-64q0 -11 -5 -15.5t-9.5 0t-4.5 15.5v64z" />
    <glyph glyph-name="f.ss08" horiz-adv-x="354" 
d="M305 656h-21v-156h40v-55h-40v-930q0 -11 -5 -15.5t-9.5 0t-4.5 15.5v930h-87v-445h-57v445h-98v55h91q-40 34 -40 90q0 53 41 86.5t108 33.5h101v-105q0 -11 -5 -15.5t-9.5 0t-4.5 15.5v51zM214 500h51v156h-45q-38 0 -63 -19t-25 -55q0 -39 24.5 -60.5t57.5 -21.5z" />
    </font>
</defs>
</svg>
